<mxfile host="app.diagrams.net" modified="2024-06-01T17:14:57.444Z" agent="Mozilla/5.0 (Windows NT 10.0; Win64; x64) AppleWebKit/537.36 (KHTML, like Gecko) Chrome/125.0.0.0 Safari/537.36" etag="BT_EWi8xvIJ1qWay0TY1" version="24.4.13" type="google">
  <diagram name="Page-1" id="4WOBHU_9IFh1WSmVFVig">
    <mxGraphModel grid="1" page="1" gridSize="10" guides="1" tooltips="1" connect="1" arrows="1" fold="1" pageScale="1" pageWidth="850" pageHeight="1100" math="0" shadow="0">
      <root>
        <mxCell id="0" />
        <mxCell id="1" parent="0" />
        <mxCell id="U0oo0eQeayt1dE6isxFw-1" value="&lt;font style=&quot;font-size: 16px;&quot;&gt;&amp;nbsp;8. Realice el proceso de dispersión mediante el método de hashing extensible, sabiendo que&lt;br&gt; cada registro tiene capacidad para dos claves. El número natural indica el orden de&lt;br&gt; llegada de las mismas. Se debe mostrar el estado del archivo para cada operación.&lt;br&gt; Justifique brevemente ante colisión y desborde los pasos que realiza.&lt;/font&gt;" style="text;whiteSpace=wrap;html=1;" vertex="1" parent="1">
          <mxGeometry x="40" y="-1040" width="680" height="90" as="geometry" />
        </mxCell>
        <mxCell id="U0oo0eQeayt1dE6isxFw-3" value="&lt;font style=&quot;font-size: 20px;&quot;&gt;&lt;b&gt;Paso 0: estado inicial&lt;/b&gt;&lt;/font&gt;" style="text;html=1;align=left;verticalAlign=middle;whiteSpace=wrap;rounded=0;" vertex="1" parent="1">
          <mxGeometry x="40" y="-720" width="210" height="40" as="geometry" />
        </mxCell>
        <mxCell id="U0oo0eQeayt1dE6isxFw-4" value="" style="endArrow=none;html=1;rounded=0;" edge="1" parent="1">
          <mxGeometry width="50" height="50" relative="1" as="geometry">
            <mxPoint y="-760" as="sourcePoint" />
            <mxPoint x="1000" y="-760" as="targetPoint" />
          </mxGeometry>
        </mxCell>
        <mxCell id="U0oo0eQeayt1dE6isxFw-5" style="edgeStyle=orthogonalEdgeStyle;rounded=0;orthogonalLoop=1;jettySize=auto;html=1;entryX=0;entryY=0.5;entryDx=0;entryDy=0;endSize=12;startSize=12;endArrow=blockThin;endFill=1;" edge="1" parent="1" source="U0oo0eQeayt1dE6isxFw-6" target="U0oo0eQeayt1dE6isxFw-8">
          <mxGeometry relative="1" as="geometry" />
        </mxCell>
        <mxCell id="U0oo0eQeayt1dE6isxFw-6" value="&lt;b style=&quot;font-size: 16px;&quot;&gt;Dirección&lt;/b&gt;" style="rounded=0;whiteSpace=wrap;html=1;" vertex="1" parent="1">
          <mxGeometry x="40" y="-620" width="120" height="40" as="geometry" />
        </mxCell>
        <mxCell id="U0oo0eQeayt1dE6isxFw-7" value="&lt;font style=&quot;font-size: 14px;&quot;&gt;&lt;b&gt;Tabla de Memoria&lt;/b&gt;&lt;/font&gt;" style="text;html=1;align=center;verticalAlign=middle;whiteSpace=wrap;rounded=0;" vertex="1" parent="1">
          <mxGeometry x="40" y="-580" width="120" height="30" as="geometry" />
        </mxCell>
        <mxCell id="U0oo0eQeayt1dE6isxFw-8" value="" style="rounded=0;whiteSpace=wrap;html=1;" vertex="1" parent="1">
          <mxGeometry x="320" y="-620" width="200" height="40" as="geometry" />
        </mxCell>
        <mxCell id="U0oo0eQeayt1dE6isxFw-9" value="&lt;font style=&quot;font-size: 14px;&quot;&gt;&lt;b&gt;Cubetas en disco&lt;/b&gt;&lt;/font&gt;" style="text;html=1;align=center;verticalAlign=middle;whiteSpace=wrap;rounded=0;" vertex="1" parent="1">
          <mxGeometry x="320" y="-580" width="200" height="30" as="geometry" />
        </mxCell>
        <mxCell id="U0oo0eQeayt1dE6isxFw-10" value="&lt;font style=&quot;font-size: 14px;&quot;&gt;&lt;b&gt;0&lt;/b&gt;&lt;/font&gt;" style="rounded=0;whiteSpace=wrap;html=1;fillColor=#B3B3B3;" vertex="1" parent="1">
          <mxGeometry x="40" y="-640" width="20" height="20" as="geometry" />
        </mxCell>
        <mxCell id="U0oo0eQeayt1dE6isxFw-11" value="&lt;font style=&quot;font-size: 14px;&quot;&gt;&lt;b&gt;0&lt;/b&gt;&lt;/font&gt;" style="rounded=0;whiteSpace=wrap;html=1;fillColor=#B3B3B3;" vertex="1" parent="1">
          <mxGeometry x="320" y="-640" width="20" height="20" as="geometry" />
        </mxCell>
        <mxCell id="U0oo0eQeayt1dE6isxFw-12" value="" style="endArrow=none;html=1;rounded=0;" edge="1" parent="1">
          <mxGeometry width="50" height="50" relative="1" as="geometry">
            <mxPoint y="-480" as="sourcePoint" />
            <mxPoint x="1000" y="-480" as="targetPoint" />
          </mxGeometry>
        </mxCell>
        <mxCell id="U0oo0eQeayt1dE6isxFw-13" value="" style="shape=image;verticalLabelPosition=bottom;labelBackgroundColor=default;verticalAlign=top;aspect=fixed;imageAspect=0;image=data:image/png,iVBORw0KGgoAAAANSUhEUgAAA5sAAAD6CAYAAAAvK1NyAAAAAXNSR0IArs4c6QAAAARnQU1BAACxjwv8YQUAAAAJcEhZcwAAFiUAABYlAUlSJPAAAGaoSURBVHhe7Z0FtOTE1rYv7s4Agw06OAzufLi7uw7u7ny4w6AX5+IOA8zlw/nRi7u7uzuD3Pzrqclu+vQk3emTdNKpvM9atWAqlZOudHXt/Zbs+kcghBBCCCGEEEJkjMSmEEIIIYQQQojMkdgUQgghhBBCCJE5EptCCCGEEEIIITJHYlMIIYQQQgghROZIbAohhBBCCCGEyByJTSGEEEIIIYQQmTOc2HzvvfeCQYMGuXT11VcH/+///b9KJav7BRdcEHldSUmps4nfnv0Oo64rKZUtYUutTQ8ZMiSyjK+J+lrdq+hTKPmd1L6Vqpjq/bQkDCc2ufEf//iHkpKSkpKSkpKSkpKSklJkSoLEppKSkpKSkpKSkpKSklJbKQnDlWIZgP2B//mf/wn+93//t1LJ6t6vX7/I60pKSp1N/Pbsdxh1XUmpbAlbam16iy22iCzja6K+Vvcq+hRKfie1b6Uqpno/LQnDlWItrv0B/mDVsLrTaQgh8qfeMRfCB7Cl1qaxsVWi6j6F8Bu1b1FF2vXTJDYbsLpLbApRDBKbwjckNqvrUwi/UfsWVURiMyVWd4lNIYpBYlP4hsRmdX0K4Tdq36KKSGymxOousSlEMUhsCt+Q2KyuTyH8Ru1bVBGJzZRY3SU2hSgGiU3hGxKb1fUphN+ofYsqIrGZEqu7xKYQxSCxKXxDYrO6PoXwG7VvUUUkNlNidZfYFKIYJDaFb0hsVtenEH6j9i2qiMRmSqzuEptCFIPEpvANic3q+hTCb9S+RRWR2EyJ1V1iU4hikNgUviGxWV2fQviN2reoIhKbKbG6S2wKUQwSm8I3JDar61MIv1H7FlVEYjMlVneJTSGKQWJT+IbEZnV9CuE3at+iikhspsTqLrEpRDFIbArfkNisrk8h/EbtW1QRic2UWN0lNkVefP3118E+++wTnHjiicGff/4Z5lYXic3i+eabb4KnnnoqeO6554Jff/01zE1O2vt9o0ix+csvvwQvv/xy8OSTTwYffvhhmJsf3eRT/PHHH8Ebb7wRPPPMM8F3330X5grReyQ2O0fRdiTN8//666/gtddeCx5//PHggw8+CHP9oZRiky9lyy23DFZYYYVauu2228Kr+WJ1z0ts3nrrrT3qveKKKwZrrLFGsO222wZnnnlm8PHHH4clRRl4++23g+OPPz78VzIGDhxYa3cXXXRRmFtdJDZ7T9q+9LHHHguWWmqpYIQRRqh9B6OOOmqwySabBO+9915YKp6093eTLciSIsQmAnOdddYJRh999NqzSdNNN11w9tlnu3edB93gjFNXBvMmm2yy2mcZaaSRnK195ZVXwlL+c9hhh7nf1F133RXmiLRIbGZP0XYkzfMZ3KMd9OnTp3YvqX///s6/++9//xuWLDelFJvnnHNO7ZmWyCsCe35eYhNBWV/vxjTGGGMEgwYNCkuLbmf77bd339nnn38e5rSGgQX7vv/1r3+FudVFYrP3pOlLMYQ44Nwz2mijBQMGDAhmnXXWYOSRR3Z5448/fvDggw+GpYcn7f3QTbYgS/IWm1dffXVNZPJdzDvvvMGiiy4aTDDBBLXPsfrqqwe///57eEfn6AZnHCfRPgNtdKyxxqr9e+yxxw7uueeesKTfrLLKKq7OsjPZIbGZLUXbkTTPZ5Uafa09s2/fvsFCCy0UTDTRRLW8DTbYwIsVbKUUmzxz8ODBLlkFinIwrO55i81ll1229g6uvfba4OSTTw4WX3zx2ueRceh+Pv30U9c58X0dfPDBYW5rWKpxwAEHBKecckpusw3djMRm7+ltX4rxNAO73XbbBV9++WV4JQjefffdYM0113TXMLRRS4LS3m90ky3IkjzF5gMPPFBzjPbdd9/g+++/D68Ezsm54IILgjHHHNNd32OPPcIrnaMIn6Kem2++2T17xBFHDE499dTacjiWFS+44ILuGuLzhRdecPk+I7GZPUW3b58o2o6kff7yyy/vrk811VTBkCFDwtxhM62XXHJJbbBv7733Dq+Ul3b9tK4Qm/XYCGTVxOY222wT5vRkzz33dNcnn3zyXEahRe/BsbP2Q6fy448/hldEO7TbiYlokvalLOuZY445XNnddtstzO0JZdZdd11Xhv/Wk/b+OIq2BVmSl9jEqZltttncc44++ugwd3iYyUN8IUpZ+t9JivYpmEng2aw6aeTnn38OFl544WDiiScO7rvvvjDXXyQ2s0diMxuKtiNpn3/DDTe4fPoS9oVHwQAXExL0vWUf3JLYTInVvVvEJqOwNkpNUAPRnXz77bfBOOOM474nlmXxX2anRftIbGZD0r4UJ5tyLPlpFgThs88+czNi7GOpFyhp749DYrN97r//fveMaaaZxgXDacZ6663nyrKiopMU7VPY7OVll10W5vSEdllE4KQikNjMHonNbCjajqR9/hJLLOHuP/3008OcaJjVpNwWW2wR5pQTic2UWN27RWzClFNO6crceeedYc7fMNt5/fXXu0BDSWDjM+VbGVeWXl1++eXBTjvtFKy11lrBRhttFOy3337uB9lqvfm9997rnlG/fIvncj8Ozqabbhocd9xx7kebFEagb7rppmDXXXd1QS/4O8z6sul76NChYal4fvvtt+Dcc88NNtxwQzcideyxxwaffPJJeDU9Rx11lPuOWNvPmn/+f4oppkj82XhfjRvYGfkin4hm8NZbb7mOau211w6OPPJItxG9kTTfGxB1bffdd3f7uVhGUkRwFonNbEjal7KUknLNZsIMgi5QlmArRtr745DYbJ8jjjjCPWOvvfYKc+L55z//6cpGzfhlSdE+BUH3sng2/TTL8rBB9MH0rWx/wLbVc+ONNzpb1QjbLOjPH3300TAncBFxsUsEiWOJHn/7//7v/8Kr2RMnNjvlR6R9Z53wJbJGYjMbirYjaZ7PVihmK5lwaCZUgQBD3DveeOO1HBDsZiQ2U2J17xaxiYGyNeRRU/Pffvutu8YG5CTYkiICSETBMgEiFY477riuXFSaaaaZ3L6gOGyD9IsvvugEna1jb0wEsGAdeyuuvPJKN9oU9TdIRFf897//HZYeHt7R3HPPPdx9zECyfyktCGGLPMboOYbbBgguvvjisFQ8fMeURZzWYyNgGFMMbn1UycUWW8x9V0YW39uFF15Ya2v1iahsfMa8kNjMhqR9KYFjKEeI9lbYUiEGI4y098chsdk+RMJmJo99iq1gBJ7PgxDoJEX7FFZPbGRvZzARQ1NPPXWtHo2J3wCDgUAfylK5RtjDRVkGSwHBZ6thGhP9+1dffeXKZUmc2Mzaj4As3lnWvkQnkNjMhqLtSJrn33333e7fK620kvt3K2affXZXvsyrFSU2U2J17waxiYBgJo7rOBBRZG0kmBHjOqM0zABec801bp05IuWMM86odf5cRwRGYWVuv/12t1EaI4JwYkSXUZ2HH3442GGHHWrCptlo6kEHHeTKkIjqddZZZ7n9RszyskzV1tizpCFu+QLvljLLLbece/azzz7r2jZBIQhnbTOHvcWcmX79+tVGqliaRt7MM8/cQxRG0UpsEp6fzznXXHO574O6v/nmm2GpYaT93t55551glFFGce8E0cqxCbfccotzergvzyUfEpvZkLQvnXTSSV25H374IcyJhyAJlJ1++unDnPT3xyGx2Vn4TfN5Wi37SkvRPgWDgQxI8nz643b3qNqqFRKDlthsbNAjjzwSXHrppcFqq63mrjFT8fzzzycSmzYDPc8887j+mP6cI1hYlcKgINfmn3/+zAPG5SU2s3pnWfoSnUJiMxuKtiNpns/f5t9JVpSA9b383suKxGZKrO55i83NNtvMdfhEv3r99dfdyIk5+sxW4fxHkaWRQLxxbcIJJ4x1iBBOLL+icydFzZSZgWCjNJ/96aefDq/0BOFIuWmnnTbSqNoPGBEUNwPJfcccc4wTm5RFIDXCZyDAUuPyhpdeeqnpjGgSmMW00VvqYxAciPdIPsuImtFKbJIw2HHLM7L43kwcNzqeNmOKw5YXEpvZkKQv5ffDAASDDElgKTblmUmAtPc3Q2Kzc7DskCOa6As6vV+xG5zxV1991fWvfAYiSUbZiShYmcI9DPbRf8aBkCIoHHYGW9RMbGIX+S8OZ9TWBpbkzTjjjK5MkpUx7ZCH2MzynWXlS3SSbmjfZadoO5L2+da/n3TSSe7frbDy7Z7J3k1IbKbE6p632IxLCAhEURxZGQkcDn44dPpJnCGbzZtlllmGm7kzA0GK2mdqcB/GgXKNezhsEzbXkoz+8KOlLKNT9XsZmWmkU4ibGU4LRpvnTjLJJMOJwUMPPdRdY0a2GUnEJiO4UWT1vdlnZQS5aCQ2syFJX8qgCGU47D4pNojCQEva+5shsdk5WC3BZ+Edd5puccbpK+ttE7MQzfZMMfBry1yTiD5m2xBYlG8mNkkEE2n2bLMr7DfNkk6LzazfWRa+RKfplvZdZoq2I2mfb74a+6+TwGozyrNyr6xIbKbE6t4tYpOEkGHkrlHUQVZGgnMhybf9JK1gJMhGXxmhrMcMBDOzrSDENGUbf6QmflZdddUwpzm8G3tu499iWRIj+PWBGbKAZ7Isi2eyr7IRDK8J5mZ7JVuJzRlmmCHMGZ6svjfaA3m876h2licSm9mQpC/lEGrKMDufFAwy97DcKO39zZDY7Ay2xJEZpfpz5DpFNznjDAhuvfXWtc+z5JJLOhsahS11ZftFUqzPbiU2G21mI8xuUq4d5zcJnRabWb+zLHyJTiOxmZ6i7Uja57Pvnf9PuhKBNkr5pMtuuxGJzZRY3fMWm0S3whCyXJGGzx4ONtjbCDQpal9nVkbCAugQXYu9fkkSS3+5Z//99w//yjDMQCT5Dll2QNnGtmafp53IfAS44Z7GTeMswSWfZTgY2azEFN8Pf5d9J/XR8urZZZddXJlmG8dbiU2+sziy+t6GDh1aGxleeeWVmx6Y3GkkNrMhSV9Ku6VMY9trhs1csIIg7f3NkNjMniuuuMKtgmA2if1zedCNzjjOnh0pNuecczpx18gCCyzgrtPPJ4X9/9zTTGwmFZAs6WNVTpbLQjstNrN+Z1n4Ep1GYjM9RduRtM+38/CTBpy0bUtEVS4rEpspsbrnLTabHX1y1VVXOaNDucZOPCsjwf4d8nuTEMT1mIG46667wpx4LPz+PvvsE+YMw2YEo5yAONjXyj3MZDaCsMLJ4vp8883XdKYxKfwd/h6dDsF7opIJOBKBEKJoJTY5iiSOLL83AlRYIA3+7oEHHuiWl+SNxGY2JOlLWQJEGZYEJYG9KpRnpQCDNmnvb4bEZrawRJ797/SDiM686FZn/I477nBbEPhcSy+99HDtkf2EXPvoo4/CnGQwqNlMbC6yyCJhTnNY0UT5n376KcxJT6fFZtbvLAtfotNIbKanaDuS9vkWyJLlsUk45JBDXHlWApQVic2UWN27SWwCEdcot8wyy4Q5w2AKn/ykPxIilVL+uuuuC3P+/uGQ+BHwvbeTGkOOm4F44oknwpx4zj//fFeWM44MRnLt8/DZkoKB4x6Wh0XBWZMDBgyo/e2dd97ZdTK9wUJdt5No21G0EpssKY4i6+8NEJcYaww/f5cIu3nvgZHYzIakfSkBUxAgSc78Yi81f7P+N5b2/jgkNrODPd82gJc0iEVWdLMzTqAgG4QkKF89tpcwLjBbHBx71UxssnIkCfxGKM9ZnFkRJzaz8CMg63eW1pfIA4nNbCjajqR5/mmnneb+HeerNWL+PG22rEhspsTq3m1ik1FYyjUaA34Y5DMTlQQLOY7hq4cfGvmcZZUWMxBxM3n12BLXxtk7GyF9//33w5zWIIq4h2VRcTAKhciyiIDbbrtteKU9GAnnfiIKcpRKs0Q4dsqybIuQ2Y20EpvNDhnO8nurh/e+1lprub/NeaRESM4Lic1sSNqX2gBM1Dm+jVhbJsCJkfb+OCQ2s4F+2PoJDtTPm253xjfeeGP32ThPuB4Te0natcFAKbPHzcQm/WoSsAeU//bb6D2lvQGhy9/k+JF6svIjsn5nWfgSnUZiMxuKtiNpns+5xvybviQJHHlEeSZAyorEZkqs7t0mNh966CFXjv2BjbD0hWtJljzawbWNI4XMmJLfzl6LuL0kZiA4iLkVcQbCPk87BzVzBAr3bLXVVmFOPIgpBCfLk9sxjMChvzwnTjxGYSPK7OFspJXYjAo+ZGT5vUXBngL+/qabbhrmdB6JzWxI2pfye6HcZZddFubEY+2hfqla2vvjkNhMD4fmWyCL7bbbLszNl253xm+66Sb32RoHck1QtXMO6X/+8x93TzOxmTSYWyfE5rLLLuv+ZuPyV8jCj8j6nWXhS3Qaic1sKNqOpHk+/iT/ZhtSK/h9sfyWlOWqhbyR2EyJ1b3bxOZhhx3mykUd4WHncbba1zB06FA3Y8hSgcaANrxv/kbSKHIIFp7L5278wWRhICxaFyNASZbSEljJzrtMGlRo3333deXbPVh3zTXXdPcRaCcpZlBZytYYATKN2Mzye4uCjpH2kuTw5KyQ2MyGpH3ptdde68o1zuw0wuzHNNNM48o++OCDYW76++OQ2EwHqx1sz/h6663X1iBTlhTpU9DOEEDNzglmKS2fjX2D9eB0kk/07qTLQjfccEN3T7eKTZtRibKRWfgRWb8zic3qULQdSft8jpMj7/777w9zorF2yuq4MiOxmRKrezeJTQ4yZikj5aI2IB955JHuGmHcmzkUFgFr4YUXDnP+BsPAvgmuJwnfTMAdyrL0oFEMZmEgfvvtN7dfkGsc79EMlsaynJWyUWdaxhk9C1fdjtgkCBFGltTs/NMo7MfZuK4/jdjM6nvj/+lEG7GQ4BKbyeD7aPYbbHW9VTCQdoKFJO1LiabXp08fV5bl+nFYAI7GZepp749DYrP3EFht9tlnd89bfvnlnUAoiqJ8CvozE9s77bRTmDs8rNqgTKOTSZ9oR1slmRXGjlg9ixSbcVtP6HvMj4iyzVn4EVm/M4nNYkhrh3pzvWg7kvb5Fg2ZQZsoXwoYvLcgjKyoKDMSmymxuuctNu3oExKjsF988YVbooIwscAO888/f2RAGxyLSSed1JVhzXijccJwMFPItD1lCG4TBd89y0opd+qppw4nIgHxsf3227u/QxTWqL0UWRkIZgPZy8F19lZGRab9+OOP3VEnlGGJMcvG6kEcIsZuu+22MGcYCEU+P/V97733wtzWbL755u5ZzG62C4dScy/Lteo72zRiE7L43ni/RKetH6mm3QwcONDd02rmPUvKKjYZ1ae99u3b10X2baTZddqDRTfmvLhGWl2Pop2+lDKUZXaHYDKNYBj57Ayy3HvvvWHu36S9PwqJzd5BW2HQjWfx3yjHLk+K9CmYpaPN8WwG2hqdQAvsQRo8eHCY+zf0kxxBwvX1118/+Oqrr8Irf4PNpl70wRxFxX+LEpvMtLC9A9vROOtoq6OwP1HOcFZ+RJbvTGIzX9LaobTXi7YjaZ6P326DWwxg0cbrYSWZbXtiQKdVFN1uR2IzJVb3vMVmq8Royeeffx7eNTwYVevgERNEi+PAWETsDDPMUPs7HGfRjGuuucb9mCjLCAznB2GQETwsxbJnsN8xbrlAlgYCkWjPJEw9Io/lr9SNsyvtrDSMJGdINnL22We76yR+6ISoRjBayPukjjsgSu157NvsDdbRDho0KMxJLzYhzfdGJ2hthHD7O+64o3vHtmGe4CLvvPNOWLrzlFVs2vsi8f4aaXbdAgxYahQIra5H0U5fiuGzQCkY0rXXXtu1n5NPPjlYYYUVas/lPNco0t4fhcRm+wwdOtTNZNqzkqSkx130lqJ9CtqgPb9///5u3zz2ZtZZZ63lEx0yDpxOCyhHAJ2NNtrIBW074YQT3GAc4o1rnDHJoB5irCixyayjiWu+VyKzMgBpA7IkfpdxZOVHZPXOJDbzJa0dSnu9aDuS9vlPPfWU+91QZqqppnK/k/POO8/5crYnmlVi+HxlR2IzJVb3osUmoobADgSW4ZzNqNmqRhhR5AdhxqY+sbQl6XJROvZVV121JqzqEyINY9HsHK2sDcTbb7/tjBXGqP6zkDCMOAqEoo6Dtfj88Ovvo24Y0bjlDlHgpHAvorW3MDLG3+Dz2Cx1FmIT0nxvDGTQydqotSXOLKUDzZOyik2O0rHPzT6wRppdZyDDnDz2VTXS6noU7falzFywlA7n0D6nJWZj+R01I+39jUhstgfvn4Ele07S5LvYBAbj6s88tsRviv611SwD+1/pP6PaNitncD7NlhQpNuGee+5xZzzXf0YSx5IcfvjhYal4svIjsnhnEpv5ktYOZWHHirYjaZ9PW2UQpfFefk/0z40xO8pK6cVm0Vjd8xKbnQBBwRIXjAIhml944YXwSnsw44XhuvLKK53gfeCBB4ZbGpAnjIIRKprPQjQ9lgyxtzMJdCCPPvqoqwvnqfkwshRHmu8N0Y4QYskno9NJBjmypqxik3fFu4ub9W51nSXgOMWNy9+MVtezguV0tJujjjrKOeKsLhjaxp6/tPf7SB5is1vpFp+C3x8zd0RKZZaNNsqsWjuwVA4bdMUVVzg7wkBcK6FaBHwmtuEQ44HfIedqtmvzsvIjyvLOeotvPnNaO5SVHSvajqR9PnaeFWwM8LD8nHr7hMRmSqzuZRabQpSZsopNIeKQ2KyuTyH8Ru1bVBGJzZRY3SU2hSgGiU3hGxKb1fUphN+ofYsqIrGZEqu7xKYQxSCxKXxDYrO6PoXwG7VvUUUkNlNidZfYFKIYJDaFb0hsVtenEH6j9i2qiMRmSqzuEptCFIPEpvANic3q+hTCb9S+RRWR2EyJ1V1iU4hikNgUviGxWV2fQviN2reoIhKbKbG6S2wKUQwSm8I3JDar61MIv1H7FlVEYjMlVneJTSGKQWJT+IbEZnV9CuE3at+iikhspsTqLrEpRDFIbArfkNisrk8h/EbtW1QRic2UWN0lNoUoBolN4RsSm9X1KYTfqH2LKiKxmRKru8SmEMUgsSl8Q2Kzuj6F8Bu1b1FFJDZTYnWX2BSiGCQ2hW9IbFbXpxB+o/YtqojEZkqs7hKbQhSDxKbwDYnN6voUwm/UvkUVkdhMidVdYlOIYpDYFL4hsVldn0L4jdq3qCISmymxuktsClEMEpvCNyQ2q+tTCL9R+xZVRGIzJVZ3iU0hikFiU/iGxGZ1fQrhN2rfoopIbKbE6i6xKUQxSGwK35DYrK5PIfxG7VtUEYnNlFjdJTaFKAaJTeEbEpvV9SmE36h9iyoisZkSq7vEphDFILEpfENis7o+hfAbtW9RRVKLzauvvrr2B/hj/HiqlKzu/fr1i7yupKTU2cRvz36HUdeVlMqW6g3zFltsEVnG10R9re5V9CmU/E5q30pVTPV+WhKGKzVo0KDaH1BSUlJSUlJSUlJSUlJSakxJkNhUUlJSUlJSUlJSUlJSaislYbhSQ4YMqf0BlgewHr1Kyeo+11xzRV5XUlLqbOK3Z7/DqOtKSmVL9UvtGNCNKuNrqh/ArqJPoeR3UvtWqmKq99OSMFwp/oj9AdblVg2rO2vvhRD5U7+/TQgfwJZam8bGVomq+xTCb9S+RRVp10+T2GzA6i6xKUQxSGwK35DYrK5PIfxG7VtUEYnNlFjdJTaFKAaJTeEbEpvV9SmE36h9iyoisZkSq7vEphDFILEpfENis7o+hfAbtW9RRSQ2U2J1l9gUohgkNoVvSGxW16cQfqP2LaqIxGZKrO4Sm0IUg8Sm8A2Jzer6FMJv1L5FFZHYTInVXWJTiGKQ2BS+IbFZXZ9C+I3at6giEpspsbpLbApRDBKbwjckNqvrUwi/UfsWVURiMyVWd4lNIYpBYlP4hsRmdX0K4Tdq36KKSGymxOousSlEMUhsCt+Q2KyuTyH8Ru1bVBGJzZRY3SU2RVrOPvts9xs64ogjgq+//jrMFa2Q2BS+IbFZXZ9C+I3at6gipRabn332WfDkk08Gr7/+ejB06NAwN1+s7hKb2fDXX38Ff/zxR/Df//43zKkGl112Wa0tITpFciQ2xTfffBM89dRTwXPPPRf8+uuvYW556Uax+f7774f/11m6wRnH/nzxxRfBSy+9FDz22GPBK6+8Uup2NXjw4GDHHXcMnn322TCnu/HZD5DY7Bxp7UCRdoQ2/9prrwWPP/548MEHH4S5/lBKsXnnnXcG888/f+25pHHGGSfYdtttnQDNE3t+2cXmaqutFqywwgqJ0kYbbRTelT0777yze5/nnHNOmNPd3HvvvT3ezYorrhisvPLKwRprrOHe02677RZceOGFwffffx/eMTzvvvtuMO6447p6n3TSSWGuSIrEZu/BwG255ZY92vBtt90WXm1N0fcjBJZaaqlghBFGqLWBUUcdNdhkk02C9957LyxVPrpNbD7wwAPB6quvHv6rsxTpjN9xxx3BpptuGkw66aS1z2BpxBFHDOaZZ57g6KOPzt3PSAODBCONNJKrw1RTTRXmdjdl8wPaQWIze9LagbT3p7Fjv/zyi2sHffr0qT2b1L9//+Ciiy7yZsCldGLzlFNOqTWI0UYbLZh11lmDySabrPYZ+MLyHL2z55ZdbPIurS6tEoa4U5TNyFx++eXDvZ+oNOaYYwann356eNff/Pnnn8Giiy7qyrB8VrSPxGbv4Xdm785SO7+9Iu/HEJsTTf81YMAAZw9GHnlklzf++OMHDz74YFi6XHST2Pzuu++CqaeeOlhllVXCnM5ShDP+4osv1vphS6OPPrpz+GafffZgwgkn7HGNwe0zzzzTOZndTr3Y5HssAxKbIilp7UAWdqS3doztUvPOO2/tnr59+wYLLbRQMNFEE9XyNthgA+cnlp1Sic3777+/JjT32GMPZwSNF154IVhwwQXdNTrUn3/+ObzSWazuvojN8847L7j++uubpiFDhoR3ZU9ZxeZ8883nlipZuummm4Irr7wyOOGEE4JFFlmk1k6OPPLI8M5hUGa22WYLDj300DBHtIvEZu+h/7Y2a++xnd9eUfdj/M1B2G677YIvv/wyvDJspcCaa67pruEolHFJUjeJzY033th9Dl/F5g033BCMPfbY7nnMZrBC6pFHHhnOwcMxvOCCC2p+BmnppZd2MxPdzq233hrssssuwfPPPx/mdDcSmyIJae1AVnakt3Zs+eWXd2VZcVDvVzOIdckllwQTTDCBu7733nuHV8pLu35aoWJz4YUXds/Zaqutwpye/PTTT8G0007ryuTVSVndeZFlxsTmhx9+GOYUQ1nFZitH7PDDD3fl6NjoxER2tNuJiWhYMpTmt5fX/SwrmmOOOVxZlqlHQZl1113XleG/ZaNbxObVV19d+xw+ik2WupmzyWwGezRbQds6//zza1sf2Dbx+++/h1dFFkhsilaktQOdsiNJ7RiDXJSbeOKJgzfeeCPM7QkxafDNWcLPhFqZKY3YfOedd9wzePHN9kswQ0Q5RmPzwOousZkNvopNOq2ZZprJlR00aFCYK7JAYjMbyiI277vvPleOJUfNgjhgJ1i+zmqYt99+O8wtB90gNhnJZ0TfPodvYhMHj+WwPIcZhnZXQ7HPi/uXWWYZF1hEZIfEpmhFWjvQKTuS1I4tscQSrlzU9qp6mNWk3BZbbBHmlJPSiE1GDpni/vbbb8OcaNi8z2dZe+21w5zOYnWvstgkSA7La+uD4GCI99tvv2C99dZzAReOO+642EEC8m2JLgF2+BwsabA89tMAy5r4N0tUgWh1l156qRtY2HzzzYOHH37Y5TfyzDPPuLa52WabucA9/O2zzjor+OSTT8ISvSep2IRtttnGld19993DnGHw+ahXqxnPV199NTj++ONdp0OwDmb4Tz31VDcQkwQirPFs7uUdtBOIpZuR2MyGsohNtlBQjr6+FQRtoOyJJ54Y5pSDosUmg2MEzOD5tpTLN7GJLeAZ/fr16/VRU0TCT7Kfqrd9N7MZ2AaiVMJbb73lnE/8G7ZksJoriU1MamPS2Mq8/IAo0tr4PG2jxGY2pLUDnbIjSewYg1PMVjJY1SrqLQGK+HvjjTee+32XldKIzSTQ6c8999zuszTujesUVvcqi03b4IwxoHO3deiNiYALrENv5Pbbb48sb2n//fd35X788Uf3bz4rBo0R5fpyd999tytnMAq17LLL9ihTn1g+RYeDwe4t7YhNDC5lDzvssDBnGNtvv73LZz9QFJ9++mmw/vrr1z53Y6LTGjhwYNOBGCLi2nKx+oRDyd8vMxKb2VAWsWmBXAgR3wpbqpRXJNWswJbyuUlFiE2cKp7NqP9pp53m/t8nsYmIs2fcc889YW72pO27bVYDkYbgwobavYsttljwww8/uP9vZRNb2ZgsbGVefkA9WXzuvG2jxGY2pLUDnbIjSewYv0vKrLTSSmFOcwhSRnkGVcqKN2KTM7HMmWckNi8H2uousfkPZyzY6Mzfwkg++uijblSG0dUddtih1qETrKAeDBOijbTccsu5Moz8Wp5FF64Xm/zoRxllFDdqynKIW265xZUxXn75ZbcWnvJ8pmOOOca1Vc5QoizGl6URXF9ggQWaHk3SjKRik1l5C0Jx4403hrnDaOYIsNSLkXeucz9BHhjF5iiC6667zs2WEtSC63RIH3/8cXjn3zB6zrsaa6yx3BmevBveAc4K91VteYaIpixi046lwNFuBTM5lJ1++unDnHJQpNhkloc+hWVjHDOWtI/Lijx8CiJ/8/fnmmuuMCd7sui7TWwyW0dZPu8111zjvpc333wzsU1sZmOyspV5+QFGFp+7CNuYR/uuAmntQKfsSBI7xjXK7LXXXmFOc2iHlOd3UFZKLTbpnJklWmuttVxnwWcgRDmdeV5Y3X0RmywfYVNys9QYRMGMDB0/QROefvrp8EpPWNZCOYI4xYWMb7ZXwwyrJYxuFN9++20w5ZRTujL88OOiBRIS3iILMgrbG/jxc38zR4ylT/WRkhuXQsQ5AnSCM844o7u2yCKLxC4JwqmZZZZZXDme0xisguOCuNa4N4ClchjYvCI3dwqJzWwog9ik32A2iP4+Cax2oTyzKWWiKLHJki6iY/NcZoQgSR+XJXn4FLZE+JBDDglzsiWrvtvEJolVW41L7pLaxDgbk6WtzMsPgKw+dxG2UWIzPWntQCftSBI7Zv170nPVrTxL8ctKqcXmQw89VHu2JYxHnuua7bm+iM0kCWekHjMyJEZc46ADt2jB7OWIIqnYZOlMHIwgU4YlRXHGzGC000af4wx1M8wRm2KKKdx+EfbJMArFf9dZZx13CLiN5NKxIdYbiXMEGPUif84552xp9JjZR8hSHgNajwXNYsTZRyQ2syEPsdiMJPdbH8DZykmxMxLLFDHUnAtSnmKTqIw8k5m23377zeX5KDYtWBszjJ0gq767XmxGxSRIahPjbEyWtjIvPwCy+txF2EaJzfSktQOdtCNJ7Jj9rs8999wwpzlnnHGGK3/QQQeFOeWj1GKTJZ8HHHCA2ww/wwwz1D4Hh6LmFR3OnumL2MQIIyabJc4eqseMDEtPWmHOTNyPLKnYvOKKK8LcnnD2qi2dSRoq+rLLLnPlk3z+RswRa5Y4HJiADnHBIKIcAepq9YgSqFGw/Ifyk08+uTPohh1fsOqqq/bI9wWJzWwog9gkkAtl2jmcHoeCe5Isl+oWihCbd911l1s6iy2o7zt9FJt9+vRxf79xn38WZNl3m1OKfxNFEpsIUTYma1uZlx+Q5ecuwjZKbKYnrR3opB1JYsd23XVXV+biiy8Oc5rD74TySZfddiOlFpuNEA3NRszoVFqNeGWB1d0XsZlmz2YSJ5NlA5SNaytJxSbR/aIwo41xtmW/rRJtmNlHEs9oB3PEBgwY4KIAWoc0//zzu72Z//nPf1r+zShHwOrBXpN2YO8K99VvJB86dGjtd8GZcGU85L4ZEpvZUAaxySwFZVhJkBQ73qIMh+8beYtNnC+EDs9rPJrJR7E53XTTub9vUVyzJMu+28TmBhtsEOb0JIlNhGY2JitbmZcfkOXnLsI25tG+fSetHeikHUlix/bcc09XpnGlQRy23Jv92GXFK7EJzB5ZqPYrr7wyzO0cVneJzX+4kfFW/POf/3Rl99lnnzCnJ0nF5rcx0ftY025lepMagxC0otERu//++51BIy+pIxPlCFg0yLjDhuOwIFmM2Nbzyiuv1BysMcYYIzjwwANbiuCyILGZDWUQmyxhogxLmpLAXhvK85ss06x+3mKTJf88i8Asje/JR7FpkShbnXHXG7Lsu01sNh6XZSSxiRBlY7K2lXn5AVl/7rxto8RmetLagU7akSR2jOWwlGF5bBLYHkh5ApuVFe/EJhx++OHu86y22mphTuewukts/iN44oknwpx4zj//fFfWgk80klRsxs1a2x4MZrZpj+0moua1Q5QjZs4GQRIIANGKKEfA6tFuAIuBAwe6+3jPjfD+MO72XbOPJW7PTJmQ2MyGMohNGH/88d1yzyR78zm7j7/JrF2ZoC/ic5M6LTZZysVzJppoosiIqD6KTfpB/n4nfIQs+24Tm/zNKJLYRGhmY7KylXn5AZ2w8XnaRonNbEhrBzplR5LYMTtOKu533QhRnCkf5deVBS/FJtFo+TwzzzxzmNM5rO4Sm/8Inn/++TAnHowdZeNGapOITfZAxmE/Yg5mzoM4R4wIyeTPMcccLQNERDkCjLiTR+j3drDDsJvNqhKhzz4fIfk5mLzMSGxmQ1nEJkvWKZdkIIfjFSi7xBJLhDnlAFvK5yZ1UmyyEsiWhxFFlL68MdkyQw4VtzxmgzpFHj4FW274+0SXjBLYaciy7zaxGXfwfBKbCFE2JmtbSbvg73XaD+ikjc/DNkpsZkNaO9ApO5LEjt18882uDPFmkkCgScpzpFFZKY3Y5G/T8bK3pBXsk+PzECio01jdJTaHHebciizEJp81DotQjMhrh97u740TmwQxsKBVm266aZgbTZQjYPVgeU/S5X+IWkbruA+j2QrW/yf5fN2OxGY2lEVs4sRTjqAfrbA2Hrdcr1vJQ2yyNGyRRRapPaedxD64TpGXT4GN4BntisJWZNl3m9g87rjjwpyeJLGJ0MzGZGUr8/ID8rDxnbSNEpvZkNYOdMqOJLFj/MYpQx/RCn7jLN8l4VeWldKITc5I4hlJppHpmCm79dZbhzmdw+ousdkdYpMlEWz6ptwjjzwS5jaHs0X79+8/3CHTSWi2xIwRXvaAcJ09KnFEOQI4glaPwYMHh7nNOfPMM135pIEpeJ8sIynbgfeNSGxmQ1nE5rXXXuvKcVZiM+gLpplmGlf2wQcfDHPLQR5ik0AX7F9rlTgsn8+x+OKL1/I6GWwpL59iyJAhtefU971JoX1hrxrbVpZ9dyfFZta2Mi8/IA8b30nbKLGZDWntQKfsSFI7ZufrEuejGfZbWXrppcOcclIasXnJJZe4Z/Djb2boODzZwpon7YjSYHWX2OwOsQl2aDTHtHBPM959991aBFmix7ZLq/1M1m5HHXXU2L0sUY4AWLjrSSaZJPjoo4/C3Gh49xYOvvHMMJwfOsxGLPy3xGZxcEh7sxH3Vtd/+umn8P+iaXW9nrKITfp/6+PvuOOOMHd4LAgJZx2WjTzEZlJa9XFZk6czvuOOO7rnMGvQGIW3GcwwrL766u5elhd//vnn4ZVhZNV3d1JsQpa2Mi8/ALL63EXYRh/FZlo71Jvrae1Ap+xIUjtmEZnZexzVBoG2bcGrOhE5O09KIzaHDh1aGwlglpODkBt56aWXamXWWGONMLezWN19EZvsUaCBN0uNYr/bxCbOOQdcU5bPFrcmH8Nu4eY333zzMLc9kjhi2267rSvDmU5fffVVmPs3cY4AS7AIYME1NqZHHZRNXYleiMNDOQ67boTn83sg3LfBfRaQYptttglzy0lZxSbLd0YZZZSgb9++kXvgml3H+M4333yuzlFRL1tdj6IsYhMoQ1mCcEUddo9h5t0xO8H+vLIhsdl5nwJw8lgqac/Dt2gWGAbbxwCiiRdEYtTMRFZ9d6fFZpa2Mk+xmdXnLsI2+iQ209qhtNfT2oFO2JGkdoyl87Yfnj6IgeV6GNBaZpll3PUll1wy8ZL8bqU0YhNYlmjHmow11ljBuuuu68JUc9ApU8wjjjiiuzbXXHPltrbZ6u6L2EySGE2sp9vEJvD9s+yL8nQWGJRjjz3WBW9g3b3t1yGxSZtQ2L0hiSP222+/1d7RCius4IxZPXGOANDZcuC0fdZZZ53VGUgiHbJM3JZ3kAiYwEhtPbwH2zvKKDsj+fvuu29tczz7hAgSUmbKKjbtOyDxnTTS7LoFGLBEO6mn1fUoyiQ2Mbz8bimPI7D22mu7wCEnn3yy+42RTyIydBmR2BxW9zyccdrSYYcd1sMG4gSyp4tokSeccIITfbQxgsZYGZa8sqQ4jrR9N3RabEJWtjJPsQlpP3dRttEnsZnWDqW9ntYOdMKOtGPHnnrqqVqANgZF0DPnnXee+90THZx8Ztc//fTT8I7yUiqxCW+++WZN7TcmDAGhtBtHCDqJPVtis7vEJgwdOjQ49dRTa/s7GhP1aDyPsl2SOmIs5bGBEhybepo5AoA4vfDCC12nY5+9PrG8o9kSC5Z40aGyVKz+vplmmsl1dmWnrGLT2jqJg8obaXad8P0MuHGNSHWNtLoeRZnEJvC7OPLII2v7ousTs8HsySkrEpvD6p6nM04fjQg0Jy8uMZhNf9w4aBhF2r47D7EJWdjKvMUmpP3cRdhGn8RmWjuUhR1LaweytiPt2jF+LwxcNT4b8cvZu19++WVYstyUTmwar732mgsWRCNhrwUb8el488bqXnax6TsvvPCCayOXXnqpc9zffvvt8Eq5ePXVV91oH/UgwAUOUlI4K4q6szyTJSNRI+llpKxik/fP9/H444+HOT1pdf2tt94Krrnmmh5LwOppdd0Xvvnmm+Cqq64KjjrqKOeUEwwEJ7TMdJPYzJuinXF+d0S0p59khoPPwP6qG264Ifjggw/CUu2Tpu/Ok7LayjSfO0/b6JPYhLR2KCs7ltYOFG1HsPNomcMPP9zt+abePlFasdktWN0lNoUohrKKTSHikNisrk8h/EbtW1QRic2UWN0lNoUoBolN4RsSm9X1KYTfqH2LKiKxmRKru8SmEMUgsSl8Q2Kzuj6F8Bu1b1FFJDZTYnWX2BSiGCQ2hW9IbFbXpxB+o/YtqojEZkqs7hKbQhSDxKbwDYnN6voUwm/UvkUVkdhMidVdYlOIYpDYFL4hsVldn0L4jdq3qCISmymxuktsClEMEpvCNyQ2q+tTCL9R+xZVRGIzJVZ3iU0hikFiU/iGxGZ1fQrhN2rfoopIbKbE6i6xKUQxSGwK35DYrK5PIfxG7VtUEYnNlFjdJTaFKAaJTeEbEpvV9SmE36h9iyoisZkSq7vEphDFILEpfENis7o+hfAbtW9RRSQ2U2J1l9gUohgkNoVvSGxW16cQfqP2LaqIxGZKrO4Sm0IUg8Sm8A2Jzer6FMJv1L5FFZHYTInVXWJTiGKQ2BS+IbFZXZ9C+I3at6giEpspsbpLbApRDBKbwjckNqvrUwi/UfsWVURiMyVWd4lNIYpBYlP4hsRmdX0K4Tdq36KKSGymxOousSlEMUhsCt+Q2KyuTyH8Ru1bVBGJzZRY3SU2hSgGiU3hGxKb1fUphN+ofYsqIrGZEqu7xKYQxSCxKXxDYrO6PoXwG7VvUUUkNlNidZfYFKIYJDaFb0hsVtenEH6j9i2qSGqxecEFF9T+QL9+/dwfrFKyuo8//viR15WUlDqb+O3Z7zDqupJS2RK21Nr0XHPNFVnG10R9re5V9CmU/E5q30pVTPV+WhKGKzVo0KDaH1BSUlJSUlJSUlJSUlJSakxJkNhUUlJSUlJSUlJSUlJSaislYbhS2rM5rO5MEwsh8offnv0OhfAB7dmsrk8h/EbtW1SRdv00ic0GrO4Sm0IUg8Sm8A2Jzer6FMJv1L5FFZHYTInVXWJTiGKQ2BS+IbFZXZ9C+I3at6giEpspsbpLbApRDBKbwjckNqvrUwi/UfsWVURiMyVWd4lNIYpBYlP4hsRmdX0K4Tdq36KKSGymxOousSlEMUhsCt+Q2KyuTyH8Ru1bVBGJzZRY3SU2hSgGiU3hGxKb1fUphN+ofYsqIrGZEqu7xKYQxSCxKXxDYrO6PoXwG7VvUUUkNlNidZfYFKIYJDaFb0hsVtenEH6j9i2qiMRmSqzuEptCFIPEpvANic3q+hTCb9S+RRWR2EyJ1V1iU4hikNgUviGxWV2fQviN2reoIhKbKbG6S2wKUQwSm8I3JDar61OInjz77LOuHZD+/e9/h7nlRe1bVBGJzZRY3asqNv/444/gjTfeCJ555pngu+++C3NFFnz99dfBPvvsE5x44onBn3/+GeaKRiQ20/PNN98ETz31VPDcc88Fv/76a5ibH0U/v9vAllqbLlps5t2vyxkXxo8//hhMP/30ri3MPffcwbfffhteKS9q353nr7/+Cl577bXg8ccfDz744IMwVxRJacXmNttsE6ywwgpN09tvvx2W7hxW96qJTX7MiKDJJpus9g5GGmmkYI011gheeeWVsJQfXHXVVa49DRo0KMzJh4EDB9be7UUXXRTmikYkNnvPY489Fiy11FLBCCOMUHuHo446arDJJpsE7733XlgqHvqBLbfcske/e9ttt4VXW1P087uVbhGbP/30UzDttNMGm2++efD999+HuZ2lCJ/i999/79GGWqWHHnoovFN0kq222sq1g9lmmy348ssvw9xyI7HZOX755Rf3Tvv06VN7x6T+/fs7H+q///1vWDKeu+66q8dvfaONNgqvJKPo+7uVUorN3377LRh55JFrz41LLL/oNPasqolNnEGrOyJzrLHGqv177LHHDu65556wZPk56qijXL0Y4MiTbbfdtvZO//Wvf4W5ohGJzd6B8eW3y3sbbbTRggEDBgSzzjprrW8df/zxgwcffDAsHc0555xTe/eWyEtC0c/vZrpFbO64447uM8wyyyzO7uZBET4Fs+n2zCTp+uuvD+8UneKGG25w73rGGWcMPv300zC3/EhsdgZWgs0777y1d9u3b99goYUWCiaaaKJa3gYbbNB0lRhilcE1K0+adNJJw6utKfr+bqaUYpPlVjxvvvnmc8+PSyzB6DRW9yqJzZtvvtnVecQRRwxOPfXU2rK3J598MlhwwQXdNcTnCy+84PLLTlFik6WFBxxwQHDKKae4GRwRjcRm+yDiTOhtt912PWYN3n333WDNNdd01xB8zZYh0c8OHjzYJfsekoi9op/f7XSD2Lz33nvdjDP9/KOPPhrmdh7qa3XPy6egfx0yZEiPtNNOO7nPMM888wx3zSfx043guy2xxBLBIoss4t0yyCLadxVYfvnl3Tudaqqp3G/U4Ld9ySWXBBNMMIG7vvfee4dXhofftdkTG8hsR+wVfX83U0qxyYg4z9t1113DnOKwuldJbDI6RJ233377MOdvfv7552DhhRcOJp544uC+++4Lc8tNUWJTJENisz1YSjTHHHO497XbbruFuT2hzLrrruvK8N8k2GqHVmKv6OeXgaLFJs7+NNNM457fzDnrBN3ijJuzx1I2IbJCYjN7bBYcv5MYIlEwGcIKGgbPkkyEvPnmm+5v9lbsFX1/t1FKsYnI5HkXXHBBmFMcVvcqiU2bvbzsssvCnJ589tlnwYcffhj+q/xIbHY3EpvtwSAQ74plRs2C8fA7HnPMMd3sVpL970nFXtHPLwNFi00GEnk2SxhZ2pUnEpvCZyQ2s4dZcN7n6aefHuZEw8AZ5bbYYoswJx6JzWwppdhcfPHF3fOINFU0Vvcqic0VV1wxs+/79ddfD0444QQXgILgQjg55513Xo+oc6+++qrbI0N0sXpYckB+/RIvIieee+65LrgOS/EYmPi///u/8Grv6I3YJKomn+2tt94Kc+L54YcfXNk777wzzBkGe6TIjwt4wjN23333YPXVV3dLEX0IjNIbJDbbY4899nDv6uijjw5z4iH4DmUJBtaKpGKv6OeXgSLF5t133+2ei8hvtWe2E5RJbGbRz0eB/bv88suDnXfe2dkxEvtnL730Urc3LY6sPg9tgGsEiIKhQ4cGV1xxRbDDDjs4O73LLrvEtkts+qGHHhqsv/76wWabbeYC67UTXCqNTwAs/+Za/TMJRLbffvsF6623XrDpppsGxx13nBvMKgKJzWxhuxGzleOMM07LSOYEneO9jzfeeO4khWZIbGZLKcUmDYXGxZLNorG6V0lsMnpEndl43dsZTAwmhqg+CmV9GmOMMZyRYjmdiT0MRD2syyd/nXXWcf8miA4dTv3fsbTYYosFX331lSvXLr0Rm4hA7jnzzDPDnHgwnJSdaaaZwpxhIKbJn2KKKcKcv7nwwgtre97qE5E9ua9KSGy2x6KLLureVZLBOluexIBGK5KKvaKfXwaKEpsIkKmnnto9t6htKmUSm1n08/UQvOTwww93QfbsHTSm0Ucf3Ym9qCNpsvo8c801l7uGw/uf//wnmHLKKWvPr09sqbHAUUT0RYxG2XR8Bf5OM7LwCcCCxLz44ovBJ598UtvL15h4j+zlyxuJzWyxwbGVVlopzGnO7LPP7spzXF8zJDazpXRik+VUPAuDSMTT0047LTj++OPdks6PPvooLJUfVvcqiU1E/nTTTefqPfPMM7d9xAwBQFiexf0EEmLkEqeS0UdGWRkVZYkd1wl9nkRsHnHEEe7/CeZw5ZVXuh8qR7AwOowx5dr888/fq0A73SY233nnnWCUUUZx7+7ss88OXn755eCWW25xgprySZaI+ITEZntgvHhXCItW8FulLGfdtSKp2Cv6+WWgKLFpxy0REdFmtfKmqmLziy++qA3EIKyYybz11luD559/Pnj66addYD6+HxOi/J3Gwd6sxSbHfiHKxh13XBesjtUzOPf777+/y6cMZ0EjAFdZZRX37+WWW87NgjIrjv3F7pJPsC/qGEVWPgGY2Lz99ttdsBj26bF8khVQzGw9/PDDThTbYC3vOE8kNrPFfqd77bVXmNMc/CPK0zabIbGZLaUTmzfeeGPteY2JETGWSNQvt+g09uwqiU3AUCGCqDtGBLGTBAJPcGYW9xFIKG6AAEeH84UoZ6OqcWKTTeH8l04kKqw1yyzMkF188cVhbnK6TWwSnZb8xv0JGHzEZzfM+OeJxGZyGGxhVQgOXRL4PVEex7IVScRe0c8vC0WITZx6nocdZSlibwbmsqCKYpN2vvTSS7vrHNfQbMXQ+++/X+vzsKH0+0bWYpPfKdd5ZiOcB0gZfpsHHXSQ+52ef/754dW/YcZz2WWXdWX33XffMPdvsvQJwMQmfgEiGaEexVlnneXKMbCSZ1uX2MwW6ytPOumkMKc5Vp5JqmZIbGZL6cQmI1wYQzoU9jMce+yxwcEHH+w6M1t+wWxbb5dMtovVvWpiEzCI9ecaMbLUah08o6OU5dy2ViPnGFE7AoEUJzZJbBBv9myW2FKO/abt0m1ik98A+YzcConNdsCx4z1NNtlkYU5rJpxwQncPTmMzkoi9op9fFswhIuUhNumLbfksDjqDc4gHZtiIkcAMV72o6SRVFJvHHHOMu8bKnCQzygwoMsPHzF89WYtNVtBQLg5mMSlHiossDSyhpQxRqBvJ0ieAep+k2f5Y/padadj4HjuJxGa2WNAfYnUk4YwzznDlGSBphsRmtpRObDKaFjfqR2hjG/FKsscnC6zuVRSbwIbsrbfeuvYellxyydiZZaIaMlJKuUceeSTMbY5FpOSeZmKTJdXNYHaTcu04uUa3ic2rr77a5a+66qq5OYDdjMRmctgXxXtCWCSF3wz3tFr2mkTsFf38spC32GTGyZ5Hos9hb1P93kH257US/FlQNbE5dOhQN6CCuCfATxqyFpvsoWyGDXzy2T///PMwd3jwEyg36qijhjnDyNonABObbCtpBQKZskmFShZIbGaLnU6RdNUa3zXlWy27ldjMltKJzVY8++yztbX4iM9OY3Wvqtg0+AGPPPLI7l3MOeecTtw1QlRYu94OG264obsvTmwmFZAYNYxiu0tmuk1s4pzYiOzKK6/s3aHX7SKxmRwiNEa1qWZY0K1WR2AkEXtFP78s5Ck2P/74YycCeNbcc8/dw27S17Dc0Pbn0a91mqqJTQtwwgxyWrIWm60C6PAcykXNWDZiorI+SmzWPgGY2EzSD7D0krJ5tjOJzWzZc8893btMehSibUMiOnEzJDazxTuxCbbM4rDDDgtzOofVvepiE+64446aU8L+k8ZZN4tiS5CDdjj11FPdfXFic5FFFglzmjPJJJO48kmWKdXTbWITCH5kQZpY6nbggQe6JYpVRGIzOcxM8Z6YSUkCe8kozwBeq1n0JGKv6OeXBWwpdSF1WmyyDYXnsG8urg9BFLBNhcG6qOMmsqRqYtOcXwLtpCVrsfnQQw+FOdEQFZ1yHFHSClsOXz8DmrVPACY2WQXXin/+85+ubBbvPikSm9nCcljeJctjk3DIIYe48gSVbIbEZrZ4KTbZ+MvnYfSr01jdJTaHQaAg2ztLNLl62F9LPpHs2sEMWpzYZHYvCZNPPrkrHxUyvhm9EZss0eCeJB3gSy+95MrOOuusYc4wmolNwDHESBJtj3L9+vXLde9JtyCx2R4E9OI32mp/NbBkjffKb6cVScVe0c8vA3mKTWaleE6rc3oRFJRLcj5qGsokNrPo5znqJKu6ZvF5wMQmkc6bYbEQ2ErTCo4/oSx2zcjaJwATm0888USYEw8BjSjL2b95IbGZLZxIwbtkSXcSiERM+ahgVvVIbGaLl2LTGt9aa60V5nQOq7vE5t9svPHG7p1w5mM91rFzvR2OPPJId1+c2Ez6PSPaKP9tm9GKeyM2bbaAw6lbQbQ8ymIk62klNg0iBfIOKMseKw7FrhISm+0xYMAA967eeOONMCcejgWgLAG4WpFU7BX9/DKQl9hkSwGzxoj/oUOHhrnREOmaz9Nu/90uZRKbWfTzthSVgD9pyeLzgIlNHN5mmNjkmJZWRInNrH0CMLHJkTGtYOklZZkRzguJzWzhSCDeZdI2RBAuyt93331hTjQSm9lSGrHJcipGwpMERLGlJHl0IFZ3ic2/uemmm9w7aVwqZ8aNH087gSbsUOY4sck5m0nIU2yaA0GktFbYnp3GGdqkYtNgDwLlOf6nSkhstgdOLe+Ks4lbYW0qyTKzpGKv6OeXgbzEJgITocl++1a2lQAcfB4CBXWSMonNLPp5zn0kn+CG+DlpyOLzQLtik5MBWhElNrP2CcDE5osvvhjmxCOxWX4YbOddsq2oFawGY3CN1GqFm8RmtpRGbNLh8wz2NzSDztqCp3CwcKexuldFbHJQ82qrrdb0LEeW0vJOCKFfD84Mh7Nz7aKLLgpzm8O+EvYJcU+ZxCbRcbknyX5SC1LQ6CC0KzbpSHEckxyA7xMSm+1x7bXXunfVuPKgEQb3pplmGleW330rkoq9op9fBvISm2DbC1544YUwJxqL+tjuksd2KZPYzKKfZ3bZougnGYAxogLdZfF5IC+xmbVPABKb1YNjc3if999/f5gTjX3fxBRphcRmtpRGbA4aNMg9g0bVbK+PdaATTDCBC7fdaazuVRCbvHcT8jvttFOYOzzMrFEmyplkAIBrRJjEaDSDQD5EqbN3XCaxSeRMOzaAA9LjQCCas9d4Jlic2LRZ/kbsWAmJzfJAH9UsOnKr662CXUVdp2326dPHvS+CesVhwTOSRopMKvaKfn4ZyFNsbr/99u45zWYsiXhtUYGZieskZRKbWfTzYLPGvONW+ySBMgzEEGCnnqw+T15iE7L0CUBiMz+aTToYv/32W1Of3UgSuDHOHprfz3E3cc+izVtQRVbftUJiM1tKIzYJl23nrRH4h4ZTDyNkhGhnepwyrTb/ZoXVvQpiE4jwxuwZdWaEu/GHbftlSYMHDw5ze8LZXVxnmS2zoFE888wzLnABz7I19mUSm2AHdRMQJcqgs/xjoYUWcmUIe9+4jC1ObG677bYuWEd9CHk6YCL69eZzlp2yik1mMTg0vW/fvi66cCPNrmOY55tvPlfnqMPUW103R5rVB1HiAWPMs/n9NXNa62lH7BX9/G4nT7GJg29RxFmu3Lic8a233nKRarmeh50rk9iEtP28YXaR3wQCLMqp5l76BYvsGvXbzuLz5Ck2ISufACQ2O8+XX37pJn74Lpqd+kCQSPoWvvu4owhpf+uvv757H8stt1zscupm9hDRaxMhTHY0TjSxZHaZZZZx1zkLPu43WI/EZraURmwCzzKjyBfAsh7EDY3dOkcS0abywp5ZFbEJJ598cq3e/fv3D3bZZRfXWWMILL/ZdzB06NBg8803r5Xl8HCW8jB7zREeGEDyOfuNpTUm9ooWm61So8FCiK+yyiq16xhIhCLl2CdDx0n+VFNNFWnUo8QmneYMM8zg8jnKhcAMHMhuQVdwMN55552wdDUoq9i074zEd9hIs+sWFMFS46hwq+sYWwvkhcOw9tpru76U37ZtWSCdeOKJ4R2taUfsFf38bidPsQn0s3wPPG/qqad2/Td9Md+LncHJTFqUUMiasonNtP28gZNtkTJJfA+sICLYD78D/p88rvFd8fejBGkWnydvsZmVTwASm53HogGT+E7ixBszjVaONhgFg1lWhvTII4+EV3rSyl4+9dRTtdUXtG3azXnnnefakbU9Vn0l7cPSir2i7+82SiU2gdGRemFZn+iIk677zwp7dpXEJlxzzTW1kaT6xMHNGIAkI0fs3aoXqJaYnV5ppZVcaHYoq9gEnAFGmhmNayzPkSU4yBzvEEWU2ATOKcNRt1l8S5yXRodbNcoqNnHQ7HNHjeY3u/7ee+/VDknHmWyk1XWgbRLVkXNa7TmWaK/8PtuhXbFX9PO7mbzFJtx+++2RfTrBg5gt+Oabb8KSnaVsYhPS9PONMBuJuLJ9ifUJx56YCa2WMqf9PHmLTSOtTwASm52H/d02aNFs7z2r36yul156aZjbE2YhObaNMhNPPLHbDhRFK3sJfOcLLLBArZwlBmfWW289NyObFInNbCmd2DQ4T5D9ChzMeu6557rPQQebN1b3qolNYO8gy2r5Hjh77aqrrortKJrBUR0suWWZBH/viy++CK/4A6PNnPt14403uvfERvbevKt6cBbodHlvOB9pIxmWlbKKTb4vvr/HH388zOlJq+uMCDPoU7+cup5W1w1EBG0SBw7njfMWmWnIi6Kf340UITYBG8qRAPTpnIHIcs48ZjPrKbMznmU//9VXXznhyXdw3XXXuT6+3TOiO2F38sBnn8AHsQksZaVdNtu3yaQD/flDDz0U5kTD94ut+uijj8Kc4WllD+uhDLPinGGLPsAWimIprdjsFqzuVRSbQnQDZRWbQsRRlNjsBqruUwi/UfsWVURiMyVWd4lNIYpBYlP4hsRmdX0K4Tdq36KKSGymxOousSlEMUhsCt+Q2KyuTyH8Ru1bVBGJzZRY3SU2hSgGiU3hGxKb1fUphN+ofYsqIrGZEqu7xKYQxSCxKXxDYrO6PoXwG7VvUUUkNlNidZfYFKIYJDaFb0hsVtenEH6j9i2qiMRmSqzuEptCFIPEpvANic3q+hTCb9S+RRWR2EyJ1V1iU4hikNgUviGxWV2fQviN2reoIhKbKbG6S2wKUQwSm8I3JDar61MIv1H7FlVEYjMlVneJTSGKQWJT+IbEZnV9CuE3at+iikhspsTqLrEpRDFIbArfkNisrk8h/EbtW1QRic2UWN0lNoUoBolN4RsSm9X1KYTfqH2LKiKxmRKru8SmEMUgsSl8Q2Kzuj6F8Bu1b1FFJDZTYnWX2BSiGCQ2hW9IbFbXpxB+o/YtqojEZkqs7hKbQhSDxKbwDYnN6voUwm/UvkUVkdhMidVdYlOIYpDYFL4hsVldn0L4jdq3qCISmymxuktsClEMEpvCNyQ2q+tTCL9R+xZVRGIzJVZ3iU0hikFiU/iGxGZ1fQrhN2rfoopIbKbE6i6xKUQxSGwK35DYrK5PIfxG7VtUEYnNlFjdJTaFKAaJTeEbEpvV9SmE36h9iyqSWmwOGjSo9geUlJSUlJSUlJSUlJSUlBpTEiQ2lZSUlJSUlJSUlJSUlNpKSRiu1AUXXFD7A/369XNTpVVKVvfxxx8/8rqSklJnE789+x1GXVdSKlvCllqbnmuuuSLL+Jqor9W9ij6Fkt9J7VupiqneT0vCcKW0Z3NY3XmZQoj84bdnv0MhfEB7NqvrUwi/UfsWVaRdP01iswGru8SmEMUgsSl8Q2Kzuj6F8Bu1b1FFJDZTYnWX2BSiGCQ2hW9IbFbXpxB+o/YtqojEZkqs7hKbQhSDxKbwDYnN6voUwm/UvkUVkdhMidVdYlOIYpDYFL4hsVldn0L4jdq3qCISmymxuktsClEMEpvCNyQ2q+tTCL9R+xZVRGIzJVZ3iU0hikFiU/iGxGZ1fQrhN2rfoopIbKbE6i6xKUQxSGwK35DYrK5PIfxG7VtUEYnNlFjdJTaFKAaJTeEbEpvV9SmE36h9iyoisZkSq7vEphDFILEpfENis7o+hfAbtW9RRSQ2U2J1l9gUohgkNoVvSGxW16cQfqP2LaqIxGZKrO4Sm0IUg8Sm8A2Jzer6FMJv1L5FFZHYTInVvYpi8+uvvw722Wef4MQTTwz+/PPPMFeIfJHYzI6//voreO2114LHH388+OCDD8Lc5KS9XwyjSLH5008/BS+//HLw3HPPBd99912Ymx9yxvPltttuC3bccUf3mxWdR+1bVJFSic31118/WGGFFRKnNdZYI/j555/DuzuD1b2MYnOrrbbq8b5WWmmlYNVVVw3WWWcdd+2www5raoAGDhxYq/9FF10U5ubPtdde2ytD+dJLL7l677rrrmGOKCMSm+n55ZdfXP/dp0+f2rsk9e/f3/22//vf/4Ylo0l7P9x11109+qONNtoovJKMtPd3E7xLe4d5ic3nn38+WHPNNYNRRhml9uwRRxwxWHHFFXMVInLGe/LGG2+49rz55puHOdnxxRdfBKOOOqp715NMMkmi36lIh9p3ZynajsiORVMqsTnRRBPVnpUk7bbbbuGdncOeVUaxOf300/d4X3FpoYUWCj766KPwrr/Zdttta2X+9a9/hbn5c9xxxzlD+c4774Q5yXjooYfcZ5933nnDHFFGJDbTwQoFfgP2Dvv27et+8/X97QYbbBC7eiHt/YBYnXbaaWvlSZNOOml4tTVp7+828habV1xxRU10IDZnn332YM455wxGH310lzfyyCMH559/fli6s8gZ78mTTz7p3kW/fv3CnOyoF5v8XiQ2O4/ad+co2o7IjsVTKrH52GOPOYHQLDGKzmcZa6yxgs8++yy8s3NY3cssNk8++eRg8ODBtXT99dc7x2KXXXYJxhlnHFdmiimmCD799NPwzmF88803wQEHHBCccsopbvlcUSA2+Ywzzzyz+0xJob1wn8RmuZHYTMfyyy/v3t1UU00VDBkyJMwdtiT2kksuCSaYYAJ3fe+99w6v9CTt/UDfYv3POeec48q3Y2TT3t9t5Ck2n3nmmZrgYID222+/Da8EbmXQoYce6q4hOLHBnUbOeE86KTbhjjvucLb+qaeeCnNEJ1H77hxF2xHZsXhKJTaTwFJbPstBBx0U5nQWq3uZxSbGLA72XeFEUm6bbbYJc7sLE5v2PQwdOjS80hyJTT+Q2Ow9N9xwg3tvE088sVuuFwX9w2ijjeaWVL7wwgth7jDS3h/Fm2++6f5mb41s2vu7gTzFJktnec72228f5gwPWw0os/rqq4c5nUPOeE86LTZFvqh950PRdkR2rCdeiU0CGowwwgjB+OOP39YMVxqs7r6KTbjyyitdOWYounGZTb3YJG2yySbhleZIbPqBxGbvWWKJJdx7O/3008OcaJiVpNwWW2wR5gwj7f1RyEjnKzbHHXdc95xXXnklzBkeBhIoQ9lOI2e8JxKbfqH2nQ9lF4s+2LF6vBKbBLfhcxxzzDFhTuexuvssNj/88MNaPeuXWP32229uyS3R7Frx6quvBscff7xzNhkdJwDRqaee2vY+yyhMbM4000y1PUYHH3xweDWedsQmS81o35tttpkLPLXddtsFZ511VvDJJ5+EJZJDpMejjz462HDDDd3f2mGHHdyeqR9//DEsEbglTbzb9957L8wJ3J438m666Sb37z/++CO49NJLg4033tgFj3j44YddfiOdfPfdgMRm72BAjtlGlsr/+uuvYW40tEPe73jjjefaHaS9Pw4Z6fzEJn0Ky2N5zscffxzmDg/XKDPSSCN1PPK4nPGexInN33//3dmDW2+9NcxpDkugKY89r4fVBuS//vrrYc4wGLwn/6233gpz4vnhhx9c2TvvvDPMGfabJy/OLjVCv8BKCVKn21iRqH3nQ9nFog92rB5vxOajjz7qPgOBYgjdnhdWd5/FJuKIcjga9Y4i68vJZz9nHJSxpc1RCWd14MCBPURsu5jYJIouxo3Zbf594YUXhiWiSSI233777WDZZZetfd7GxDvZY489ErU5gjHYkrWoNOGEE9YCLbFkmbz6wEuIUfJYkvj9998HyyyzTI/777777rDkMPJ4992AxGbvoL3wzohCnQSCxlCegRdIe38cMtL5zmzOM8887jnNAgBdfPHFrsyss84a5nQOOeM9iROb9NvkE4grCQTpovzVV18d5gzDVh2cdNJJYc4wdt99d5d/5plnhjnxMKBJWQZ8DYIKEmyKwagkR+jwufgbSy65ZJjjJ2rf+VB2seiDHavHG7G59NJLu89w2mmnhTn5YHX3WWzuv//+rtwcc8wR5gyjldhk6RUGkjJjjz22C0LArNwDDzwQXHfddU5QWWAKHNFmI+vNqBebQMAi/s2Iff1IayOtxCYim71olGHfKjPmtHdmHW+55Ra3x2nMMcd01xdYYAEnAON4+umn3XuiLEvRdt55ZzeCyyAJf2vfffetRe/k7NJWYpMZSgz5fvvtF9x3333ub9ST17vvBiQ2e4cFINhrr73CnOYwM075yy+/3P077f1xyEjnKzavueYa9xy2STCb1QgDbgziUuaCCy4IczuHnPGelFVsAltaov52FESwpuzNN98c5viJ2nc+lF0s+mDH6vFCbN5zzz3u+QgClnbmidXdR7FJNEkMDTNglDvvvPPCK8NoJjZZVjPjjDO664ssskjsclNE0SyzzOLKLbjggm5pULs0ik2wgBYIO86Pi6KZ2MSQTznllO46BpOQ1FG8//777nNTjqicUXz11Ve1IEucWffll1+GV3rC6O/aa6/tyrHckP9GiU1LOIlR5PnuuwGJzd5hgiaJIwhWniXZ9f/u7f1xyEjnKzbBBhQZPOP/7733XjeIxeewvoiD//NAznhPyiw2GZglH/vXbPn8E0884cpNN910hUa2zwO173wou1j0wY7V44XYtBGxPEZdG7G6l1lssgyOvYjMPJAQVwgnG80msb+wMThQM7HJbAfXOKuN8PnNYHnp1FNP7cozK9kuUWITg8V+SPIRjVEzd83EJjOBXGOpaivjx4ymzSJGCUDeHddoI632ovCs+mW7cWKTMnHk+e67AYnN3mFO5rnnnhvmNOeMM85w5S3Sd9r745CRzl9sAqLCntmYDj/88LBU55Ez3pMyi02wIGKNz63HZkAHDRoU5viL2nc+lF0s+mDH6im92GRzPM9mJqdV4IlOYHUvs9hslhAiOJNRUWjjxCaiyJaXtlqia7AMlPKTTz552xFvo8QmILRY3sq1AQMGuM9VT5zYZIbRPn+Soxrgsssuc+UXW2yxMGcYHB3DzDB7O5kFTQKBe2zfaZzYJKBQFHm/+25AYrN32Ow/+/GSQD9AeVs2m/b+OGSk8xebCA0LrsYgI4ONK6+8cm0giiX7hxxySC6zTnLGe1J2scmyWK7NP//8YU5P8CNsb2ezrSi+oPadD2UXiz7YsXpKLTZxjOeaay737KuuuirMzRere5nF5pFHHukiolpdTjjhhOD22293jb0ZcWLTxAtCrx1sqWmrACKNxIlN+Pzzz93SHK6zhLV+QCJObNrnn2GGGZyhT5L4HSAoSfWilqAb/K12z6cjSAL3xYlNjHsUeb/7bkBis3fsueee7p0lXRFie6HZJwxp749DRjpfsWl9P3s2saONA070KbxLymy00UZhbueQM94T7AvvoqxikwEKbCnXH3zwwTD3bw477DB3jedVAbXvfCjajsiO9aTUYpNOk+cSuKaoGRmre5nFJsYMg7DCCiu4fzMCOXTo0LBUPHFi88QTT3T5u+22W5iTjPXWW8/d12y5TRTNxCa89tprLtIrZTiyxIgTm+wpI7+36dlnnw3/0t+G/IgjjghzksH+KO6LE5s4GlHk/e67AYnN3sFyVt4Zy1uTwMwW5a0tp70/Dhnp/MQmx1bxDIKINVvFwbEYiFHK3njjjWFuZ5Az3pOyi02wJdpEY6+HGBvMpLP6J8kRKz6g9p0PZReLPtixekorNtn71r9/f/dcRl6LwupedrEJBLKxZVOMdrciTmweeuihLh/nsh0GDhzo7msWgj+KVmITEJZEcaUc5S2PfzeKTfv8LImlTbeb6s/GtL2fZ599dpiTjAMOOMDdFyc245az5f3uuwGJzd5B5G7eGW0mCTYDZm0k7f1xyEjnJzbt+CTO/W2FzUwvtdRSYU5nkDPekzixSSA48hlITcK6667ryhONvJ44sWl7/5MMJr300kuubNzROBwNxmBFo6i85JJL3H3EV6gKat/5UHax6IMdq6e0YvOiiy5yzySKZpFY3X0Qm/D444/XjsRgH2Iz4sTm6aef7vK32mqrMCcZLHPlPo7oaIckYhOuvfZatxeSxOhunNg0J7p+FrS34MTxt9oVf5tvvrm7L0pscqRLHHm/+25AYrN32F6qjTfeOMxpjp3HSJRSSHt/HDLS+YlNm62MW5ZfD7OblOU4qE4iZ7wnFql12mmnDXOGwZYQ8scYY4wwpzmrrbaaKz9kyJAwZxhxYvPggw92+WyraQVHe1G20ZbWYxGPGYA1kvYJPqH2nQ9lF4s+2LF6Sik2WeLJKB/P5NiTIrG6+yI2gVk48gk002xpVZzYNBHHXsmky5sJ5jP++OO7+5IG0jGSik3AcFKWWU67r9FA2udvPFe0FVGzjRwhwN+KC44QBX/Hjl2JEpt89jjyfvfdgMRm7+C7trbSCtqe7Um2A9rT3h+HjHQ+YpN+xo61ijseqR77vpOKm94iZ7wnDz/8sHsXUUtUWULLNX5frVh00UVdWcRrPXFi05a+cr0Vd999tytLUKk4PvroIxcIaKyxxnJLgM1WEXejSqh950PZxaIPdqyeUopNC6Hf6eU8SbC6+yQ2wUKRE+U3LkJcnNhkiTN5XBs8eHCY2xwzbO0GtoF2xCbYfkhztBrFJiPG9vkfeeSRMLc57H1iWTfRkevhXUwzzTTub/373/8Oc5tjs/akdsVm3u++G5DY7D12zur9998f5kRDECDKLb300mHOMNLeH4WMdH4zm9Y33XHHHWFOPCy/pGy7g3DtIme8JxZxP6p/ZqsH1+66664wJxoG6JnFZlVPoz2PE5t2fjlnNbeCeynbSpiyCoJyxEWwZb1Jo1n7gtp3PpRdLPpgx+opndhkFmayySZzz3v00UfD3OKwuvsmNtljMdtss7nra621VpjbkzixCXbMAZv/GdFsxosvvlg7roMouO3SrthEkK266qruHlLU0p+zzjrLXeMdtBo1fvfdd2ttMip4Bs4CRp69NRxy3Qyi9THya5+NPS1GErEJeb77bqCMYvOXX35JNPPM77AVDI60Cuj166+/Rs68m5OI0xp3dBTtziI6Ny6zTnt/FDLS+YnNPfbYwz2DQYC4feBAIBfO7aVs0j26vaWKzjjnHfMbjeKoo45y7yLKvhFJnmtEL2/2/dl+24UXXjjM+Zs4sUkfReAorrFCJw5+3xybRbk777wzzI0G+0c5bBOrHPr06ePaVpXwqX23Oscb+H7jbEM9SWxdnB2Louxi0Qc7Vk/pxKZFCmX/QTdgdfdNbAJRXDn7ijJEOW2kmdjEkbY9IhiiKCNEp8HeyfHGG8+Vq9/L0Q7tik2gY0Nkcl+U2OSzLbvssrXrb7zxRnilJwg0OzaEfZZxWHh3zrIj+A8dST28a4w+y4xwzG0P5eWXXx6WSC4283z33UDZxCb7anG02ArAQEUUGGibtdhiiy3C3OFhiR1LoBmgiJs5Z+817apv377BK6+8EuYOA2eBvWA8Z9NNNx3O4WXJqwWRwaFtFMhp749CRjo/sfnxxx/X+gD6L/qYRr755ptglVVWqb1TAsl1kiqKTWzNzDPPPNwKAb4ffre8i1NPPTXM/Ru+G74TrjNr2BilnH6ewUf6G8qw3LWROLEJxxxzjLtGHxNlR1havdBCC7kyiy++eKLf9xJLLOHKkzo9cNGN+NC+v/zyS7eqhUF0fJs4brjhBufzsNw7zs+kzay//vrufSy33HLB77//Hl7pSTM7FkXRdkR2rCelEpss/2B2iAb+/PPPh7nFYnX3UWyCLZ0iKM0DDzwQ5g6jmdgEBF39DCKR6rbddlsXLGfrrbeuLeEiEYyHGcfe0BuxCXx+PkOU2AQcZQwof5tOjoh5xx57rBML++yzj1tOZp8fQx/XSRoIRxspJuHkITjGHXfcWh6O+QcffBBsttlm7t901kZSsQl5vftuoGxi0/bjknDmorAlbJZwOqNA4FkZDHUUAwYMqJXZd999w9y/YbbBBpUYODnwwAOD8847zzmhtieMvoLfSxRp729ERjo/sQmsvLCgcCy1ZHCDwGb0dfRD1j/x36hzErOmamKTs6DZrmJ1ZpYZ4UeAHtowefQZcTM/LKG11TD8DlmeSiTZLbfcsna+JYnfZRTNxCYzUjbQQCKgD3aEY1HYn4ldJJ/fPb+7JLC6gXtoc0n7BJ/woX1feOGFtTrwPcYNMtiAKYl2EwXRia0MKW7rUis71kjRdkR2rCelEpscOM1zNtxwwzCneKzuvopNsKVWLBWtDyTRSmwCI6t0TPasxsTSrLQRUHsrNoERsjgnHVieyIiy7YNsTCyzbedsys8++8ydM0jAIIQnwpGZIQ5Lr5+ZspnJeoHfjtiEPN59N1A2sWnn3bFnOE5I0E5sxom9wHHLkM4555xa3VlSF8XOO+9cKxN3TBTLqdkTZuUsMbDHGayMZDcj7f31yEjnKzaBYC1zzz137ZmNCQHEd5wHVRObQN++5557ur69/r2TsDFxK2sMBt85J5vfW+P9zJjWr5BppJnYBOwIg2I2w1qf+LzEd6C/Soot6WUgo4r40L4JHGkDDc1ip1gEYtKll14a5vaE1TAW8JNI119//XV4pSdJ7Fg9ZReLPtixekolNoEQ2++88074r+KxupdRbOYN4fU5LoFOh/DrcUsIuxU6WILu8Pnp7N5+++3wSvbYiHRWI79lf/fNKJvYZAacvb3PPvtsmBMN57Vec801scbXoA9uFuCFWWvaK8catYIygwYNCg4//HC3/K7dg9bT3i+GkbfYNOjjOAfVZjYJUJa3va2i2DT4rfObR9wxyMmy1yRLUw326HMP4pIZ62bR5I1WYtNgwItItvRdDPyz5LdV39QIwtWW3ePLVRFf2jcD9ax8a7Zvk7ZL8EQGs5rBnmXafbMYE+3YMdF9lE5sdhtWd4lNEQXONntamBlIuteJwFe0KUa0RWvKJjaFaEVRYrMbqLpPkTdJxWYW2BJalldWFbVvUUUkNlNidZfYFHGsueaaro0QBCIqAEc9H374YS1yJ0egiNZIbArfkNisrk+RNzvssIN716xI6DQWHKg+FkHVUPsWVURiMyVWd4lNEQf71WzpEPvvrrzyyuGWnrCM5LTTTnMBOii3+uqrt7V8qspIbArfkNisrk+RB0SxZUkrdojgcbxr7FInYdsAz2F/XpkD0qVF7VtUEYnNlFjdJTZFMwisZEepkNhcTwQ/ItoSeIlgMeQT4IGR5qqdPZYGiU3hGxKb1fUp8oDAYkT2t0jDRBStD/7XCYhyzLNOPvnkMKeaqH2LKiKxmRKru8SmSAIb5XfaaScXCRZjz/lnhKsnrDfRCPOK+OgTEpvCNyQ2q+tT5AF2iOjRY445plt10+llrcxkEk104MCBw50FWjXUvkUVkdhMidVdYlOIYpDYFL4hsVldn0L4jdq3qCISmymxuktsClEMEpvCNyQ2q+tTCL9R+xZVRGIzJVZ3iU0hikFiU/iGxGZ1fQrhN2rfoopIbKbE6i6xKUQxSGwK35DYrK5PIfxG7VtUEYnNlFjdJTaFKAaJTeEbEpvV9SmE36h9iyoisZkSq7vEphDFILEpfENis7o+hfAbtW9RRSQ2U2J1l9gUohgkNoVvSGxW16cQfqP2LaqIxGZKrO4Sm0IUg8Sm8A2Jzer6FMJv1L5FFZHYTInVXWJTiGKQ2BS+IbFZXZ9C+I3at6giEpspsbpLbApRDBKbwjckNqvrUwi/UfsWVURiMyVWd4lNIYpBYlP4hsRmdX0K4Tdq36KKSGymxOousSlEMUhsCt+Q2KyuTyH8Ru1bVBGJzZRY3SU2hSgGiU3hGxKb1fUphN+ofYsqIrGZEqu7xKYQxSCxKXxDYrO6PoXwG7VvUUVSi82rr7669gf4Y/x4qpSs7v369Yu8rqSk1NnEb89+h1HXlZTKluoN8xZbbBFZxtdEfa3uVfQplPxOat9KVUz1floShis1aNCg2h9QUlJSUlJSUlJSUlJSUmpMSZDYVFJSUlJSUlJSUlJSUmorJWG4Us8//7xbFkBCeLIevUrJ6r7//vtHXldSUups4rdnv8Oo60pKZUvYUmvTbFWJKuNror5W9yr6FEp+J7VvpSqmej8tCckkqRBCCCGEEEII0QYSm0IIIYQQQgghMkdiUwghhBBCCCFE5khsCiGEEEIIIYTIHIlNIYQQQgghhBCZI7EphBBCCCGEECJzJDaFEEIIIYQQQmSOxKYQQgghhBBCiIwJgv8PXQGz2r4VdFsAAAAASUVORK5CYII=;" vertex="1" parent="1">
          <mxGeometry x="110" y="-930" width="516.88" height="140" as="geometry" />
        </mxCell>
        <mxCell id="U0oo0eQeayt1dE6isxFw-14" value="&lt;font style=&quot;font-size: 20px;&quot;&gt;&lt;b&gt;Paso 1: llega&amp;nbsp;&lt;/b&gt;&lt;/font&gt;&lt;span style=&quot;font-size: 18px; text-align: center;&quot;&gt;&lt;b&gt;Buenos Aires&lt;/b&gt;&lt;/span&gt;" style="text;html=1;align=left;verticalAlign=middle;whiteSpace=wrap;rounded=0;" vertex="1" parent="1">
          <mxGeometry x="40" y="-440" width="280" height="40" as="geometry" />
        </mxCell>
        <mxCell id="U0oo0eQeayt1dE6isxFw-15" style="edgeStyle=orthogonalEdgeStyle;rounded=0;orthogonalLoop=1;jettySize=auto;html=1;entryX=0;entryY=0.5;entryDx=0;entryDy=0;endSize=12;startSize=12;endArrow=blockThin;endFill=1;" edge="1" parent="1" source="U0oo0eQeayt1dE6isxFw-16" target="U0oo0eQeayt1dE6isxFw-17">
          <mxGeometry relative="1" as="geometry" />
        </mxCell>
        <mxCell id="U0oo0eQeayt1dE6isxFw-16" value="&lt;b style=&quot;font-size: 16px;&quot;&gt;Dirección&lt;/b&gt;" style="rounded=0;whiteSpace=wrap;html=1;" vertex="1" parent="1">
          <mxGeometry x="40" y="-280" width="120" height="40" as="geometry" />
        </mxCell>
        <mxCell id="U0oo0eQeayt1dE6isxFw-17" value="&lt;br&gt;&lt;span style=&quot;forced-color-adjust: none; color: rgb(0, 0, 0); font-family: Helvetica; font-size: 18px; font-style: normal; font-variant-ligatures: normal; font-variant-caps: normal; letter-spacing: normal; orphans: 2; text-align: center; text-indent: 0px; text-transform: none; widows: 2; word-spacing: 0px; -webkit-text-stroke-width: 0px; white-space: normal; background-color: rgb(251, 251, 251); text-decoration-thickness: initial; text-decoration-style: initial; text-decoration-color: initial;&quot;&gt;Buenos Aires&lt;/span&gt;&lt;div&gt;&lt;br/&gt;&lt;/div&gt;" style="rounded=0;whiteSpace=wrap;html=1;" vertex="1" parent="1">
          <mxGeometry x="320" y="-280" width="200" height="40" as="geometry" />
        </mxCell>
        <mxCell id="U0oo0eQeayt1dE6isxFw-18" value="&lt;font style=&quot;font-size: 14px;&quot;&gt;&lt;b&gt;0&lt;/b&gt;&lt;/font&gt;" style="rounded=0;whiteSpace=wrap;html=1;fillColor=#B3B3B3;" vertex="1" parent="1">
          <mxGeometry x="40" y="-300" width="20" height="20" as="geometry" />
        </mxCell>
        <mxCell id="U0oo0eQeayt1dE6isxFw-19" value="&lt;font style=&quot;font-size: 14px;&quot;&gt;&lt;b&gt;0&lt;/b&gt;&lt;/font&gt;" style="rounded=0;whiteSpace=wrap;html=1;fillColor=#B3B3B3;" vertex="1" parent="1">
          <mxGeometry x="320" y="-300" width="20" height="20" as="geometry" />
        </mxCell>
        <mxCell id="U0oo0eQeayt1dE6isxFw-20" value="&lt;span style=&quot;background-color: initial; font-size: 16px;&quot;&gt;- Se&amp;nbsp;&lt;/span&gt;&lt;span style=&quot;font-size: 16px;&quot;&gt;aplica&amp;nbsp;&lt;/span&gt;&lt;span style=&quot;background-color: initial; font-size: 16px;&quot;&gt;la funcion de hash y se toman 0 bits&lt;/span&gt;&lt;br&gt;&lt;span style=&quot;font-size: 16px; background-color: initial;&quot;&gt;- Buenos Aires pasa directamente al unico nodo disponible&lt;/span&gt;" style="text;html=1;align=left;verticalAlign=middle;whiteSpace=wrap;rounded=0;" vertex="1" parent="1">
          <mxGeometry x="560" y="-320" width="400" height="80" as="geometry" />
        </mxCell>
        <mxCell id="U0oo0eQeayt1dE6isxFw-21" value="" style="group" connectable="0" vertex="1" parent="1">
          <mxGeometry x="80" y="-400" width="280" height="40" as="geometry" />
        </mxCell>
        <mxCell id="U0oo0eQeayt1dE6isxFw-23" value="&lt;b&gt;...1001&lt;/b&gt;" style="rounded=0;whiteSpace=wrap;html=1;align=center;fontSize=18;" vertex="1" parent="U0oo0eQeayt1dE6isxFw-21">
          <mxGeometry x="160" width="120" height="40" as="geometry" />
        </mxCell>
        <mxCell id="U0oo0eQeayt1dE6isxFw-24" value="&lt;b&gt;Buenos Aires&lt;/b&gt;" style="rounded=0;whiteSpace=wrap;html=1;align=center;fontSize=18;" vertex="1" parent="U0oo0eQeayt1dE6isxFw-21">
          <mxGeometry width="160" height="40" as="geometry" />
        </mxCell>
        <mxCell id="U0oo0eQeayt1dE6isxFw-25" value="" style="endArrow=none;html=1;rounded=0;" edge="1" parent="1">
          <mxGeometry width="50" height="50" relative="1" as="geometry">
            <mxPoint y="-160" as="sourcePoint" />
            <mxPoint x="1000" y="-160" as="targetPoint" />
          </mxGeometry>
        </mxCell>
        <mxCell id="U0oo0eQeayt1dE6isxFw-22" value="1" style="rounded=0;whiteSpace=wrap;html=1;align=center;fontSize=18;" vertex="1" parent="1">
          <mxGeometry x="40" y="-400" width="40" height="40" as="geometry" />
        </mxCell>
        <mxCell id="U0oo0eQeayt1dE6isxFw-27" value="&lt;font style=&quot;font-size: 20px;&quot;&gt;&lt;font style=&quot;font-size: 20px;&quot;&gt;&lt;b style=&quot;&quot;&gt;Paso 2: llega&amp;nbsp;&lt;/b&gt;&lt;/font&gt;&lt;b style=&quot;text-align: center;&quot;&gt;San Juan&lt;/b&gt;&lt;/font&gt;" style="text;html=1;align=left;verticalAlign=middle;whiteSpace=wrap;rounded=0;" vertex="1" parent="1">
          <mxGeometry x="40" y="-120" width="280" height="40" as="geometry" />
        </mxCell>
        <mxCell id="U0oo0eQeayt1dE6isxFw-28" style="edgeStyle=orthogonalEdgeStyle;rounded=0;orthogonalLoop=1;jettySize=auto;html=1;entryX=0;entryY=0.5;entryDx=0;entryDy=0;endSize=12;startSize=12;endArrow=blockThin;endFill=1;" edge="1" parent="1" source="U0oo0eQeayt1dE6isxFw-29" target="U0oo0eQeayt1dE6isxFw-30">
          <mxGeometry relative="1" as="geometry" />
        </mxCell>
        <mxCell id="U0oo0eQeayt1dE6isxFw-29" value="&lt;b style=&quot;font-size: 16px;&quot;&gt;Dirección&lt;/b&gt;" style="rounded=0;whiteSpace=wrap;html=1;" vertex="1" parent="1">
          <mxGeometry x="40" y="40" width="120" height="40" as="geometry" />
        </mxCell>
        <mxCell id="U0oo0eQeayt1dE6isxFw-30" value="&lt;span style=&quot;forced-color-adjust: none; color: rgb(0, 0, 0); font-family: Helvetica; font-style: normal; font-variant-ligatures: normal; font-variant-caps: normal; letter-spacing: normal; orphans: 2; text-align: center; text-indent: 0px; text-transform: none; widows: 2; word-spacing: 0px; -webkit-text-stroke-width: 0px; white-space: normal; background-color: rgb(251, 251, 251); text-decoration-thickness: initial; text-decoration-style: initial; text-decoration-color: initial;&quot;&gt;&lt;font style=&quot;font-size: 17px;&quot;&gt;Buenos Aires | San Juan&lt;/font&gt;&lt;/span&gt;" style="rounded=0;whiteSpace=wrap;html=1;" vertex="1" parent="1">
          <mxGeometry x="320" y="40" width="200" height="40" as="geometry" />
        </mxCell>
        <mxCell id="U0oo0eQeayt1dE6isxFw-31" value="&lt;font style=&quot;font-size: 14px;&quot;&gt;&lt;b&gt;0&lt;/b&gt;&lt;/font&gt;" style="rounded=0;whiteSpace=wrap;html=1;fillColor=#B3B3B3;" vertex="1" parent="1">
          <mxGeometry x="40" y="20" width="20" height="20" as="geometry" />
        </mxCell>
        <mxCell id="U0oo0eQeayt1dE6isxFw-32" value="&lt;font style=&quot;font-size: 14px;&quot;&gt;&lt;b&gt;0&lt;/b&gt;&lt;/font&gt;" style="rounded=0;whiteSpace=wrap;html=1;fillColor=#B3B3B3;" vertex="1" parent="1">
          <mxGeometry x="320" y="20" width="20" height="20" as="geometry" />
        </mxCell>
        <mxCell id="U0oo0eQeayt1dE6isxFw-33" value="&lt;span style=&quot;background-color: initial; font-size: 16px;&quot;&gt;- Se&amp;nbsp;&lt;/span&gt;&lt;span style=&quot;font-size: 16px;&quot;&gt;aplica&amp;nbsp;&lt;/span&gt;&lt;span style=&quot;background-color: initial; font-size: 16px;&quot;&gt;la funcion de hash y se toman 0 bits&lt;/span&gt;&lt;div&gt;&lt;span style=&quot;font-size: 16px; background-color: initial;&quot;&gt;- San Juan pasa directamente al unico nodo disponible&lt;/span&gt;&lt;/div&gt;&lt;div&gt;&lt;span style=&quot;font-size: 16px;&quot;&gt;- Se produce una colision&lt;/span&gt;&lt;span style=&quot;font-size: 16px; background-color: initial;&quot;&gt;&lt;br&gt;&lt;/span&gt;&lt;/div&gt;&lt;div&gt;&lt;div&gt;&lt;span style=&quot;font-size: 16px;&quot;&gt;- Como hay espacio se inserta normalmente&lt;br&gt;&lt;/span&gt;&lt;/div&gt;&lt;/div&gt;&lt;div&gt;&lt;span style=&quot;font-size: 16px;&quot;&gt;&lt;br&gt;&lt;/span&gt;&lt;/div&gt;" style="text;html=1;align=left;verticalAlign=middle;whiteSpace=wrap;rounded=0;" vertex="1" parent="1">
          <mxGeometry x="560" width="400" height="120" as="geometry" />
        </mxCell>
        <mxCell id="U0oo0eQeayt1dE6isxFw-34" value="" style="group" connectable="0" vertex="1" parent="1">
          <mxGeometry x="80" y="-80" width="280" height="40" as="geometry" />
        </mxCell>
        <mxCell id="U0oo0eQeayt1dE6isxFw-35" value="&lt;b&gt;...0100&lt;/b&gt;" style="rounded=0;whiteSpace=wrap;html=1;align=center;fontSize=18;" vertex="1" parent="U0oo0eQeayt1dE6isxFw-34">
          <mxGeometry x="160" width="120" height="40" as="geometry" />
        </mxCell>
        <mxCell id="U0oo0eQeayt1dE6isxFw-36" value="&lt;b&gt;San Juan&lt;/b&gt;" style="rounded=0;whiteSpace=wrap;html=1;align=center;fontSize=18;" vertex="1" parent="U0oo0eQeayt1dE6isxFw-34">
          <mxGeometry width="160" height="40" as="geometry" />
        </mxCell>
        <mxCell id="U0oo0eQeayt1dE6isxFw-37" value="" style="endArrow=none;html=1;rounded=0;" edge="1" parent="1">
          <mxGeometry width="50" height="50" relative="1" as="geometry">
            <mxPoint y="160" as="sourcePoint" />
            <mxPoint x="1000" y="160" as="targetPoint" />
          </mxGeometry>
        </mxCell>
        <mxCell id="U0oo0eQeayt1dE6isxFw-38" value="2" style="rounded=0;whiteSpace=wrap;html=1;align=center;fontSize=18;" vertex="1" parent="1">
          <mxGeometry x="40" y="-80" width="40" height="40" as="geometry" />
        </mxCell>
        <mxCell id="U0oo0eQeayt1dE6isxFw-39" value="&lt;font style=&quot;font-size: 20px;&quot;&gt;&lt;font style=&quot;font-size: 20px;&quot;&gt;&lt;b style=&quot;&quot;&gt;Paso 3: llega&amp;nbsp;&lt;/b&gt;&lt;/font&gt;&lt;b style=&quot;text-align: center;&quot;&gt;Entre Rios&lt;/b&gt;&lt;/font&gt;" style="text;html=1;align=left;verticalAlign=middle;whiteSpace=wrap;rounded=0;" vertex="1" parent="1">
          <mxGeometry x="40" y="200" width="280" height="40" as="geometry" />
        </mxCell>
        <mxCell id="U0oo0eQeayt1dE6isxFw-42" value="&lt;span style=&quot;font-size: 17px;&quot;&gt;San Juan | Entre Ríos&lt;/span&gt;" style="rounded=0;whiteSpace=wrap;html=1;" vertex="1" parent="1">
          <mxGeometry x="320" y="360" width="200" height="40" as="geometry" />
        </mxCell>
        <mxCell id="U0oo0eQeayt1dE6isxFw-44" value="&lt;font style=&quot;font-size: 14px;&quot;&gt;&lt;b&gt;1&lt;/b&gt;&lt;/font&gt;" style="rounded=0;whiteSpace=wrap;html=1;fillColor=#B3B3B3;" vertex="1" parent="1">
          <mxGeometry x="320" y="340" width="20" height="20" as="geometry" />
        </mxCell>
        <mxCell id="U0oo0eQeayt1dE6isxFw-45" value="&lt;span style=&quot;background-color: initial; font-size: 16px;&quot;&gt;- Se&amp;nbsp;&lt;/span&gt;&lt;span style=&quot;font-size: 16px;&quot;&gt;aplica&amp;nbsp;&lt;/span&gt;&lt;span style=&quot;background-color: initial; font-size: 16px;&quot;&gt;la funcion de hash y se toman 0 bits&lt;/span&gt;&lt;div&gt;&lt;span style=&quot;font-size: 16px; background-color: initial;&quot;&gt;- Entre Rios pasa directamente al unico nodo disponible&lt;/span&gt;&lt;/div&gt;&lt;div&gt;&lt;span style=&quot;font-size: 16px;&quot;&gt;- Se produce una colision&lt;/span&gt;&lt;span style=&quot;font-size: 16px; background-color: initial;&quot;&gt;&lt;br&gt;&lt;/span&gt;&lt;/div&gt;&lt;div&gt;&lt;div&gt;&lt;span style=&quot;font-size: 16px;&quot;&gt;- Como no cabe en el nodo se produce un overflow&lt;/span&gt;&lt;/div&gt;&lt;/div&gt;&lt;div&gt;&lt;span style=&quot;font-size: 16px;&quot;&gt;&lt;br&gt;&lt;/span&gt;&lt;/div&gt;&lt;div&gt;&lt;span style=&quot;font-size: 16px; background-color: initial;&quot;&gt;- Se suma 1 al valor del nodo&lt;/span&gt;&lt;br&gt;&lt;/div&gt;&lt;div&gt;&lt;span style=&quot;font-size: 16px;&quot;&gt;- Se crea un nuevo nodo con este mismo valor&lt;/span&gt;&lt;/div&gt;&lt;div&gt;&lt;span style=&quot;font-size: 16px;&quot;&gt;&lt;br&gt;&lt;/span&gt;&lt;/div&gt;&lt;div&gt;&lt;span style=&quot;font-size: 16px;&quot;&gt;- Se compara el valor del nodo con el valor de la tabla&lt;/span&gt;&lt;/div&gt;&lt;div&gt;&lt;span style=&quot;font-size: 16px;&quot;&gt;-&amp;nbsp;&lt;/span&gt;&lt;span style=&quot;background-color: initial; font-size: 16px;&quot;&gt;Como el numero de la tabla es menor al del nodo, duplicamos el tamaño de la tabla&amp;nbsp;&lt;/span&gt;&lt;span style=&quot;background-color: initial; font-size: 16px;&quot;&gt;y aumentamos el numero de bits&lt;/span&gt;&lt;/div&gt;&lt;div&gt;&lt;span style=&quot;background-color: initial; font-size: 16px;&quot;&gt;&lt;br&gt;&lt;/span&gt;&lt;/div&gt;&lt;div&gt;&lt;span style=&quot;font-size: 16px;&quot;&gt;&amp;nbsp;&lt;/span&gt;&lt;span style=&quot;background-color: initial; font-size: 16px;&quot;&gt;- Se toma&amp;nbsp;&lt;/span&gt;&lt;b style=&quot;background-color: initial; font-size: 16px;&quot;&gt;&lt;font color=&quot;#ff99cc&quot;&gt;1 bit&amp;nbsp;&lt;/font&gt;&lt;/b&gt;&lt;span style=&quot;background-color: initial; font-size: 16px;&quot;&gt;de la funcion de hash asociada a cada clave&lt;/span&gt;&lt;/div&gt;&lt;div&gt;&lt;span style=&quot;font-size: 16px;&quot;&gt;- Reacomodamos las direcciones y los registros&lt;/span&gt;&lt;/div&gt;&lt;div&gt;&lt;span style=&quot;font-size: 16px;&quot;&gt;&lt;br&gt;&lt;/span&gt;&lt;/div&gt;" style="text;html=1;align=left;verticalAlign=middle;whiteSpace=wrap;rounded=0;" vertex="1" parent="1">
          <mxGeometry x="560" y="200" width="400" height="360" as="geometry" />
        </mxCell>
        <mxCell id="U0oo0eQeayt1dE6isxFw-46" value="" style="group" connectable="0" vertex="1" parent="1">
          <mxGeometry x="80" y="240" width="280" height="40" as="geometry" />
        </mxCell>
        <mxCell id="U0oo0eQeayt1dE6isxFw-47" value="&lt;b&gt;...1110&lt;/b&gt;" style="rounded=0;whiteSpace=wrap;html=1;align=center;fontSize=18;" vertex="1" parent="U0oo0eQeayt1dE6isxFw-46">
          <mxGeometry x="160" width="120" height="40" as="geometry" />
        </mxCell>
        <mxCell id="U0oo0eQeayt1dE6isxFw-48" value="&lt;b&gt;Entre Ríos&lt;/b&gt;" style="rounded=0;whiteSpace=wrap;html=1;align=center;fontSize=18;" vertex="1" parent="U0oo0eQeayt1dE6isxFw-46">
          <mxGeometry width="160" height="40" as="geometry" />
        </mxCell>
        <mxCell id="U0oo0eQeayt1dE6isxFw-49" value="" style="endArrow=none;html=1;rounded=0;" edge="1" parent="1">
          <mxGeometry width="50" height="50" relative="1" as="geometry">
            <mxPoint y="760" as="sourcePoint" />
            <mxPoint x="1000" y="760" as="targetPoint" />
          </mxGeometry>
        </mxCell>
        <mxCell id="U0oo0eQeayt1dE6isxFw-50" value="3" style="rounded=0;whiteSpace=wrap;html=1;align=center;fontSize=18;" vertex="1" parent="1">
          <mxGeometry x="40" y="240" width="40" height="40" as="geometry" />
        </mxCell>
        <mxCell id="U0oo0eQeayt1dE6isxFw-52" value="&lt;span style=&quot;font-size: 17px;&quot;&gt;Buenos Aires&lt;/span&gt;" style="rounded=0;whiteSpace=wrap;html=1;" vertex="1" parent="1">
          <mxGeometry x="320" y="460" width="200" height="40" as="geometry" />
        </mxCell>
        <mxCell id="U0oo0eQeayt1dE6isxFw-53" value="&lt;font style=&quot;font-size: 14px;&quot;&gt;&lt;b&gt;1&lt;/b&gt;&lt;/font&gt;" style="rounded=0;whiteSpace=wrap;html=1;fillColor=#B3B3B3;" vertex="1" parent="1">
          <mxGeometry x="320" y="440" width="20" height="20" as="geometry" />
        </mxCell>
        <mxCell id="U0oo0eQeayt1dE6isxFw-58" value="" style="endArrow=classic;html=1;rounded=0;exitX=1;exitY=0.5;exitDx=0;exitDy=0;endSize=12;startSize=12;entryX=0;entryY=0.5;entryDx=0;entryDy=0;" edge="1" parent="1" target="U0oo0eQeayt1dE6isxFw-42">
          <mxGeometry width="50" height="50" relative="1" as="geometry">
            <mxPoint x="160" y="380" as="sourcePoint" />
            <mxPoint x="330" y="410" as="targetPoint" />
          </mxGeometry>
        </mxCell>
        <mxCell id="U0oo0eQeayt1dE6isxFw-59" value="" style="endArrow=classic;html=1;rounded=0;exitX=1;exitY=0.5;exitDx=0;exitDy=0;endSize=12;startSize=12;entryX=0;entryY=0.5;entryDx=0;entryDy=0;" edge="1" parent="1" target="U0oo0eQeayt1dE6isxFw-52">
          <mxGeometry width="50" height="50" relative="1" as="geometry">
            <mxPoint x="160" y="420" as="sourcePoint" />
            <mxPoint x="330" y="390" as="targetPoint" />
          </mxGeometry>
        </mxCell>
        <mxCell id="U0oo0eQeayt1dE6isxFw-61" value="" style="group" connectable="0" vertex="1" parent="1">
          <mxGeometry x="640" y="560" width="280" height="40" as="geometry" />
        </mxCell>
        <mxCell id="U0oo0eQeayt1dE6isxFw-62" value="&lt;b&gt;...100&lt;font color=&quot;#ff99cc&quot;&gt;1&lt;/font&gt;&lt;/b&gt;" style="rounded=0;whiteSpace=wrap;html=1;align=center;fontSize=18;" vertex="1" parent="U0oo0eQeayt1dE6isxFw-61">
          <mxGeometry x="160" width="120" height="40" as="geometry" />
        </mxCell>
        <mxCell id="U0oo0eQeayt1dE6isxFw-63" value="&lt;b&gt;Buenos Aires&lt;/b&gt;" style="rounded=0;whiteSpace=wrap;html=1;align=center;fontSize=18;" vertex="1" parent="U0oo0eQeayt1dE6isxFw-61">
          <mxGeometry width="160" height="40" as="geometry" />
        </mxCell>
        <mxCell id="U0oo0eQeayt1dE6isxFw-64" value="1" style="rounded=0;whiteSpace=wrap;html=1;align=center;fontSize=18;" vertex="1" parent="1">
          <mxGeometry x="600" y="560" width="40" height="40" as="geometry" />
        </mxCell>
        <mxCell id="U0oo0eQeayt1dE6isxFw-65" value="" style="group" connectable="0" vertex="1" parent="1">
          <mxGeometry x="640" y="600" width="280" height="40" as="geometry" />
        </mxCell>
        <mxCell id="U0oo0eQeayt1dE6isxFw-66" value="&lt;b&gt;...010&lt;font color=&quot;#ff99cc&quot;&gt;0&lt;/font&gt;&lt;/b&gt;" style="rounded=0;whiteSpace=wrap;html=1;align=center;fontSize=18;" vertex="1" parent="U0oo0eQeayt1dE6isxFw-65">
          <mxGeometry x="160" width="120" height="40" as="geometry" />
        </mxCell>
        <mxCell id="U0oo0eQeayt1dE6isxFw-67" value="&lt;b&gt;San Juan&lt;/b&gt;" style="rounded=0;whiteSpace=wrap;html=1;align=center;fontSize=18;" vertex="1" parent="U0oo0eQeayt1dE6isxFw-65">
          <mxGeometry width="160" height="40" as="geometry" />
        </mxCell>
        <mxCell id="U0oo0eQeayt1dE6isxFw-68" value="2" style="rounded=0;whiteSpace=wrap;html=1;align=center;fontSize=18;" vertex="1" parent="1">
          <mxGeometry x="600" y="600" width="40" height="40" as="geometry" />
        </mxCell>
        <mxCell id="U0oo0eQeayt1dE6isxFw-69" value="" style="group" connectable="0" vertex="1" parent="1">
          <mxGeometry x="640" y="640" width="280" height="40" as="geometry" />
        </mxCell>
        <mxCell id="U0oo0eQeayt1dE6isxFw-70" value="&lt;b&gt;...111&lt;font color=&quot;#ff99cc&quot;&gt;0&lt;/font&gt;&lt;/b&gt;" style="rounded=0;whiteSpace=wrap;html=1;align=center;fontSize=18;" vertex="1" parent="U0oo0eQeayt1dE6isxFw-69">
          <mxGeometry x="160" width="120" height="40" as="geometry" />
        </mxCell>
        <mxCell id="U0oo0eQeayt1dE6isxFw-71" value="&lt;b&gt;Entre Ríos&lt;/b&gt;" style="rounded=0;whiteSpace=wrap;html=1;align=center;fontSize=18;" vertex="1" parent="U0oo0eQeayt1dE6isxFw-69">
          <mxGeometry width="160" height="40" as="geometry" />
        </mxCell>
        <mxCell id="U0oo0eQeayt1dE6isxFw-72" value="3" style="rounded=0;whiteSpace=wrap;html=1;align=center;fontSize=18;" vertex="1" parent="1">
          <mxGeometry x="600" y="640" width="40" height="40" as="geometry" />
        </mxCell>
        <mxCell id="U0oo0eQeayt1dE6isxFw-79" value="&lt;div style=&quot;text-align: center;&quot;&gt;&lt;b style=&quot;font-size: 20px; background-color: initial;&quot;&gt;Paso 4: llega Corrientes&lt;/b&gt;&lt;/div&gt;" style="text;html=1;align=left;verticalAlign=middle;whiteSpace=wrap;rounded=0;" vertex="1" parent="1">
          <mxGeometry x="40" y="800" width="280" height="40" as="geometry" />
        </mxCell>
        <mxCell id="U0oo0eQeayt1dE6isxFw-81" value="&lt;span style=&quot;font-size: 18px;&quot;&gt;San Juan&lt;/span&gt;" style="rounded=0;whiteSpace=wrap;html=1;" vertex="1" parent="1">
          <mxGeometry x="320" y="960" width="200" height="40" as="geometry" />
        </mxCell>
        <mxCell id="U0oo0eQeayt1dE6isxFw-83" value="&lt;font style=&quot;font-size: 14px;&quot;&gt;&lt;b&gt;2&lt;/b&gt;&lt;/font&gt;" style="rounded=0;whiteSpace=wrap;html=1;fillColor=#B3B3B3;" vertex="1" parent="1">
          <mxGeometry x="320" y="940" width="20" height="20" as="geometry" />
        </mxCell>
        <mxCell id="U0oo0eQeayt1dE6isxFw-84" value="&lt;span style=&quot;background-color: initial; font-size: 16px;&quot;&gt;- Se&amp;nbsp;&lt;/span&gt;&lt;span style=&quot;font-size: 16px;&quot;&gt;aplica&amp;nbsp;&lt;/span&gt;&lt;span style=&quot;background-color: initial; font-size: 16px;&quot;&gt;la funcion de hash y se toma 1 bit&lt;/span&gt;&lt;div&gt;&lt;span style=&quot;font-size: 16px; background-color: initial;&quot;&gt;- Corrientes&amp;nbsp;&lt;/span&gt;&lt;span style=&quot;font-size: 16px; background-color: initial;&quot;&gt;pasa al nodo con direccion 0&lt;/span&gt;&lt;/div&gt;&lt;div&gt;&lt;span style=&quot;font-size: 16px;&quot;&gt;- Se produce una colision&lt;/span&gt;&lt;span style=&quot;font-size: 16px; background-color: initial;&quot;&gt;&lt;br&gt;&lt;/span&gt;&lt;/div&gt;&lt;div&gt;&lt;div&gt;&lt;span style=&quot;font-size: 16px;&quot;&gt;- Como no cabe en el nodo se produce un overflow&lt;/span&gt;&lt;/div&gt;&lt;/div&gt;&lt;div&gt;&lt;span style=&quot;font-size: 16px;&quot;&gt;&lt;br&gt;&lt;/span&gt;&lt;/div&gt;&lt;div&gt;&lt;span style=&quot;font-size: 16px; background-color: initial;&quot;&gt;- Se suma 1 al valor del nodo con overflow&lt;/span&gt;&lt;br&gt;&lt;/div&gt;&lt;div&gt;&lt;span style=&quot;font-size: 16px;&quot;&gt;- Se crea un nuevo nodo con este mismo valor&lt;/span&gt;&lt;/div&gt;&lt;div&gt;&lt;span style=&quot;font-size: 16px;&quot;&gt;&lt;br&gt;&lt;/span&gt;&lt;/div&gt;&lt;div&gt;&lt;span style=&quot;font-size: 16px;&quot;&gt;- Se compara el valor del nodo (2 ) con el valor de la tabla (1)&lt;/span&gt;&lt;/div&gt;&lt;div&gt;&lt;span style=&quot;font-size: 16px;&quot;&gt;-&amp;nbsp;&lt;/span&gt;&lt;span style=&quot;font-size: 16px;&quot;&gt;Como el numero de la tabla es menor al del nodo, duplicamos el tamaño de la tabla&amp;nbsp;&lt;/span&gt;&lt;span style=&quot;font-size: 16px;&quot;&gt;y aumentamos el numero de bits&lt;/span&gt;&lt;/div&gt;&lt;div&gt;&lt;span style=&quot;font-size: 16px;&quot;&gt;&lt;br&gt;&lt;/span&gt;&lt;/div&gt;&lt;div&gt;&lt;span style=&quot;font-size: 16px;&quot;&gt;&amp;nbsp;&lt;/span&gt;&lt;span style=&quot;background-color: initial; font-size: 16px;&quot;&gt;- Se toman &lt;font color=&quot;#ff99cc&quot;&gt;2&lt;/font&gt;&lt;/span&gt;&lt;b style=&quot;background-color: initial; font-size: 16px;&quot;&gt;&lt;font color=&quot;#ff99cc&quot;&gt;&amp;nbsp;bits&amp;nbsp;&lt;/font&gt;&lt;/b&gt;&lt;span style=&quot;background-color: initial; font-size: 16px;&quot;&gt;de la funcion de hash asociada a cada clave&lt;/span&gt;&lt;/div&gt;&lt;div&gt;&lt;span style=&quot;font-size: 16px;&quot;&gt;- Reacomodamos las direcciones y los registros&lt;/span&gt;&lt;/div&gt;&lt;div&gt;&lt;span style=&quot;font-size: 16px;&quot;&gt;&lt;br&gt;&lt;/span&gt;&lt;/div&gt;" style="text;html=1;align=left;verticalAlign=middle;whiteSpace=wrap;rounded=0;" vertex="1" parent="1">
          <mxGeometry x="560" y="800" width="400" height="360" as="geometry" />
        </mxCell>
        <mxCell id="U0oo0eQeayt1dE6isxFw-85" value="" style="group" connectable="0" vertex="1" parent="1">
          <mxGeometry x="80" y="840" width="280" height="40" as="geometry" />
        </mxCell>
        <mxCell id="U0oo0eQeayt1dE6isxFw-86" value="&lt;b&gt;...0010&lt;/b&gt;" style="rounded=0;whiteSpace=wrap;html=1;align=center;fontSize=18;" vertex="1" parent="U0oo0eQeayt1dE6isxFw-85">
          <mxGeometry x="160" width="120" height="40" as="geometry" />
        </mxCell>
        <mxCell id="U0oo0eQeayt1dE6isxFw-87" value="&lt;b&gt;Corrientes&lt;/b&gt;" style="rounded=0;whiteSpace=wrap;html=1;align=center;fontSize=18;" vertex="1" parent="U0oo0eQeayt1dE6isxFw-85">
          <mxGeometry width="160" height="40" as="geometry" />
        </mxCell>
        <mxCell id="U0oo0eQeayt1dE6isxFw-88" value="" style="endArrow=none;html=1;rounded=0;" edge="1" parent="1">
          <mxGeometry width="50" height="50" relative="1" as="geometry">
            <mxPoint y="1400" as="sourcePoint" />
            <mxPoint x="1000" y="1400" as="targetPoint" />
          </mxGeometry>
        </mxCell>
        <mxCell id="U0oo0eQeayt1dE6isxFw-89" value="4" style="rounded=0;whiteSpace=wrap;html=1;align=center;fontSize=18;" vertex="1" parent="1">
          <mxGeometry x="40" y="840" width="40" height="40" as="geometry" />
        </mxCell>
        <mxCell id="U0oo0eQeayt1dE6isxFw-90" value="&lt;span style=&quot;font-size: 17px;&quot;&gt;Buenos Aires&lt;/span&gt;" style="rounded=0;whiteSpace=wrap;html=1;" vertex="1" parent="1">
          <mxGeometry x="320" y="1120" width="200" height="40" as="geometry" />
        </mxCell>
        <mxCell id="U0oo0eQeayt1dE6isxFw-91" value="&lt;font style=&quot;font-size: 14px;&quot;&gt;&lt;b&gt;1&lt;/b&gt;&lt;/font&gt;" style="rounded=0;whiteSpace=wrap;html=1;fillColor=#B3B3B3;" vertex="1" parent="1">
          <mxGeometry x="320" y="1100" width="20" height="20" as="geometry" />
        </mxCell>
        <mxCell id="U0oo0eQeayt1dE6isxFw-93" value="" style="endArrow=classic;html=1;rounded=0;exitX=1;exitY=0.5;exitDx=0;exitDy=0;endSize=12;startSize=12;entryX=0;entryY=0.5;entryDx=0;entryDy=0;" edge="1" parent="1" target="U0oo0eQeayt1dE6isxFw-81">
          <mxGeometry width="50" height="50" relative="1" as="geometry">
            <mxPoint x="160" y="980.0000000000005" as="sourcePoint" />
            <mxPoint x="330" y="1010" as="targetPoint" />
          </mxGeometry>
        </mxCell>
        <mxCell id="U0oo0eQeayt1dE6isxFw-94" value="" style="endArrow=classic;html=1;rounded=0;exitX=1;exitY=0.5;exitDx=0;exitDy=0;endSize=12;startSize=12;entryX=0;entryY=0.5;entryDx=0;entryDy=0;" edge="1" parent="1" target="U0oo0eQeayt1dE6isxFw-90">
          <mxGeometry width="50" height="50" relative="1" as="geometry">
            <mxPoint x="160" y="1060.0000000000005" as="sourcePoint" />
            <mxPoint x="330" y="990" as="targetPoint" />
          </mxGeometry>
        </mxCell>
        <mxCell id="U0oo0eQeayt1dE6isxFw-99" value="" style="group" connectable="0" vertex="1" parent="1">
          <mxGeometry x="640" y="1200" width="280" height="40" as="geometry" />
        </mxCell>
        <mxCell id="U0oo0eQeayt1dE6isxFw-100" value="&lt;b&gt;...01&lt;font color=&quot;#ff99cc&quot;&gt;00&lt;/font&gt;&lt;/b&gt;" style="rounded=0;whiteSpace=wrap;html=1;align=center;fontSize=18;" vertex="1" parent="U0oo0eQeayt1dE6isxFw-99">
          <mxGeometry x="160" width="120" height="40" as="geometry" />
        </mxCell>
        <mxCell id="U0oo0eQeayt1dE6isxFw-101" value="&lt;b&gt;San Juan&lt;/b&gt;" style="rounded=0;whiteSpace=wrap;html=1;align=center;fontSize=18;" vertex="1" parent="U0oo0eQeayt1dE6isxFw-99">
          <mxGeometry width="160" height="40" as="geometry" />
        </mxCell>
        <mxCell id="U0oo0eQeayt1dE6isxFw-102" value="2" style="rounded=0;whiteSpace=wrap;html=1;align=center;fontSize=18;" vertex="1" parent="1">
          <mxGeometry x="600" y="1200" width="40" height="40" as="geometry" />
        </mxCell>
        <mxCell id="U0oo0eQeayt1dE6isxFw-103" value="" style="group" connectable="0" vertex="1" parent="1">
          <mxGeometry x="640" y="1240" width="280" height="40" as="geometry" />
        </mxCell>
        <mxCell id="U0oo0eQeayt1dE6isxFw-104" value="&lt;b&gt;...11&lt;font color=&quot;#ff99cc&quot;&gt;10&lt;/font&gt;&lt;/b&gt;" style="rounded=0;whiteSpace=wrap;html=1;align=center;fontSize=18;" vertex="1" parent="U0oo0eQeayt1dE6isxFw-103">
          <mxGeometry x="160" width="120" height="40" as="geometry" />
        </mxCell>
        <mxCell id="U0oo0eQeayt1dE6isxFw-105" value="&lt;b&gt;Entre Ríos&lt;/b&gt;" style="rounded=0;whiteSpace=wrap;html=1;align=center;fontSize=18;" vertex="1" parent="U0oo0eQeayt1dE6isxFw-103">
          <mxGeometry width="160" height="40" as="geometry" />
        </mxCell>
        <mxCell id="U0oo0eQeayt1dE6isxFw-106" value="3" style="rounded=0;whiteSpace=wrap;html=1;align=center;fontSize=18;" vertex="1" parent="1">
          <mxGeometry x="600" y="1240" width="40" height="40" as="geometry" />
        </mxCell>
        <mxCell id="U0oo0eQeayt1dE6isxFw-107" value="&lt;span style=&quot;font-size: 18px;&quot;&gt;Entre Ríos |&amp;nbsp;&lt;/span&gt;&lt;span style=&quot;font-size: 18px;&quot;&gt;Corrientes&lt;/span&gt;" style="rounded=0;whiteSpace=wrap;html=1;" vertex="1" parent="1">
          <mxGeometry x="320" y="1040" width="200" height="40" as="geometry" />
        </mxCell>
        <mxCell id="U0oo0eQeayt1dE6isxFw-108" value="&lt;font style=&quot;font-size: 14px;&quot;&gt;&lt;b&gt;2&lt;/b&gt;&lt;/font&gt;" style="rounded=0;whiteSpace=wrap;html=1;fillColor=#B3B3B3;" vertex="1" parent="1">
          <mxGeometry x="320" y="1020" width="20" height="20" as="geometry" />
        </mxCell>
        <mxCell id="U0oo0eQeayt1dE6isxFw-110" value="" style="group" connectable="0" vertex="1" parent="1">
          <mxGeometry x="640" y="1280" width="280" height="40" as="geometry" />
        </mxCell>
        <mxCell id="U0oo0eQeayt1dE6isxFw-111" value="&lt;b&gt;...00&lt;font color=&quot;#ff99cc&quot;&gt;10&lt;/font&gt;&lt;/b&gt;" style="rounded=0;whiteSpace=wrap;html=1;align=center;fontSize=18;" vertex="1" parent="U0oo0eQeayt1dE6isxFw-110">
          <mxGeometry x="160" width="120" height="40" as="geometry" />
        </mxCell>
        <mxCell id="U0oo0eQeayt1dE6isxFw-112" value="&lt;b&gt;Corrientes&lt;/b&gt;" style="rounded=0;whiteSpace=wrap;html=1;align=center;fontSize=18;" vertex="1" parent="U0oo0eQeayt1dE6isxFw-110">
          <mxGeometry width="160" height="40" as="geometry" />
        </mxCell>
        <mxCell id="U0oo0eQeayt1dE6isxFw-113" value="4" style="rounded=0;whiteSpace=wrap;html=1;align=center;fontSize=18;" vertex="1" parent="1">
          <mxGeometry x="600" y="1280" width="40" height="40" as="geometry" />
        </mxCell>
        <mxCell id="U0oo0eQeayt1dE6isxFw-116" value="" style="endArrow=classic;html=1;rounded=0;exitX=1;exitY=0.5;exitDx=0;exitDy=0;endSize=12;startSize=12;entryX=0;entryY=0.5;entryDx=0;entryDy=0;" edge="1" parent="1" target="U0oo0eQeayt1dE6isxFw-107">
          <mxGeometry width="50" height="50" relative="1" as="geometry">
            <mxPoint x="160" y="1020.0000000000005" as="sourcePoint" />
            <mxPoint x="330" y="990" as="targetPoint" />
          </mxGeometry>
        </mxCell>
        <mxCell id="U0oo0eQeayt1dE6isxFw-117" value="" style="group" connectable="0" vertex="1" parent="1">
          <mxGeometry x="640" y="1160" width="280" height="40" as="geometry" />
        </mxCell>
        <mxCell id="U0oo0eQeayt1dE6isxFw-118" value="&lt;b&gt;...10&lt;font color=&quot;#ff99cc&quot;&gt;01&lt;/font&gt;&lt;/b&gt;" style="rounded=0;whiteSpace=wrap;html=1;align=center;fontSize=18;" vertex="1" parent="U0oo0eQeayt1dE6isxFw-117">
          <mxGeometry x="160" width="120" height="40" as="geometry" />
        </mxCell>
        <mxCell id="U0oo0eQeayt1dE6isxFw-119" value="&lt;b&gt;Buenos Aires&lt;/b&gt;" style="rounded=0;whiteSpace=wrap;html=1;align=center;fontSize=18;" vertex="1" parent="U0oo0eQeayt1dE6isxFw-117">
          <mxGeometry width="160" height="40" as="geometry" />
        </mxCell>
        <mxCell id="U0oo0eQeayt1dE6isxFw-120" value="1" style="rounded=0;whiteSpace=wrap;html=1;align=center;fontSize=18;" vertex="1" parent="1">
          <mxGeometry x="600" y="1160" width="40" height="40" as="geometry" />
        </mxCell>
        <mxCell id="U0oo0eQeayt1dE6isxFw-122" value="&lt;div style=&quot;text-align: center;&quot;&gt;&lt;b style=&quot;font-size: 20px; background-color: initial;&quot;&gt;Paso 5: llega San Luis&lt;/b&gt;&lt;/div&gt;" style="text;html=1;align=left;verticalAlign=middle;whiteSpace=wrap;rounded=0;" vertex="1" parent="1">
          <mxGeometry x="40" y="1440" width="280" height="40" as="geometry" />
        </mxCell>
        <mxCell id="U0oo0eQeayt1dE6isxFw-124" value="&lt;span style=&quot;font-size: 18px;&quot;&gt;San Juan&lt;/span&gt;" style="rounded=0;whiteSpace=wrap;html=1;" vertex="1" parent="1">
          <mxGeometry x="320" y="1600" width="200" height="40" as="geometry" />
        </mxCell>
        <mxCell id="U0oo0eQeayt1dE6isxFw-126" value="&lt;font style=&quot;font-size: 14px;&quot;&gt;&lt;b&gt;2&lt;/b&gt;&lt;/font&gt;" style="rounded=0;whiteSpace=wrap;html=1;fillColor=#B3B3B3;" vertex="1" parent="1">
          <mxGeometry x="320" y="1580" width="20" height="20" as="geometry" />
        </mxCell>
        <mxCell id="U0oo0eQeayt1dE6isxFw-127" value="&lt;span style=&quot;background-color: initial; font-size: 16px;&quot;&gt;- Se&amp;nbsp;&lt;/span&gt;&lt;span style=&quot;font-size: 16px;&quot;&gt;aplica&amp;nbsp;&lt;/span&gt;&lt;span style=&quot;background-color: initial; font-size: 16px;&quot;&gt;la funcion de hash y se toman 2 bits&lt;/span&gt;&lt;div&gt;&lt;span style=&quot;font-size: 16px; background-color: initial;&quot;&gt;- San Luis&amp;nbsp;&lt;/span&gt;&lt;span style=&quot;font-size: 16px; background-color: initial;&quot;&gt;pasa al nodo con direccion 01&lt;/span&gt;&lt;/div&gt;&lt;div&gt;&lt;span style=&quot;font-size: 16px;&quot;&gt;- Se produce una colision&lt;/span&gt;&lt;span style=&quot;font-size: 16px; background-color: initial;&quot;&gt;&lt;br&gt;&lt;/span&gt;&lt;/div&gt;&lt;div&gt;&lt;span style=&quot;font-size: 16px;&quot;&gt;- El nodo tiene espacio y se inserta con normalidad&lt;/span&gt;&lt;br&gt;&lt;/div&gt;&lt;div&gt;&lt;br&gt;&lt;/div&gt;" style="text;html=1;align=left;verticalAlign=middle;whiteSpace=wrap;rounded=0;" vertex="1" parent="1">
          <mxGeometry x="560" y="1600" width="400" height="160" as="geometry" />
        </mxCell>
        <mxCell id="U0oo0eQeayt1dE6isxFw-128" value="" style="group" connectable="0" vertex="1" parent="1">
          <mxGeometry x="80" y="1480" width="280" height="40" as="geometry" />
        </mxCell>
        <mxCell id="U0oo0eQeayt1dE6isxFw-129" value="&lt;b&gt;...0101&lt;/b&gt;" style="rounded=0;whiteSpace=wrap;html=1;align=center;fontSize=18;" vertex="1" parent="U0oo0eQeayt1dE6isxFw-128">
          <mxGeometry x="160" width="120" height="40" as="geometry" />
        </mxCell>
        <mxCell id="U0oo0eQeayt1dE6isxFw-130" value="&lt;b&gt;San Luis&lt;/b&gt;" style="rounded=0;whiteSpace=wrap;html=1;align=center;fontSize=18;" vertex="1" parent="U0oo0eQeayt1dE6isxFw-128">
          <mxGeometry width="160" height="40" as="geometry" />
        </mxCell>
        <mxCell id="U0oo0eQeayt1dE6isxFw-131" value="" style="endArrow=none;html=1;rounded=0;" edge="1" parent="1">
          <mxGeometry width="50" height="50" relative="1" as="geometry">
            <mxPoint y="1880" as="sourcePoint" />
            <mxPoint x="1000" y="1880" as="targetPoint" />
          </mxGeometry>
        </mxCell>
        <mxCell id="U0oo0eQeayt1dE6isxFw-132" value="5" style="rounded=0;whiteSpace=wrap;html=1;align=center;fontSize=18;" vertex="1" parent="1">
          <mxGeometry x="40" y="1480" width="40" height="40" as="geometry" />
        </mxCell>
        <mxCell id="U0oo0eQeayt1dE6isxFw-133" value="&lt;span style=&quot;font-size: 17px;&quot;&gt;Buenos Aires |&amp;nbsp;&lt;/span&gt;&lt;span style=&quot;font-size: 18px;&quot;&gt;San Luis&lt;/span&gt;" style="rounded=0;whiteSpace=wrap;html=1;" vertex="1" parent="1">
          <mxGeometry x="320" y="1760" width="200" height="40" as="geometry" />
        </mxCell>
        <mxCell id="U0oo0eQeayt1dE6isxFw-134" value="&lt;font style=&quot;font-size: 14px;&quot;&gt;&lt;b&gt;1&lt;/b&gt;&lt;/font&gt;" style="rounded=0;whiteSpace=wrap;html=1;fillColor=#B3B3B3;" vertex="1" parent="1">
          <mxGeometry x="320" y="1740" width="20" height="20" as="geometry" />
        </mxCell>
        <mxCell id="U0oo0eQeayt1dE6isxFw-136" value="" style="endArrow=classic;html=1;rounded=0;exitX=1;exitY=0.5;exitDx=0;exitDy=0;endSize=12;startSize=12;entryX=0;entryY=0.5;entryDx=0;entryDy=0;" edge="1" parent="1" target="U0oo0eQeayt1dE6isxFw-124">
          <mxGeometry width="50" height="50" relative="1" as="geometry">
            <mxPoint x="160" y="1619.9999999999995" as="sourcePoint" />
            <mxPoint x="330" y="1650" as="targetPoint" />
          </mxGeometry>
        </mxCell>
        <mxCell id="U0oo0eQeayt1dE6isxFw-137" value="" style="endArrow=classic;html=1;rounded=0;exitX=1;exitY=0.5;exitDx=0;exitDy=0;endSize=12;startSize=12;entryX=0;entryY=0.5;entryDx=0;entryDy=0;" edge="1" parent="1" target="U0oo0eQeayt1dE6isxFw-133">
          <mxGeometry width="50" height="50" relative="1" as="geometry">
            <mxPoint x="160" y="1699.9999999999995" as="sourcePoint" />
            <mxPoint x="330" y="1630" as="targetPoint" />
          </mxGeometry>
        </mxCell>
        <mxCell id="U0oo0eQeayt1dE6isxFw-146" value="&lt;span style=&quot;font-size: 18px;&quot;&gt;Entre Ríos |&amp;nbsp;&lt;/span&gt;&lt;span style=&quot;font-size: 18px;&quot;&gt;Corrientes&lt;/span&gt;" style="rounded=0;whiteSpace=wrap;html=1;" vertex="1" parent="1">
          <mxGeometry x="320" y="1680" width="200" height="40" as="geometry" />
        </mxCell>
        <mxCell id="U0oo0eQeayt1dE6isxFw-147" value="&lt;font style=&quot;font-size: 14px;&quot;&gt;&lt;b&gt;2&lt;/b&gt;&lt;/font&gt;" style="rounded=0;whiteSpace=wrap;html=1;fillColor=#B3B3B3;" vertex="1" parent="1">
          <mxGeometry x="320" y="1660" width="20" height="20" as="geometry" />
        </mxCell>
        <mxCell id="U0oo0eQeayt1dE6isxFw-154" value="" style="endArrow=classic;html=1;rounded=0;exitX=1;exitY=0.5;exitDx=0;exitDy=0;endSize=12;startSize=12;entryX=0;entryY=0.5;entryDx=0;entryDy=0;" edge="1" parent="1" target="U0oo0eQeayt1dE6isxFw-146">
          <mxGeometry width="50" height="50" relative="1" as="geometry">
            <mxPoint x="160" y="1659.9999999999995" as="sourcePoint" />
            <mxPoint x="330" y="1630" as="targetPoint" />
          </mxGeometry>
        </mxCell>
        <mxCell id="U0oo0eQeayt1dE6isxFw-159" value="&lt;div style=&quot;text-align: center;&quot;&gt;&lt;b style=&quot;font-size: 20px; background-color: initial;&quot;&gt;Paso 6: llega Tucuman&lt;/b&gt;&lt;/div&gt;" style="text;html=1;align=left;verticalAlign=middle;whiteSpace=wrap;rounded=0;" vertex="1" parent="1">
          <mxGeometry x="40" y="1920" width="280" height="40" as="geometry" />
        </mxCell>
        <mxCell id="U0oo0eQeayt1dE6isxFw-161" value="&lt;span style=&quot;font-size: 18px;&quot;&gt;San Juan&lt;/span&gt;" style="rounded=0;whiteSpace=wrap;html=1;" vertex="1" parent="1">
          <mxGeometry x="320" y="2080" width="200" height="40" as="geometry" />
        </mxCell>
        <mxCell id="U0oo0eQeayt1dE6isxFw-163" value="&lt;font style=&quot;font-size: 14px;&quot;&gt;&lt;b&gt;2&lt;/b&gt;&lt;/font&gt;" style="rounded=0;whiteSpace=wrap;html=1;fillColor=#B3B3B3;" vertex="1" parent="1">
          <mxGeometry x="320" y="2060" width="20" height="20" as="geometry" />
        </mxCell>
        <mxCell id="U0oo0eQeayt1dE6isxFw-164" value="&lt;span style=&quot;background-color: initial; font-size: 16px;&quot;&gt;- Se&amp;nbsp;&lt;/span&gt;&lt;span style=&quot;font-size: 16px;&quot;&gt;aplica&amp;nbsp;&lt;/span&gt;&lt;span style=&quot;background-color: initial; font-size: 16px;&quot;&gt;la funcion de hash y se toman 2 bits&lt;/span&gt;&lt;div&gt;&lt;span style=&quot;font-size: 16px; background-color: initial;&quot;&gt;- Tucuman&amp;nbsp;&lt;/span&gt;&lt;span style=&quot;font-size: 16px; background-color: initial;&quot;&gt;pasa al nodo con direccion 11&lt;/span&gt;&lt;/div&gt;&lt;div&gt;&lt;span style=&quot;background-color: initial; font-size: 16px;&quot;&gt;- Se produce una colision&lt;/span&gt;&lt;/div&gt;&lt;div&gt;&lt;span style=&quot;background-color: initial; font-size: 16px;&quot;&gt;- Como no cabe en el nodo se produce un overflow&lt;/span&gt;&lt;br&gt;&lt;/div&gt;&lt;div&gt;&lt;span style=&quot;font-size: 16px;&quot;&gt;&lt;br&gt;&lt;/span&gt;&lt;/div&gt;&lt;div&gt;&lt;div&gt;&lt;span style=&quot;font-size: 16px; background-color: initial;&quot;&gt;- Se suma 1 al valor del nodo&lt;/span&gt;&lt;br&gt;&lt;/div&gt;&lt;div&gt;&lt;span style=&quot;font-size: 16px;&quot;&gt;- Se crea un nuevo nodo con este mismo valor&lt;/span&gt;&lt;/div&gt;&lt;/div&gt;&lt;div&gt;&lt;span style=&quot;font-size: 16px;&quot;&gt;&lt;br&gt;&lt;/span&gt;&lt;/div&gt;&lt;div&gt;&lt;span style=&quot;font-size: 16px;&quot;&gt;- se suma 1 al valor del nodo con overflow&lt;/span&gt;&lt;/div&gt;&lt;div&gt;&lt;span style=&quot;font-size: 16px;&quot;&gt;- se compara el valor del nodo ( 2 ) con el valor de la tabla ( 2 )&lt;/span&gt;&lt;/div&gt;&lt;div&gt;&lt;span style=&quot;font-size: 16px;&quot;&gt;&lt;br&gt;&lt;/span&gt;&lt;/div&gt;&lt;div&gt;&lt;span style=&quot;font-size: 16px;&quot;&gt;- como los numeros del nodo y de la tabla son iguales no se duplica&lt;/span&gt;&lt;/div&gt;&lt;div&gt;&lt;span style=&quot;font-size: 16px;&quot;&gt;&lt;br&gt;&lt;/span&gt;&lt;/div&gt;&lt;div&gt;&lt;div&gt;&lt;span style=&quot;font-size: 16px;&quot;&gt;&amp;nbsp;&lt;/span&gt;&lt;span style=&quot;background-color: initial; font-size: 16px;&quot;&gt;- Se toman&amp;nbsp;&lt;font color=&quot;#ff99cc&quot;&gt;2&lt;/font&gt;&lt;/span&gt;&lt;b style=&quot;background-color: initial; font-size: 16px;&quot;&gt;&lt;font color=&quot;#ff99cc&quot;&gt;&amp;nbsp;bits&lt;/font&gt;&lt;font color=&quot;#ff0000&quot;&gt;&amp;nbsp;&lt;/font&gt;&lt;/b&gt;&lt;span style=&quot;background-color: initial; font-size: 16px;&quot;&gt;de la funcion de hash asociada a cada clave&lt;/span&gt;&lt;/div&gt;&lt;div&gt;&lt;span style=&quot;font-size: 16px;&quot;&gt;- Reacomodamos las direcciones y los registros&lt;/span&gt;&lt;/div&gt;&lt;/div&gt;" style="text;html=1;align=left;verticalAlign=middle;whiteSpace=wrap;rounded=0;" vertex="1" parent="1">
          <mxGeometry x="560" y="2040" width="400" height="390" as="geometry" />
        </mxCell>
        <mxCell id="U0oo0eQeayt1dE6isxFw-165" value="" style="group" connectable="0" vertex="1" parent="1">
          <mxGeometry x="80" y="1960" width="280" height="40" as="geometry" />
        </mxCell>
        <mxCell id="U0oo0eQeayt1dE6isxFw-166" value="&lt;b&gt;...0111&lt;/b&gt;" style="rounded=0;whiteSpace=wrap;html=1;align=center;fontSize=18;" vertex="1" parent="U0oo0eQeayt1dE6isxFw-165">
          <mxGeometry x="160" width="120" height="40" as="geometry" />
        </mxCell>
        <mxCell id="U0oo0eQeayt1dE6isxFw-167" value="&lt;b&gt;Tucumán&lt;/b&gt;" style="rounded=0;whiteSpace=wrap;html=1;align=center;fontSize=18;" vertex="1" parent="U0oo0eQeayt1dE6isxFw-165">
          <mxGeometry width="160" height="40" as="geometry" />
        </mxCell>
        <mxCell id="U0oo0eQeayt1dE6isxFw-168" value="" style="endArrow=none;html=1;rounded=0;" edge="1" parent="1">
          <mxGeometry width="50" height="50" relative="1" as="geometry">
            <mxPoint y="2640" as="sourcePoint" />
            <mxPoint x="1000" y="2640" as="targetPoint" />
          </mxGeometry>
        </mxCell>
        <mxCell id="U0oo0eQeayt1dE6isxFw-169" value="6" style="rounded=0;whiteSpace=wrap;html=1;align=center;fontSize=18;" vertex="1" parent="1">
          <mxGeometry x="40" y="1960" width="40" height="40" as="geometry" />
        </mxCell>
        <mxCell id="U0oo0eQeayt1dE6isxFw-170" value="&lt;span style=&quot;font-size: 17px;&quot;&gt;Buenos Aires |&amp;nbsp;&lt;/span&gt;&lt;span style=&quot;font-size: 18px;&quot;&gt;San Luis&lt;/span&gt;" style="rounded=0;whiteSpace=wrap;html=1;" vertex="1" parent="1">
          <mxGeometry x="320" y="2240" width="200" height="40" as="geometry" />
        </mxCell>
        <mxCell id="U0oo0eQeayt1dE6isxFw-171" value="&lt;font style=&quot;font-size: 14px;&quot;&gt;&lt;b&gt;2&lt;/b&gt;&lt;/font&gt;" style="rounded=0;whiteSpace=wrap;html=1;fillColor=#B3B3B3;" vertex="1" parent="1">
          <mxGeometry x="320" y="2220" width="20" height="20" as="geometry" />
        </mxCell>
        <mxCell id="U0oo0eQeayt1dE6isxFw-173" value="" style="endArrow=classic;html=1;rounded=0;exitX=1;exitY=0.5;exitDx=0;exitDy=0;endSize=12;startSize=12;entryX=0;entryY=0.5;entryDx=0;entryDy=0;" edge="1" parent="1" target="U0oo0eQeayt1dE6isxFw-161">
          <mxGeometry width="50" height="50" relative="1" as="geometry">
            <mxPoint x="160" y="2100" as="sourcePoint" />
            <mxPoint x="330" y="2130" as="targetPoint" />
          </mxGeometry>
        </mxCell>
        <mxCell id="U0oo0eQeayt1dE6isxFw-174" value="" style="endArrow=classic;html=1;rounded=0;exitX=1;exitY=0.5;exitDx=0;exitDy=0;endSize=12;startSize=12;entryX=0;entryY=0.5;entryDx=0;entryDy=0;" edge="1" parent="1" target="U0oo0eQeayt1dE6isxFw-170">
          <mxGeometry width="50" height="50" relative="1" as="geometry">
            <mxPoint x="160" y="2180" as="sourcePoint" />
            <mxPoint x="330" y="2110" as="targetPoint" />
          </mxGeometry>
        </mxCell>
        <mxCell id="U0oo0eQeayt1dE6isxFw-175" value="&lt;span style=&quot;font-size: 18px;&quot;&gt;Entre Ríos |&amp;nbsp;&lt;/span&gt;&lt;span style=&quot;font-size: 18px;&quot;&gt;Corrientes&lt;/span&gt;" style="rounded=0;whiteSpace=wrap;html=1;" vertex="1" parent="1">
          <mxGeometry x="320" y="2160" width="200" height="40" as="geometry" />
        </mxCell>
        <mxCell id="U0oo0eQeayt1dE6isxFw-176" value="&lt;font style=&quot;font-size: 14px;&quot;&gt;&lt;b&gt;2&lt;/b&gt;&lt;/font&gt;" style="rounded=0;whiteSpace=wrap;html=1;fillColor=#B3B3B3;" vertex="1" parent="1">
          <mxGeometry x="320" y="2140" width="20" height="20" as="geometry" />
        </mxCell>
        <mxCell id="U0oo0eQeayt1dE6isxFw-179" value="" style="endArrow=classic;html=1;rounded=0;exitX=1;exitY=0.5;exitDx=0;exitDy=0;endSize=12;startSize=12;entryX=0;entryY=0.5;entryDx=0;entryDy=0;" edge="1" parent="1" target="U0oo0eQeayt1dE6isxFw-175">
          <mxGeometry width="50" height="50" relative="1" as="geometry">
            <mxPoint x="160" y="2140" as="sourcePoint" />
            <mxPoint x="330" y="2110" as="targetPoint" />
          </mxGeometry>
        </mxCell>
        <mxCell id="U0oo0eQeayt1dE6isxFw-185" value="&lt;span style=&quot;font-size: 18px;&quot;&gt;Tucumán&lt;/span&gt;" style="rounded=0;whiteSpace=wrap;html=1;" vertex="1" parent="1">
          <mxGeometry x="320" y="2320" width="200" height="40" as="geometry" />
        </mxCell>
        <mxCell id="U0oo0eQeayt1dE6isxFw-186" value="&lt;font style=&quot;font-size: 14px;&quot;&gt;&lt;b&gt;2&lt;/b&gt;&lt;/font&gt;" style="rounded=0;whiteSpace=wrap;html=1;fillColor=#B3B3B3;" vertex="1" parent="1">
          <mxGeometry x="320" y="2300" width="20" height="20" as="geometry" />
        </mxCell>
        <mxCell id="U0oo0eQeayt1dE6isxFw-187" value="" style="endArrow=classic;html=1;rounded=0;exitX=1;exitY=0.5;exitDx=0;exitDy=0;endSize=12;startSize=12;entryX=0;entryY=0.5;entryDx=0;entryDy=0;" edge="1" parent="1" target="U0oo0eQeayt1dE6isxFw-185">
          <mxGeometry width="50" height="50" relative="1" as="geometry">
            <mxPoint x="160" y="2220" as="sourcePoint" />
            <mxPoint x="330" y="2310" as="targetPoint" />
          </mxGeometry>
        </mxCell>
        <mxCell id="U0oo0eQeayt1dE6isxFw-189" value="" style="endArrow=classic;html=1;rounded=0;exitX=1;exitY=0.5;exitDx=0;exitDy=0;endSize=12;startSize=12;entryX=0;entryY=0.5;entryDx=0;entryDy=0;" edge="1" parent="1" target="U0oo0eQeayt1dE6isxFw-90">
          <mxGeometry width="50" height="50" relative="1" as="geometry">
            <mxPoint x="160" y="1099.9999999999995" as="sourcePoint" />
            <mxPoint x="330" y="1150" as="targetPoint" />
          </mxGeometry>
        </mxCell>
        <mxCell id="U0oo0eQeayt1dE6isxFw-190" value="" style="endArrow=classic;html=1;rounded=0;exitX=1;exitY=0.5;exitDx=0;exitDy=0;endSize=12;startSize=12;entryX=0;entryY=0.5;entryDx=0;entryDy=0;" edge="1" parent="1" target="U0oo0eQeayt1dE6isxFw-133">
          <mxGeometry width="50" height="50" relative="1" as="geometry">
            <mxPoint x="160" y="1739.9999999999995" as="sourcePoint" />
            <mxPoint x="330" y="1830" as="targetPoint" />
          </mxGeometry>
        </mxCell>
        <mxCell id="U0oo0eQeayt1dE6isxFw-203" value="" style="group" connectable="0" vertex="1" parent="1">
          <mxGeometry x="620" y="2440" width="280" height="40" as="geometry" />
        </mxCell>
        <mxCell id="U0oo0eQeayt1dE6isxFw-204" value="&lt;b&gt;...10&lt;font color=&quot;#ff99cc&quot;&gt;01&lt;/font&gt;&lt;/b&gt;" style="rounded=0;whiteSpace=wrap;html=1;align=center;fontSize=18;" vertex="1" parent="U0oo0eQeayt1dE6isxFw-203">
          <mxGeometry x="160" width="120" height="40" as="geometry" />
        </mxCell>
        <mxCell id="U0oo0eQeayt1dE6isxFw-205" value="&lt;b&gt;Buenos Aires&lt;/b&gt;" style="rounded=0;whiteSpace=wrap;html=1;align=center;fontSize=18;" vertex="1" parent="U0oo0eQeayt1dE6isxFw-203">
          <mxGeometry width="160" height="40" as="geometry" />
        </mxCell>
        <mxCell id="U0oo0eQeayt1dE6isxFw-206" value="1" style="rounded=0;whiteSpace=wrap;html=1;align=center;fontSize=18;" vertex="1" parent="1">
          <mxGeometry x="580" y="2440" width="40" height="40" as="geometry" />
        </mxCell>
        <mxCell id="U0oo0eQeayt1dE6isxFw-207" value="" style="group" connectable="0" vertex="1" parent="1">
          <mxGeometry x="620" y="2520" width="280" height="40" as="geometry" />
        </mxCell>
        <mxCell id="U0oo0eQeayt1dE6isxFw-208" value="&lt;b&gt;...01&lt;font color=&quot;#ff99cc&quot;&gt;11&lt;/font&gt;&lt;/b&gt;" style="rounded=0;whiteSpace=wrap;html=1;align=center;fontSize=18;" vertex="1" parent="U0oo0eQeayt1dE6isxFw-207">
          <mxGeometry x="160" width="120" height="40" as="geometry" />
        </mxCell>
        <mxCell id="U0oo0eQeayt1dE6isxFw-209" value="&lt;b&gt;Tucumán&lt;/b&gt;" style="rounded=0;whiteSpace=wrap;html=1;align=center;fontSize=18;" vertex="1" parent="U0oo0eQeayt1dE6isxFw-207">
          <mxGeometry width="160" height="40" as="geometry" />
        </mxCell>
        <mxCell id="U0oo0eQeayt1dE6isxFw-210" value="6" style="rounded=0;whiteSpace=wrap;html=1;align=center;fontSize=18;" vertex="1" parent="1">
          <mxGeometry x="580" y="2520" width="40" height="40" as="geometry" />
        </mxCell>
        <mxCell id="U0oo0eQeayt1dE6isxFw-211" value="" style="group" connectable="0" vertex="1" parent="1">
          <mxGeometry x="620" y="2480" width="280" height="40" as="geometry" />
        </mxCell>
        <mxCell id="U0oo0eQeayt1dE6isxFw-212" value="&lt;b&gt;...01&lt;font color=&quot;#ff99cc&quot;&gt;01&lt;/font&gt;&lt;/b&gt;" style="rounded=0;whiteSpace=wrap;html=1;align=center;fontSize=18;" vertex="1" parent="U0oo0eQeayt1dE6isxFw-211">
          <mxGeometry x="160" width="120" height="40" as="geometry" />
        </mxCell>
        <mxCell id="U0oo0eQeayt1dE6isxFw-213" value="&lt;b&gt;San Luis&lt;/b&gt;" style="rounded=0;whiteSpace=wrap;html=1;align=center;fontSize=18;" vertex="1" parent="U0oo0eQeayt1dE6isxFw-211">
          <mxGeometry width="160" height="40" as="geometry" />
        </mxCell>
        <mxCell id="U0oo0eQeayt1dE6isxFw-214" value="5" style="rounded=0;whiteSpace=wrap;html=1;align=center;fontSize=18;" vertex="1" parent="1">
          <mxGeometry x="580" y="2480" width="40" height="40" as="geometry" />
        </mxCell>
        <mxCell id="U0oo0eQeayt1dE6isxFw-216" value="&lt;div style=&quot;text-align: center;&quot;&gt;&lt;b style=&quot;font-size: 20px; background-color: initial;&quot;&gt;Paso 7: llega Rio Negro&lt;/b&gt;&lt;/div&gt;" style="text;html=1;align=left;verticalAlign=middle;whiteSpace=wrap;rounded=0;" vertex="1" parent="1">
          <mxGeometry x="40" y="2680" width="280" height="40" as="geometry" />
        </mxCell>
        <mxCell id="U0oo0eQeayt1dE6isxFw-218" value="&lt;span style=&quot;font-size: 18px;&quot;&gt;San Juan&lt;/span&gt;" style="rounded=0;whiteSpace=wrap;html=1;" vertex="1" parent="1">
          <mxGeometry x="320" y="2840" width="200" height="40" as="geometry" />
        </mxCell>
        <mxCell id="U0oo0eQeayt1dE6isxFw-220" value="&lt;font style=&quot;font-size: 14px;&quot;&gt;&lt;b&gt;2&lt;/b&gt;&lt;/font&gt;" style="rounded=0;whiteSpace=wrap;html=1;fillColor=#B3B3B3;" vertex="1" parent="1">
          <mxGeometry x="320" y="2820" width="20" height="20" as="geometry" />
        </mxCell>
        <mxCell id="U0oo0eQeayt1dE6isxFw-221" value="&lt;span style=&quot;background-color: initial; font-size: 16px;&quot;&gt;- Se&amp;nbsp;&lt;/span&gt;&lt;span style=&quot;font-size: 16px;&quot;&gt;aplica&amp;nbsp;&lt;/span&gt;&lt;span style=&quot;background-color: initial; font-size: 16px;&quot;&gt;la funcion de hash y se toman 2 bits&lt;/span&gt;&lt;div&gt;&lt;span style=&quot;font-size: 16px; background-color: initial;&quot;&gt;- Rio Negro&amp;nbsp;&lt;/span&gt;&lt;span style=&quot;font-size: 16px; background-color: initial;&quot;&gt;pasa al nodo con direccion 11&lt;/span&gt;&lt;/div&gt;&lt;div&gt;&lt;span style=&quot;background-color: initial; font-size: 16px;&quot;&gt;- Se produce una colision&lt;/span&gt;&lt;/div&gt;&lt;div&gt;&lt;span style=&quot;background-color: initial; font-size: 16px;&quot;&gt;- Como hay espacio en el nodo se inserta con normalidad.&lt;/span&gt;&lt;/div&gt;" style="text;html=1;align=left;verticalAlign=middle;whiteSpace=wrap;rounded=0;" vertex="1" parent="1">
          <mxGeometry x="560" y="2880" width="400" height="150" as="geometry" />
        </mxCell>
        <mxCell id="U0oo0eQeayt1dE6isxFw-222" value="" style="group" connectable="0" vertex="1" parent="1">
          <mxGeometry x="80" y="2720" width="280" height="40" as="geometry" />
        </mxCell>
        <mxCell id="U0oo0eQeayt1dE6isxFw-223" value="&lt;b&gt;...0011&lt;/b&gt;" style="rounded=0;whiteSpace=wrap;html=1;align=center;fontSize=18;" vertex="1" parent="U0oo0eQeayt1dE6isxFw-222">
          <mxGeometry x="160" width="120" height="40" as="geometry" />
        </mxCell>
        <mxCell id="U0oo0eQeayt1dE6isxFw-224" value="&lt;b&gt;Rio Negro&lt;/b&gt;" style="rounded=0;whiteSpace=wrap;html=1;align=center;fontSize=18;" vertex="1" parent="U0oo0eQeayt1dE6isxFw-222">
          <mxGeometry width="160" height="40" as="geometry" />
        </mxCell>
        <mxCell id="U0oo0eQeayt1dE6isxFw-225" value="" style="endArrow=none;html=1;rounded=0;" edge="1" parent="1">
          <mxGeometry width="50" height="50" relative="1" as="geometry">
            <mxPoint y="3200" as="sourcePoint" />
            <mxPoint x="1000" y="3200" as="targetPoint" />
          </mxGeometry>
        </mxCell>
        <mxCell id="U0oo0eQeayt1dE6isxFw-226" value="7" style="rounded=0;whiteSpace=wrap;html=1;align=center;fontSize=18;" vertex="1" parent="1">
          <mxGeometry x="40" y="2720" width="40" height="40" as="geometry" />
        </mxCell>
        <mxCell id="U0oo0eQeayt1dE6isxFw-227" value="&lt;span style=&quot;font-size: 17px;&quot;&gt;Buenos Aires |&amp;nbsp;&lt;/span&gt;&lt;span style=&quot;font-size: 18px;&quot;&gt;San Luis&lt;/span&gt;" style="rounded=0;whiteSpace=wrap;html=1;" vertex="1" parent="1">
          <mxGeometry x="320" y="3000" width="200" height="40" as="geometry" />
        </mxCell>
        <mxCell id="U0oo0eQeayt1dE6isxFw-228" value="&lt;font style=&quot;font-size: 14px;&quot;&gt;&lt;b&gt;2&lt;/b&gt;&lt;/font&gt;" style="rounded=0;whiteSpace=wrap;html=1;fillColor=#B3B3B3;" vertex="1" parent="1">
          <mxGeometry x="320" y="2980" width="20" height="20" as="geometry" />
        </mxCell>
        <mxCell id="U0oo0eQeayt1dE6isxFw-230" value="" style="endArrow=classic;html=1;rounded=0;exitX=1;exitY=0.5;exitDx=0;exitDy=0;endSize=12;startSize=12;entryX=0;entryY=0.5;entryDx=0;entryDy=0;" edge="1" parent="1" target="U0oo0eQeayt1dE6isxFw-218">
          <mxGeometry width="50" height="50" relative="1" as="geometry">
            <mxPoint x="160" y="2860" as="sourcePoint" />
            <mxPoint x="330" y="2890" as="targetPoint" />
          </mxGeometry>
        </mxCell>
        <mxCell id="U0oo0eQeayt1dE6isxFw-231" value="" style="endArrow=classic;html=1;rounded=0;exitX=1;exitY=0.5;exitDx=0;exitDy=0;endSize=12;startSize=12;entryX=0;entryY=0.5;entryDx=0;entryDy=0;" edge="1" parent="1" target="U0oo0eQeayt1dE6isxFw-227">
          <mxGeometry width="50" height="50" relative="1" as="geometry">
            <mxPoint x="160" y="2940" as="sourcePoint" />
            <mxPoint x="330" y="2870" as="targetPoint" />
          </mxGeometry>
        </mxCell>
        <mxCell id="U0oo0eQeayt1dE6isxFw-232" value="&lt;span style=&quot;font-size: 18px;&quot;&gt;Entre Ríos |&amp;nbsp;&lt;/span&gt;&lt;span style=&quot;font-size: 18px;&quot;&gt;Corrientes&lt;/span&gt;" style="rounded=0;whiteSpace=wrap;html=1;" vertex="1" parent="1">
          <mxGeometry x="320" y="2920" width="200" height="40" as="geometry" />
        </mxCell>
        <mxCell id="U0oo0eQeayt1dE6isxFw-233" value="&lt;font style=&quot;font-size: 14px;&quot;&gt;&lt;b&gt;2&lt;/b&gt;&lt;/font&gt;" style="rounded=0;whiteSpace=wrap;html=1;fillColor=#B3B3B3;" vertex="1" parent="1">
          <mxGeometry x="320" y="2900" width="20" height="20" as="geometry" />
        </mxCell>
        <mxCell id="U0oo0eQeayt1dE6isxFw-236" value="" style="endArrow=classic;html=1;rounded=0;exitX=1;exitY=0.5;exitDx=0;exitDy=0;endSize=12;startSize=12;entryX=0;entryY=0.5;entryDx=0;entryDy=0;" edge="1" parent="1" target="U0oo0eQeayt1dE6isxFw-232">
          <mxGeometry width="50" height="50" relative="1" as="geometry">
            <mxPoint x="160" y="2900" as="sourcePoint" />
            <mxPoint x="330" y="2870" as="targetPoint" />
          </mxGeometry>
        </mxCell>
        <mxCell id="U0oo0eQeayt1dE6isxFw-237" value="&lt;span style=&quot;font-size: 18px;&quot;&gt;Tucumán |&amp;nbsp;&lt;/span&gt;&lt;b style=&quot;font-size: 18px;&quot;&gt;Rio Negro&lt;/b&gt;" style="rounded=0;whiteSpace=wrap;html=1;" vertex="1" parent="1">
          <mxGeometry x="320" y="3080" width="200" height="40" as="geometry" />
        </mxCell>
        <mxCell id="U0oo0eQeayt1dE6isxFw-238" value="&lt;font style=&quot;font-size: 14px;&quot;&gt;&lt;b&gt;2&lt;/b&gt;&lt;/font&gt;" style="rounded=0;whiteSpace=wrap;html=1;fillColor=#B3B3B3;" vertex="1" parent="1">
          <mxGeometry x="320" y="3060" width="20" height="20" as="geometry" />
        </mxCell>
        <mxCell id="U0oo0eQeayt1dE6isxFw-239" value="" style="endArrow=classic;html=1;rounded=0;exitX=1;exitY=0.5;exitDx=0;exitDy=0;endSize=12;startSize=12;entryX=0;entryY=0.5;entryDx=0;entryDy=0;" edge="1" parent="1" target="U0oo0eQeayt1dE6isxFw-237">
          <mxGeometry width="50" height="50" relative="1" as="geometry">
            <mxPoint x="160" y="2980" as="sourcePoint" />
            <mxPoint x="330" y="3070" as="targetPoint" />
          </mxGeometry>
        </mxCell>
        <mxCell id="U0oo0eQeayt1dE6isxFw-252" value="&lt;div style=&quot;text-align: center;&quot;&gt;&lt;b style=&quot;font-size: 20px; background-color: initial;&quot;&gt;Paso 8: llega Jujuy&lt;/b&gt;&lt;/div&gt;" style="text;html=1;align=left;verticalAlign=middle;whiteSpace=wrap;rounded=0;" vertex="1" parent="1">
          <mxGeometry x="40" y="3240" width="280" height="40" as="geometry" />
        </mxCell>
        <mxCell id="U0oo0eQeayt1dE6isxFw-254" value="&lt;span style=&quot;font-size: 18px;&quot;&gt;San Juan&lt;/span&gt;" style="rounded=0;whiteSpace=wrap;html=1;" vertex="1" parent="1">
          <mxGeometry x="320" y="3400" width="200" height="40" as="geometry" />
        </mxCell>
        <mxCell id="U0oo0eQeayt1dE6isxFw-256" value="&lt;font style=&quot;font-size: 14px;&quot;&gt;&lt;b&gt;2&lt;/b&gt;&lt;/font&gt;" style="rounded=0;whiteSpace=wrap;html=1;fillColor=#B3B3B3;" vertex="1" parent="1">
          <mxGeometry x="320" y="3380" width="20" height="20" as="geometry" />
        </mxCell>
        <mxCell id="U0oo0eQeayt1dE6isxFw-257" value="&lt;span style=&quot;background-color: initial; font-size: 16px;&quot;&gt;- Se&amp;nbsp;&lt;/span&gt;&lt;span style=&quot;font-size: 16px;&quot;&gt;aplica&amp;nbsp;&lt;/span&gt;&lt;span style=&quot;background-color: initial; font-size: 16px;&quot;&gt;la funcion de hash y se toman 2 bits&lt;/span&gt;&lt;div&gt;&lt;span style=&quot;font-size: 16px; background-color: initial;&quot;&gt;- Corrientes&amp;nbsp;&lt;/span&gt;&lt;span style=&quot;font-size: 16px; background-color: initial;&quot;&gt;pasa al nodo con direccion 11&lt;/span&gt;&lt;/div&gt;&lt;div&gt;&lt;span style=&quot;background-color: initial; font-size: 16px;&quot;&gt;- Se produce una colision&lt;/span&gt;&lt;/div&gt;&lt;div&gt;&lt;span style=&quot;background-color: initial; font-size: 16px;&quot;&gt;- Como el nodo no cabe se produce un overflow&lt;/span&gt;&lt;/div&gt;&lt;div&gt;&lt;span style=&quot;background-color: initial; font-size: 16px;&quot;&gt;&lt;br&gt;&lt;/span&gt;&lt;/div&gt;&lt;div&gt;&lt;span style=&quot;background-color: initial; font-size: 16px;&quot;&gt;- Se le suma 1 a el valor del nodo con overflow&lt;/span&gt;&lt;/div&gt;&lt;div&gt;&lt;span style=&quot;background-color: initial; font-size: 16px;&quot;&gt;- Se crea un nuevo nodo con el valor del nodo con overflow&lt;/span&gt;&lt;/div&gt;&lt;div&gt;&lt;span style=&quot;background-color: initial; font-size: 16px;&quot;&gt;&lt;br&gt;&lt;/span&gt;&lt;/div&gt;&lt;div&gt;&lt;span style=&quot;font-size: 16px;&quot;&gt;- Se compara el valor del nodo (3) con el de la tabla (2)&lt;/span&gt;&lt;/div&gt;&lt;div&gt;&lt;span style=&quot;font-size: 16px;&quot;&gt;-&amp;nbsp;&lt;/span&gt;&lt;span style=&quot;background-color: initial; font-size: 16px;&quot;&gt;Como el numero de la tabla es menor al del nodo, duplicamos el tamaño de la tabla&amp;nbsp;&lt;/span&gt;&lt;span style=&quot;background-color: initial; font-size: 16px;&quot;&gt;y aumentamos el numero de bits a 3&lt;/span&gt;&lt;/div&gt;&lt;div&gt;&lt;span style=&quot;background-color: initial; font-size: 16px;&quot;&gt;&lt;br&gt;&lt;/span&gt;&lt;/div&gt;&lt;div&gt;&lt;div&gt;&lt;span style=&quot;font-size: 16px;&quot;&gt;&amp;nbsp;&lt;/span&gt;&lt;span style=&quot;background-color: initial; font-size: 16px;&quot;&gt;- Se toman&amp;nbsp;&lt;font color=&quot;#ff99cc&quot;&gt;3&lt;/font&gt;&lt;/span&gt;&lt;b style=&quot;background-color: initial; font-size: 16px;&quot;&gt;&lt;font color=&quot;#ff99cc&quot;&gt;&amp;nbsp;bits&amp;nbsp;&lt;/font&gt;&lt;/b&gt;&lt;span style=&quot;background-color: initial; font-size: 16px;&quot;&gt;de la funcion de hash asociada a cada clave&lt;/span&gt;&lt;/div&gt;&lt;div&gt;&lt;span style=&quot;font-size: 16px;&quot;&gt;- Reacomodamos las direcciones y los registros&lt;/span&gt;&lt;/div&gt;&lt;/div&gt;&lt;div&gt;&lt;span style=&quot;font-size: 16px;&quot;&gt;&lt;br&gt;&lt;/span&gt;&lt;/div&gt;" style="text;html=1;align=left;verticalAlign=middle;whiteSpace=wrap;rounded=0;" vertex="1" parent="1">
          <mxGeometry x="560" y="3280" width="400" height="410" as="geometry" />
        </mxCell>
        <mxCell id="U0oo0eQeayt1dE6isxFw-258" value="" style="group" connectable="0" vertex="1" parent="1">
          <mxGeometry x="80" y="3280" width="280" height="40" as="geometry" />
        </mxCell>
        <mxCell id="U0oo0eQeayt1dE6isxFw-259" value="&lt;b&gt;...1111&lt;/b&gt;" style="rounded=0;whiteSpace=wrap;html=1;align=center;fontSize=18;" vertex="1" parent="U0oo0eQeayt1dE6isxFw-258">
          <mxGeometry x="160" width="120" height="40" as="geometry" />
        </mxCell>
        <mxCell id="U0oo0eQeayt1dE6isxFw-260" value="&lt;b style=&quot;background-color: initial; font-size: 20px;&quot;&gt;Jujuy&lt;/b&gt;" style="rounded=0;whiteSpace=wrap;html=1;align=center;fontSize=18;" vertex="1" parent="U0oo0eQeayt1dE6isxFw-258">
          <mxGeometry width="160" height="40" as="geometry" />
        </mxCell>
        <mxCell id="U0oo0eQeayt1dE6isxFw-261" value="" style="endArrow=none;html=1;rounded=0;" edge="1" parent="1">
          <mxGeometry width="50" height="50" relative="1" as="geometry">
            <mxPoint y="3880" as="sourcePoint" />
            <mxPoint x="1000" y="3880" as="targetPoint" />
          </mxGeometry>
        </mxCell>
        <mxCell id="U0oo0eQeayt1dE6isxFw-262" value="8" style="rounded=0;whiteSpace=wrap;html=1;align=center;fontSize=18;" vertex="1" parent="1">
          <mxGeometry x="40" y="3280" width="40" height="40" as="geometry" />
        </mxCell>
        <mxCell id="U0oo0eQeayt1dE6isxFw-263" value="&lt;span style=&quot;font-size: 17px;&quot;&gt;Buenos Aires |&amp;nbsp;&lt;/span&gt;&lt;span style=&quot;font-size: 18px;&quot;&gt;San Luis&lt;/span&gt;" style="rounded=0;whiteSpace=wrap;html=1;" vertex="1" parent="1">
          <mxGeometry x="320" y="3560" width="200" height="40" as="geometry" />
        </mxCell>
        <mxCell id="U0oo0eQeayt1dE6isxFw-264" value="&lt;font style=&quot;font-size: 14px;&quot;&gt;&lt;b&gt;2&lt;/b&gt;&lt;/font&gt;" style="rounded=0;whiteSpace=wrap;html=1;fillColor=#B3B3B3;" vertex="1" parent="1">
          <mxGeometry x="320" y="3540" width="20" height="20" as="geometry" />
        </mxCell>
        <mxCell id="U0oo0eQeayt1dE6isxFw-266" value="" style="endArrow=classic;html=1;rounded=0;exitX=1;exitY=0.5;exitDx=0;exitDy=0;endSize=12;startSize=12;entryX=0;entryY=0.5;entryDx=0;entryDy=0;" edge="1" parent="1" target="U0oo0eQeayt1dE6isxFw-254">
          <mxGeometry width="50" height="50" relative="1" as="geometry">
            <mxPoint x="160" y="3420" as="sourcePoint" />
            <mxPoint x="330" y="3450" as="targetPoint" />
          </mxGeometry>
        </mxCell>
        <mxCell id="U0oo0eQeayt1dE6isxFw-267" value="" style="endArrow=classic;html=1;rounded=0;exitX=1;exitY=0.5;exitDx=0;exitDy=0;endSize=12;startSize=12;entryX=0;entryY=0.5;entryDx=0;entryDy=0;" edge="1" parent="1" target="U0oo0eQeayt1dE6isxFw-268">
          <mxGeometry width="50" height="50" relative="1" as="geometry">
            <mxPoint x="160" y="3500" as="sourcePoint" />
            <mxPoint x="330" y="3430" as="targetPoint" />
          </mxGeometry>
        </mxCell>
        <mxCell id="U0oo0eQeayt1dE6isxFw-268" value="&lt;span style=&quot;font-size: 18px;&quot;&gt;Entre Ríos |&amp;nbsp;&lt;/span&gt;&lt;span style=&quot;font-size: 18px;&quot;&gt;Corrientes&lt;/span&gt;" style="rounded=0;whiteSpace=wrap;html=1;" vertex="1" parent="1">
          <mxGeometry x="320" y="3480" width="200" height="40" as="geometry" />
        </mxCell>
        <mxCell id="U0oo0eQeayt1dE6isxFw-269" value="&lt;font style=&quot;font-size: 14px;&quot;&gt;&lt;b&gt;2&lt;/b&gt;&lt;/font&gt;" style="rounded=0;whiteSpace=wrap;html=1;fillColor=#B3B3B3;" vertex="1" parent="1">
          <mxGeometry x="320" y="3460" width="20" height="20" as="geometry" />
        </mxCell>
        <mxCell id="U0oo0eQeayt1dE6isxFw-272" value="" style="endArrow=classic;html=1;rounded=0;exitX=1;exitY=0.5;exitDx=0;exitDy=0;endSize=12;startSize=12;entryX=0;entryY=0.5;entryDx=0;entryDy=0;" edge="1" parent="1" target="U0oo0eQeayt1dE6isxFw-254">
          <mxGeometry width="50" height="50" relative="1" as="geometry">
            <mxPoint x="160" y="3460" as="sourcePoint" />
            <mxPoint x="330" y="3430" as="targetPoint" />
          </mxGeometry>
        </mxCell>
        <mxCell id="U0oo0eQeayt1dE6isxFw-273" value="&lt;span style=&quot;font-size: 18px;&quot;&gt;Rio Negro&lt;/span&gt;" style="rounded=0;whiteSpace=wrap;html=1;" vertex="1" parent="1">
          <mxGeometry x="320" y="3640" width="200" height="40" as="geometry" />
        </mxCell>
        <mxCell id="U0oo0eQeayt1dE6isxFw-274" value="&lt;font style=&quot;font-size: 14px;&quot;&gt;&lt;b&gt;3&lt;/b&gt;&lt;/font&gt;" style="rounded=0;whiteSpace=wrap;html=1;fillColor=#B3B3B3;" vertex="1" parent="1">
          <mxGeometry x="320" y="3620" width="20" height="20" as="geometry" />
        </mxCell>
        <mxCell id="U0oo0eQeayt1dE6isxFw-275" value="" style="endArrow=classic;html=1;rounded=0;exitX=1;exitY=0.5;exitDx=0;exitDy=0;endSize=12;startSize=12;entryX=0;entryY=0.5;entryDx=0;entryDy=0;" edge="1" parent="1" target="U0oo0eQeayt1dE6isxFw-268">
          <mxGeometry width="50" height="50" relative="1" as="geometry">
            <mxPoint x="160" y="3540" as="sourcePoint" />
            <mxPoint x="270" y="3640" as="targetPoint" />
          </mxGeometry>
        </mxCell>
        <mxCell id="U0oo0eQeayt1dE6isxFw-285" value="&lt;span style=&quot;font-size: 18px;&quot;&gt;Tucumán |&amp;nbsp;&lt;/span&gt;&lt;span style=&quot;font-size: 18px;&quot;&gt;Jujuy&lt;/span&gt;" style="rounded=0;whiteSpace=wrap;html=1;" vertex="1" parent="1">
          <mxGeometry x="320" y="3720" width="200" height="40" as="geometry" />
        </mxCell>
        <mxCell id="U0oo0eQeayt1dE6isxFw-286" value="&lt;font style=&quot;font-size: 14px;&quot;&gt;&lt;b&gt;3&lt;/b&gt;&lt;/font&gt;" style="rounded=0;whiteSpace=wrap;html=1;fillColor=#B3B3B3;" vertex="1" parent="1">
          <mxGeometry x="320" y="3700" width="20" height="20" as="geometry" />
        </mxCell>
        <mxCell id="U0oo0eQeayt1dE6isxFw-287" value="" style="group" connectable="0" vertex="1" parent="1">
          <mxGeometry x="630" y="3760" width="280" height="40" as="geometry" />
        </mxCell>
        <mxCell id="U0oo0eQeayt1dE6isxFw-288" value="&lt;b&gt;...1&lt;font color=&quot;#ff99cc&quot;&gt;111&lt;/font&gt;&lt;/b&gt;" style="rounded=0;whiteSpace=wrap;html=1;align=center;fontSize=18;" vertex="1" parent="U0oo0eQeayt1dE6isxFw-287">
          <mxGeometry x="160" width="120" height="40" as="geometry" />
        </mxCell>
        <mxCell id="U0oo0eQeayt1dE6isxFw-289" value="&lt;b style=&quot;background-color: initial; font-size: 20px;&quot;&gt;Jujuy&lt;/b&gt;" style="rounded=0;whiteSpace=wrap;html=1;align=center;fontSize=18;" vertex="1" parent="U0oo0eQeayt1dE6isxFw-287">
          <mxGeometry width="160" height="40" as="geometry" />
        </mxCell>
        <mxCell id="U0oo0eQeayt1dE6isxFw-290" value="8" style="rounded=0;whiteSpace=wrap;html=1;align=center;fontSize=18;" vertex="1" parent="1">
          <mxGeometry x="590" y="3760" width="40" height="40" as="geometry" />
        </mxCell>
        <mxCell id="U0oo0eQeayt1dE6isxFw-291" value="" style="group" connectable="0" vertex="1" parent="1">
          <mxGeometry x="630" y="3680" width="280" height="40" as="geometry" />
        </mxCell>
        <mxCell id="U0oo0eQeayt1dE6isxFw-292" value="&lt;b&gt;...0&lt;font color=&quot;#ff99cc&quot;&gt;111&lt;/font&gt;&lt;/b&gt;" style="rounded=0;whiteSpace=wrap;html=1;align=center;fontSize=18;" vertex="1" parent="U0oo0eQeayt1dE6isxFw-291">
          <mxGeometry x="160" width="120" height="40" as="geometry" />
        </mxCell>
        <mxCell id="U0oo0eQeayt1dE6isxFw-293" value="&lt;b&gt;Tucumán&lt;/b&gt;" style="rounded=0;whiteSpace=wrap;html=1;align=center;fontSize=18;" vertex="1" parent="U0oo0eQeayt1dE6isxFw-291">
          <mxGeometry width="160" height="40" as="geometry" />
        </mxCell>
        <mxCell id="U0oo0eQeayt1dE6isxFw-294" value="6" style="rounded=0;whiteSpace=wrap;html=1;align=center;fontSize=18;" vertex="1" parent="1">
          <mxGeometry x="590" y="3680" width="40" height="40" as="geometry" />
        </mxCell>
        <mxCell id="U0oo0eQeayt1dE6isxFw-295" value="" style="group" connectable="0" vertex="1" parent="1">
          <mxGeometry x="630" y="3720" width="280" height="40" as="geometry" />
        </mxCell>
        <mxCell id="U0oo0eQeayt1dE6isxFw-296" value="&lt;b&gt;...0&lt;font color=&quot;#ff99cc&quot;&gt;011&lt;/font&gt;&lt;/b&gt;" style="rounded=0;whiteSpace=wrap;html=1;align=center;fontSize=18;" vertex="1" parent="U0oo0eQeayt1dE6isxFw-295">
          <mxGeometry x="160" width="120" height="40" as="geometry" />
        </mxCell>
        <mxCell id="U0oo0eQeayt1dE6isxFw-297" value="&lt;b&gt;Rio Negro&lt;/b&gt;" style="rounded=0;whiteSpace=wrap;html=1;align=center;fontSize=18;" vertex="1" parent="U0oo0eQeayt1dE6isxFw-295">
          <mxGeometry width="160" height="40" as="geometry" />
        </mxCell>
        <mxCell id="U0oo0eQeayt1dE6isxFw-298" value="7" style="rounded=0;whiteSpace=wrap;html=1;align=center;fontSize=18;" vertex="1" parent="1">
          <mxGeometry x="590" y="3720" width="40" height="40" as="geometry" />
        </mxCell>
        <mxCell id="U0oo0eQeayt1dE6isxFw-299" value="" style="endArrow=classic;html=1;rounded=0;exitX=1;exitY=0.5;exitDx=0;exitDy=0;endSize=12;startSize=12;entryX=0;entryY=0.5;entryDx=0;entryDy=0;" edge="1" parent="1" target="U0oo0eQeayt1dE6isxFw-263">
          <mxGeometry width="50" height="50" relative="1" as="geometry">
            <mxPoint x="160" y="3580" as="sourcePoint" />
            <mxPoint x="360" y="3600" as="targetPoint" />
          </mxGeometry>
        </mxCell>
        <mxCell id="U0oo0eQeayt1dE6isxFw-300" value="" style="endArrow=classic;html=1;rounded=0;exitX=1;exitY=0.5;exitDx=0;exitDy=0;endSize=12;startSize=12;entryX=0;entryY=0.5;entryDx=0;entryDy=0;" edge="1" parent="1" target="U0oo0eQeayt1dE6isxFw-263">
          <mxGeometry width="50" height="50" relative="1" as="geometry">
            <mxPoint x="160" y="3620" as="sourcePoint" />
            <mxPoint x="330" y="3510" as="targetPoint" />
          </mxGeometry>
        </mxCell>
        <mxCell id="U0oo0eQeayt1dE6isxFw-301" value="" style="endArrow=classic;html=1;rounded=0;exitX=1;exitY=0.5;exitDx=0;exitDy=0;endSize=12;startSize=12;entryX=0;entryY=0.5;entryDx=0;entryDy=0;" edge="1" parent="1" target="U0oo0eQeayt1dE6isxFw-273">
          <mxGeometry width="50" height="50" relative="1" as="geometry">
            <mxPoint x="160" y="3660" as="sourcePoint" />
            <mxPoint x="340" y="3620" as="targetPoint" />
          </mxGeometry>
        </mxCell>
        <mxCell id="U0oo0eQeayt1dE6isxFw-302" value="" style="endArrow=classic;html=1;rounded=0;endSize=12;startSize=12;entryX=0;entryY=0.5;entryDx=0;entryDy=0;" edge="1" parent="1" target="U0oo0eQeayt1dE6isxFw-285">
          <mxGeometry width="50" height="50" relative="1" as="geometry">
            <mxPoint x="160" y="3700" as="sourcePoint" />
            <mxPoint x="320" y="3698.82" as="targetPoint" />
          </mxGeometry>
        </mxCell>
        <mxCell id="zohfdWpynvSQTxGay5ZG-1" value="&lt;b style=&quot;font-size: 16px;&quot;&gt;Dirección&lt;/b&gt;" style="rounded=0;whiteSpace=wrap;html=1;" vertex="1" parent="1">
          <mxGeometry x="40" y="360" width="120" height="40" as="geometry" />
        </mxCell>
        <mxCell id="zohfdWpynvSQTxGay5ZG-2" value="&lt;font style=&quot;font-size: 14px;&quot;&gt;&lt;b&gt;1&lt;/b&gt;&lt;/font&gt;" style="rounded=0;whiteSpace=wrap;html=1;fillColor=#B3B3B3;" vertex="1" parent="1">
          <mxGeometry x="40" y="340" width="20" height="20" as="geometry" />
        </mxCell>
        <mxCell id="zohfdWpynvSQTxGay5ZG-3" value="&lt;b style=&quot;font-size: 16px;&quot;&gt;Dirección&lt;/b&gt;" style="rounded=0;whiteSpace=wrap;html=1;" vertex="1" parent="1">
          <mxGeometry x="40" y="400" width="120" height="40" as="geometry" />
        </mxCell>
        <mxCell id="zohfdWpynvSQTxGay5ZG-4" value="&lt;b&gt;&lt;font style=&quot;font-size: 16px;&quot;&gt;0&lt;/font&gt;&lt;/b&gt;" style="text;html=1;align=center;verticalAlign=middle;whiteSpace=wrap;rounded=0;" vertex="1" parent="1">
          <mxGeometry y="360" width="40" height="40" as="geometry" />
        </mxCell>
        <mxCell id="zohfdWpynvSQTxGay5ZG-5" value="&lt;b&gt;&lt;font style=&quot;font-size: 16px;&quot;&gt;1&lt;/font&gt;&lt;/b&gt;" style="text;html=1;align=center;verticalAlign=middle;whiteSpace=wrap;rounded=0;" vertex="1" parent="1">
          <mxGeometry y="400" width="40" height="40" as="geometry" />
        </mxCell>
        <mxCell id="zohfdWpynvSQTxGay5ZG-6" value="&lt;b style=&quot;font-size: 16px;&quot;&gt;Dirección&lt;/b&gt;" style="rounded=0;whiteSpace=wrap;html=1;" vertex="1" parent="1">
          <mxGeometry x="40" y="2080" width="120" height="40" as="geometry" />
        </mxCell>
        <mxCell id="zohfdWpynvSQTxGay5ZG-7" value="&lt;font style=&quot;font-size: 14px;&quot;&gt;&lt;b&gt;2&lt;/b&gt;&lt;/font&gt;" style="rounded=0;whiteSpace=wrap;html=1;fillColor=#B3B3B3;" vertex="1" parent="1">
          <mxGeometry x="40" y="2060" width="20" height="20" as="geometry" />
        </mxCell>
        <mxCell id="zohfdWpynvSQTxGay5ZG-8" value="&lt;b style=&quot;font-size: 16px;&quot;&gt;Dirección&lt;/b&gt;" style="rounded=0;whiteSpace=wrap;html=1;" vertex="1" parent="1">
          <mxGeometry x="40" y="2120" width="120" height="40" as="geometry" />
        </mxCell>
        <mxCell id="zohfdWpynvSQTxGay5ZG-9" value="&lt;b style=&quot;font-size: 16px;&quot;&gt;Dirección&lt;/b&gt;" style="rounded=0;whiteSpace=wrap;html=1;" vertex="1" parent="1">
          <mxGeometry x="40" y="2160" width="120" height="40" as="geometry" />
        </mxCell>
        <mxCell id="zohfdWpynvSQTxGay5ZG-10" value="&lt;b style=&quot;font-size: 16px;&quot;&gt;Dirección&lt;/b&gt;" style="rounded=0;whiteSpace=wrap;html=1;" vertex="1" parent="1">
          <mxGeometry x="40" y="2200" width="120" height="40" as="geometry" />
        </mxCell>
        <mxCell id="zohfdWpynvSQTxGay5ZG-11" value="&lt;b&gt;&lt;font style=&quot;font-size: 16px;&quot;&gt;00&lt;/font&gt;&lt;/b&gt;" style="text;html=1;align=center;verticalAlign=middle;whiteSpace=wrap;rounded=0;" vertex="1" parent="1">
          <mxGeometry y="2080" width="40" height="40" as="geometry" />
        </mxCell>
        <mxCell id="zohfdWpynvSQTxGay5ZG-12" value="&lt;b&gt;&lt;font style=&quot;font-size: 16px;&quot;&gt;10&lt;/font&gt;&lt;/b&gt;" style="text;html=1;align=center;verticalAlign=middle;whiteSpace=wrap;rounded=0;" vertex="1" parent="1">
          <mxGeometry y="2120" width="40" height="40" as="geometry" />
        </mxCell>
        <mxCell id="zohfdWpynvSQTxGay5ZG-13" value="&lt;b&gt;&lt;font style=&quot;font-size: 16px;&quot;&gt;01&lt;/font&gt;&lt;/b&gt;" style="text;html=1;align=center;verticalAlign=middle;whiteSpace=wrap;rounded=0;" vertex="1" parent="1">
          <mxGeometry y="2160" width="40" height="40" as="geometry" />
        </mxCell>
        <mxCell id="zohfdWpynvSQTxGay5ZG-14" value="&lt;b&gt;&lt;font style=&quot;font-size: 16px;&quot;&gt;11&lt;/font&gt;&lt;/b&gt;" style="text;html=1;align=center;verticalAlign=middle;whiteSpace=wrap;rounded=0;" vertex="1" parent="1">
          <mxGeometry y="2200" width="40" height="40" as="geometry" />
        </mxCell>
        <mxCell id="zohfdWpynvSQTxGay5ZG-15" value="&lt;b style=&quot;font-size: 16px;&quot;&gt;Dirección&lt;/b&gt;" style="rounded=0;whiteSpace=wrap;html=1;" vertex="1" parent="1">
          <mxGeometry x="40" y="1600" width="120" height="40" as="geometry" />
        </mxCell>
        <mxCell id="zohfdWpynvSQTxGay5ZG-16" value="&lt;font style=&quot;font-size: 14px;&quot;&gt;&lt;b&gt;2&lt;/b&gt;&lt;/font&gt;" style="rounded=0;whiteSpace=wrap;html=1;fillColor=#B3B3B3;" vertex="1" parent="1">
          <mxGeometry x="40" y="1580" width="20" height="20" as="geometry" />
        </mxCell>
        <mxCell id="zohfdWpynvSQTxGay5ZG-17" value="&lt;b style=&quot;font-size: 16px;&quot;&gt;Dirección&lt;/b&gt;" style="rounded=0;whiteSpace=wrap;html=1;" vertex="1" parent="1">
          <mxGeometry x="40" y="1640" width="120" height="40" as="geometry" />
        </mxCell>
        <mxCell id="zohfdWpynvSQTxGay5ZG-18" value="&lt;b style=&quot;font-size: 16px;&quot;&gt;Dirección&lt;/b&gt;" style="rounded=0;whiteSpace=wrap;html=1;" vertex="1" parent="1">
          <mxGeometry x="40" y="1680" width="120" height="40" as="geometry" />
        </mxCell>
        <mxCell id="zohfdWpynvSQTxGay5ZG-19" value="&lt;b style=&quot;font-size: 16px;&quot;&gt;Dirección&lt;/b&gt;" style="rounded=0;whiteSpace=wrap;html=1;" vertex="1" parent="1">
          <mxGeometry x="40" y="1720" width="120" height="40" as="geometry" />
        </mxCell>
        <mxCell id="zohfdWpynvSQTxGay5ZG-20" value="&lt;b&gt;&lt;font style=&quot;font-size: 16px;&quot;&gt;00&lt;/font&gt;&lt;/b&gt;" style="text;html=1;align=center;verticalAlign=middle;whiteSpace=wrap;rounded=0;" vertex="1" parent="1">
          <mxGeometry y="1600" width="40" height="40" as="geometry" />
        </mxCell>
        <mxCell id="zohfdWpynvSQTxGay5ZG-21" value="&lt;b&gt;&lt;font style=&quot;font-size: 16px;&quot;&gt;10&lt;/font&gt;&lt;/b&gt;" style="text;html=1;align=center;verticalAlign=middle;whiteSpace=wrap;rounded=0;" vertex="1" parent="1">
          <mxGeometry y="1640" width="40" height="40" as="geometry" />
        </mxCell>
        <mxCell id="zohfdWpynvSQTxGay5ZG-22" value="&lt;b&gt;&lt;font style=&quot;font-size: 16px;&quot;&gt;01&lt;/font&gt;&lt;/b&gt;" style="text;html=1;align=center;verticalAlign=middle;whiteSpace=wrap;rounded=0;" vertex="1" parent="1">
          <mxGeometry y="1680" width="40" height="40" as="geometry" />
        </mxCell>
        <mxCell id="zohfdWpynvSQTxGay5ZG-23" value="&lt;b&gt;&lt;font style=&quot;font-size: 16px;&quot;&gt;11&lt;/font&gt;&lt;/b&gt;" style="text;html=1;align=center;verticalAlign=middle;whiteSpace=wrap;rounded=0;" vertex="1" parent="1">
          <mxGeometry y="1720" width="40" height="40" as="geometry" />
        </mxCell>
        <mxCell id="zohfdWpynvSQTxGay5ZG-24" value="&lt;b style=&quot;font-size: 16px;&quot;&gt;Dirección&lt;/b&gt;" style="rounded=0;whiteSpace=wrap;html=1;" vertex="1" parent="1">
          <mxGeometry x="40" y="960" width="120" height="40" as="geometry" />
        </mxCell>
        <mxCell id="zohfdWpynvSQTxGay5ZG-25" value="&lt;font style=&quot;font-size: 14px;&quot;&gt;&lt;b&gt;2&lt;/b&gt;&lt;/font&gt;" style="rounded=0;whiteSpace=wrap;html=1;fillColor=#B3B3B3;" vertex="1" parent="1">
          <mxGeometry x="40" y="940" width="20" height="20" as="geometry" />
        </mxCell>
        <mxCell id="zohfdWpynvSQTxGay5ZG-26" value="&lt;b style=&quot;font-size: 16px;&quot;&gt;Dirección&lt;/b&gt;" style="rounded=0;whiteSpace=wrap;html=1;" vertex="1" parent="1">
          <mxGeometry x="40" y="1000" width="120" height="40" as="geometry" />
        </mxCell>
        <mxCell id="zohfdWpynvSQTxGay5ZG-27" value="&lt;b style=&quot;font-size: 16px;&quot;&gt;Dirección&lt;/b&gt;" style="rounded=0;whiteSpace=wrap;html=1;" vertex="1" parent="1">
          <mxGeometry x="40" y="1040" width="120" height="40" as="geometry" />
        </mxCell>
        <mxCell id="zohfdWpynvSQTxGay5ZG-28" value="&lt;b style=&quot;font-size: 16px;&quot;&gt;Dirección&lt;/b&gt;" style="rounded=0;whiteSpace=wrap;html=1;" vertex="1" parent="1">
          <mxGeometry x="40" y="1080" width="120" height="40" as="geometry" />
        </mxCell>
        <mxCell id="zohfdWpynvSQTxGay5ZG-29" value="&lt;b&gt;&lt;font style=&quot;font-size: 16px;&quot;&gt;00&lt;/font&gt;&lt;/b&gt;" style="text;html=1;align=center;verticalAlign=middle;whiteSpace=wrap;rounded=0;" vertex="1" parent="1">
          <mxGeometry y="960" width="40" height="40" as="geometry" />
        </mxCell>
        <mxCell id="zohfdWpynvSQTxGay5ZG-30" value="&lt;b&gt;&lt;font style=&quot;font-size: 16px;&quot;&gt;10&lt;/font&gt;&lt;/b&gt;" style="text;html=1;align=center;verticalAlign=middle;whiteSpace=wrap;rounded=0;" vertex="1" parent="1">
          <mxGeometry y="1000" width="40" height="40" as="geometry" />
        </mxCell>
        <mxCell id="zohfdWpynvSQTxGay5ZG-31" value="&lt;b&gt;&lt;font style=&quot;font-size: 16px;&quot;&gt;01&lt;/font&gt;&lt;/b&gt;" style="text;html=1;align=center;verticalAlign=middle;whiteSpace=wrap;rounded=0;" vertex="1" parent="1">
          <mxGeometry y="1040" width="40" height="40" as="geometry" />
        </mxCell>
        <mxCell id="zohfdWpynvSQTxGay5ZG-32" value="&lt;b&gt;&lt;font style=&quot;font-size: 16px;&quot;&gt;11&lt;/font&gt;&lt;/b&gt;" style="text;html=1;align=center;verticalAlign=middle;whiteSpace=wrap;rounded=0;" vertex="1" parent="1">
          <mxGeometry y="1080" width="40" height="40" as="geometry" />
        </mxCell>
        <mxCell id="zohfdWpynvSQTxGay5ZG-33" value="&lt;b style=&quot;font-size: 16px;&quot;&gt;Dirección&lt;/b&gt;" style="rounded=0;whiteSpace=wrap;html=1;" vertex="1" parent="1">
          <mxGeometry x="40" y="2840" width="120" height="40" as="geometry" />
        </mxCell>
        <mxCell id="zohfdWpynvSQTxGay5ZG-34" value="&lt;font style=&quot;font-size: 14px;&quot;&gt;&lt;b&gt;2&lt;/b&gt;&lt;/font&gt;" style="rounded=0;whiteSpace=wrap;html=1;fillColor=#B3B3B3;" vertex="1" parent="1">
          <mxGeometry x="40" y="2820" width="20" height="20" as="geometry" />
        </mxCell>
        <mxCell id="zohfdWpynvSQTxGay5ZG-35" value="&lt;b style=&quot;font-size: 16px;&quot;&gt;Dirección&lt;/b&gt;" style="rounded=0;whiteSpace=wrap;html=1;" vertex="1" parent="1">
          <mxGeometry x="40" y="2880" width="120" height="40" as="geometry" />
        </mxCell>
        <mxCell id="zohfdWpynvSQTxGay5ZG-36" value="&lt;b style=&quot;font-size: 16px;&quot;&gt;Dirección&lt;/b&gt;" style="rounded=0;whiteSpace=wrap;html=1;" vertex="1" parent="1">
          <mxGeometry x="40" y="2920" width="120" height="40" as="geometry" />
        </mxCell>
        <mxCell id="zohfdWpynvSQTxGay5ZG-37" value="&lt;b style=&quot;font-size: 16px;&quot;&gt;Dirección&lt;/b&gt;" style="rounded=0;whiteSpace=wrap;html=1;" vertex="1" parent="1">
          <mxGeometry x="40" y="2960" width="120" height="40" as="geometry" />
        </mxCell>
        <mxCell id="zohfdWpynvSQTxGay5ZG-38" value="&lt;b&gt;&lt;font style=&quot;font-size: 16px;&quot;&gt;00&lt;/font&gt;&lt;/b&gt;" style="text;html=1;align=center;verticalAlign=middle;whiteSpace=wrap;rounded=0;" vertex="1" parent="1">
          <mxGeometry y="2840" width="40" height="40" as="geometry" />
        </mxCell>
        <mxCell id="zohfdWpynvSQTxGay5ZG-39" value="&lt;b&gt;&lt;font style=&quot;font-size: 16px;&quot;&gt;10&lt;/font&gt;&lt;/b&gt;" style="text;html=1;align=center;verticalAlign=middle;whiteSpace=wrap;rounded=0;" vertex="1" parent="1">
          <mxGeometry y="2880" width="40" height="40" as="geometry" />
        </mxCell>
        <mxCell id="zohfdWpynvSQTxGay5ZG-40" value="&lt;b&gt;&lt;font style=&quot;font-size: 16px;&quot;&gt;01&lt;/font&gt;&lt;/b&gt;" style="text;html=1;align=center;verticalAlign=middle;whiteSpace=wrap;rounded=0;" vertex="1" parent="1">
          <mxGeometry y="2920" width="40" height="40" as="geometry" />
        </mxCell>
        <mxCell id="zohfdWpynvSQTxGay5ZG-41" value="&lt;b&gt;&lt;font style=&quot;font-size: 16px;&quot;&gt;11&lt;/font&gt;&lt;/b&gt;" style="text;html=1;align=center;verticalAlign=middle;whiteSpace=wrap;rounded=0;" vertex="1" parent="1">
          <mxGeometry y="2960" width="40" height="40" as="geometry" />
        </mxCell>
        <mxCell id="zohfdWpynvSQTxGay5ZG-42" value="&lt;b style=&quot;font-size: 16px;&quot;&gt;Dirección&lt;/b&gt;" style="rounded=0;whiteSpace=wrap;html=1;" vertex="1" parent="1">
          <mxGeometry x="40" y="3400" width="120" height="40" as="geometry" />
        </mxCell>
        <mxCell id="zohfdWpynvSQTxGay5ZG-43" value="&lt;font style=&quot;font-size: 14px;&quot;&gt;&lt;b&gt;3&lt;/b&gt;&lt;/font&gt;" style="rounded=0;whiteSpace=wrap;html=1;fillColor=#B3B3B3;" vertex="1" parent="1">
          <mxGeometry x="40" y="3380" width="20" height="20" as="geometry" />
        </mxCell>
        <mxCell id="zohfdWpynvSQTxGay5ZG-44" value="&lt;b style=&quot;font-size: 16px;&quot;&gt;Dirección&lt;/b&gt;" style="rounded=0;whiteSpace=wrap;html=1;" vertex="1" parent="1">
          <mxGeometry x="40" y="3440" width="120" height="40" as="geometry" />
        </mxCell>
        <mxCell id="zohfdWpynvSQTxGay5ZG-45" value="&lt;b style=&quot;font-size: 16px;&quot;&gt;Dirección&lt;/b&gt;" style="rounded=0;whiteSpace=wrap;html=1;" vertex="1" parent="1">
          <mxGeometry x="40" y="3480" width="120" height="40" as="geometry" />
        </mxCell>
        <mxCell id="zohfdWpynvSQTxGay5ZG-46" value="&lt;b style=&quot;font-size: 16px;&quot;&gt;Dirección&lt;/b&gt;" style="rounded=0;whiteSpace=wrap;html=1;" vertex="1" parent="1">
          <mxGeometry x="40" y="3520" width="120" height="40" as="geometry" />
        </mxCell>
        <mxCell id="zohfdWpynvSQTxGay5ZG-47" value="&lt;b style=&quot;font-size: 16px;&quot;&gt;Dirección&lt;/b&gt;" style="rounded=0;whiteSpace=wrap;html=1;" vertex="1" parent="1">
          <mxGeometry x="40" y="3560" width="120" height="40" as="geometry" />
        </mxCell>
        <mxCell id="zohfdWpynvSQTxGay5ZG-48" value="&lt;b style=&quot;font-size: 16px;&quot;&gt;Dirección&lt;/b&gt;" style="rounded=0;whiteSpace=wrap;html=1;" vertex="1" parent="1">
          <mxGeometry x="40" y="3600" width="120" height="40" as="geometry" />
        </mxCell>
        <mxCell id="zohfdWpynvSQTxGay5ZG-49" value="&lt;b style=&quot;font-size: 16px;&quot;&gt;Dirección&lt;/b&gt;" style="rounded=0;whiteSpace=wrap;html=1;" vertex="1" parent="1">
          <mxGeometry x="40" y="3640" width="120" height="40" as="geometry" />
        </mxCell>
        <mxCell id="zohfdWpynvSQTxGay5ZG-50" value="&lt;b style=&quot;font-size: 16px;&quot;&gt;Dirección&lt;/b&gt;" style="rounded=0;whiteSpace=wrap;html=1;" vertex="1" parent="1">
          <mxGeometry x="40" y="3680" width="120" height="40" as="geometry" />
        </mxCell>
        <mxCell id="zohfdWpynvSQTxGay5ZG-51" value="&lt;b&gt;&lt;font style=&quot;font-size: 16px;&quot;&gt;000&lt;/font&gt;&lt;/b&gt;" style="text;html=1;align=center;verticalAlign=middle;whiteSpace=wrap;rounded=0;" vertex="1" parent="1">
          <mxGeometry y="3400" width="40" height="40" as="geometry" />
        </mxCell>
        <mxCell id="zohfdWpynvSQTxGay5ZG-52" value="&lt;b&gt;&lt;font style=&quot;font-size: 16px;&quot;&gt;100&lt;/font&gt;&lt;/b&gt;" style="text;html=1;align=center;verticalAlign=middle;whiteSpace=wrap;rounded=0;" vertex="1" parent="1">
          <mxGeometry y="3440" width="40" height="40" as="geometry" />
        </mxCell>
        <mxCell id="zohfdWpynvSQTxGay5ZG-53" value="&lt;b&gt;&lt;font style=&quot;font-size: 16px;&quot;&gt;010&lt;/font&gt;&lt;/b&gt;" style="text;html=1;align=center;verticalAlign=middle;whiteSpace=wrap;rounded=0;" vertex="1" parent="1">
          <mxGeometry y="3480" width="40" height="40" as="geometry" />
        </mxCell>
        <mxCell id="zohfdWpynvSQTxGay5ZG-54" value="&lt;b&gt;&lt;font style=&quot;font-size: 16px;&quot;&gt;110&lt;/font&gt;&lt;/b&gt;" style="text;html=1;align=center;verticalAlign=middle;whiteSpace=wrap;rounded=0;" vertex="1" parent="1">
          <mxGeometry y="3520" width="40" height="40" as="geometry" />
        </mxCell>
        <mxCell id="zohfdWpynvSQTxGay5ZG-55" value="&lt;b&gt;&lt;font style=&quot;font-size: 16px;&quot;&gt;001&lt;/font&gt;&lt;/b&gt;" style="text;html=1;align=center;verticalAlign=middle;whiteSpace=wrap;rounded=0;" vertex="1" parent="1">
          <mxGeometry y="3560" width="40" height="40" as="geometry" />
        </mxCell>
        <mxCell id="zohfdWpynvSQTxGay5ZG-56" value="&lt;b&gt;&lt;font style=&quot;font-size: 16px;&quot;&gt;101&lt;/font&gt;&lt;/b&gt;" style="text;html=1;align=center;verticalAlign=middle;whiteSpace=wrap;rounded=0;" vertex="1" parent="1">
          <mxGeometry y="3600" width="40" height="40" as="geometry" />
        </mxCell>
        <mxCell id="zohfdWpynvSQTxGay5ZG-57" value="&lt;b&gt;&lt;font style=&quot;font-size: 16px;&quot;&gt;011&lt;/font&gt;&lt;/b&gt;" style="text;html=1;align=center;verticalAlign=middle;whiteSpace=wrap;rounded=0;" vertex="1" parent="1">
          <mxGeometry y="3640" width="40" height="40" as="geometry" />
        </mxCell>
        <mxCell id="zohfdWpynvSQTxGay5ZG-58" value="&lt;b&gt;&lt;font style=&quot;font-size: 16px;&quot;&gt;111&lt;/font&gt;&lt;/b&gt;" style="text;html=1;align=center;verticalAlign=middle;whiteSpace=wrap;rounded=0;" vertex="1" parent="1">
          <mxGeometry y="3680" width="40" height="40" as="geometry" />
        </mxCell>
      </root>
    </mxGraphModel>
  </diagram>
</mxfile>
